<?xml version="1.0" encoding="UTF-8" standalone="no"?>
<!-- Created with Inkscape (http://www.inkscape.org/) -->

<svg
   xmlns:dc="http://purl.org/dc/elements/1.1/"
   xmlns:cc="http://creativecommons.org/ns#"
   xmlns:rdf="http://www.w3.org/1999/02/22-rdf-syntax-ns#"
   xmlns:svg="http://www.w3.org/2000/svg"
   xmlns="http://www.w3.org/2000/svg"
   xmlns:sodipodi="http://sodipodi.sourceforge.net/DTD/sodipodi-0.dtd"
   xmlns:inkscape="http://www.inkscape.org/namespaces/inkscape"
   width="560"
   height="509.99997"
   id="svg2"
   version="1.1"
   inkscape:version="0.47pre2 r22153"
   sodipodi:docname="6502_inside.svg"
   inkscape:export-filename="/home/tcrass/feiern/Geburtstage/Harald/40/6502_inside.png"
   inkscape:export-xdpi="257.14001"
   inkscape:export-ydpi="257.14001">
  <defs
     id="defs4">
    <inkscape:perspective
       sodipodi:type="inkscape:persp3d"
       inkscape:vp_x="0 : 526.18109 : 1"
       inkscape:vp_y="0 : 1000 : 0"
       inkscape:vp_z="744.09448 : 526.18109 : 1"
       inkscape:persp3d-origin="372.04724 : 350.78739 : 1"
       id="perspective10" />
    <inkscape:perspective
       id="perspective2905"
       inkscape:persp3d-origin="0.5 : 0.33333333 : 1"
       inkscape:vp_z="1 : 0.5 : 1"
       inkscape:vp_y="0 : 1000 : 0"
       inkscape:vp_x="0 : 0.5 : 1"
       sodipodi:type="inkscape:persp3d" />
    <inkscape:perspective
       id="perspective3718"
       inkscape:persp3d-origin="0.5 : 0.33333333 : 1"
       inkscape:vp_z="1 : 0.5 : 1"
       inkscape:vp_y="0 : 1000 : 0"
       inkscape:vp_x="0 : 0.5 : 1"
       sodipodi:type="inkscape:persp3d" />
    <inkscape:perspective
       id="perspective4687"
       inkscape:persp3d-origin="0.5 : 0.33333333 : 1"
       inkscape:vp_z="1 : 0.5 : 1"
       inkscape:vp_y="0 : 1000 : 0"
       inkscape:vp_x="0 : 0.5 : 1"
       sodipodi:type="inkscape:persp3d" />
    <filter
       id="filter4712"
       inkscape:label="Drop shadow"
       width="1.5"
       height="1.5"
       x="-0.25"
       y="-0.25"
       color-interpolation-filters="sRGB">
      <feGaussianBlur
         id="feGaussianBlur4714"
         in="SourceAlpha"
         stdDeviation="1.000000"
         result="blur" />
      <feColorMatrix
         id="feColorMatrix4716"
         result="bluralpha"
         type="matrix"
         values="1 0 0 0 0 0 1 0 0 0 0 0 1 0 0 0 0 0 0.250000 0 " />
      <feOffset
         id="feOffset4718"
         in="bluralpha"
         dx="8.000000"
         dy="8.000000"
         result="offsetBlur" />
      <feMerge
         id="feMerge4720">
        <feMergeNode
           id="feMergeNode4722"
           in="offsetBlur" />
        <feMergeNode
           id="feMergeNode4724"
           in="SourceGraphic" />
      </feMerge>
    </filter>
    <filter
       id="filter4730"
       inkscape:label="Drop shadow"
       width="1.5"
       height="1.5"
       x="-0.25"
       y="-0.25"
       color-interpolation-filters="sRGB">
      <feGaussianBlur
         id="feGaussianBlur4732"
         in="SourceAlpha"
         stdDeviation="1.000000"
         result="blur" />
      <feColorMatrix
         id="feColorMatrix4734"
         result="bluralpha"
         type="matrix"
         values="1 0 0 0 0 0 1 0 0 0 0 0 1 0 0 0 0 0 0.250000 0 " />
      <feOffset
         id="feOffset4736"
         in="bluralpha"
         dx="8.000000"
         dy="8.000000"
         result="offsetBlur" />
      <feMerge
         id="feMerge4738">
        <feMergeNode
           id="feMergeNode4740"
           in="offsetBlur" />
        <feMergeNode
           id="feMergeNode4742"
           in="SourceGraphic" />
      </feMerge>
    </filter>
    <filter
       id="filter4744"
       inkscape:label="Drop shadow"
       width="1.5"
       height="1.5"
       x="-0.25"
       y="-0.25"
       color-interpolation-filters="sRGB">
      <feGaussianBlur
         id="feGaussianBlur4746"
         in="SourceAlpha"
         stdDeviation="1.000000"
         result="blur" />
      <feColorMatrix
         id="feColorMatrix4748"
         result="bluralpha"
         type="matrix"
         values="1 0 0 0 0 0 1 0 0 0 0 0 1 0 0 0 0 0 0.250000 0 " />
      <feOffset
         id="feOffset4750"
         in="bluralpha"
         dx="8.000000"
         dy="8.000000"
         result="offsetBlur" />
      <feMerge
         id="feMerge4752">
        <feMergeNode
           id="feMergeNode4754"
           in="offsetBlur" />
        <feMergeNode
           id="feMergeNode4756"
           in="SourceGraphic" />
      </feMerge>
    </filter>
    <filter
       id="filter4758"
       inkscape:label="Drop shadow"
       width="1.5"
       height="1.5"
       x="-0.25"
       y="-0.25"
       color-interpolation-filters="sRGB">
      <feGaussianBlur
         id="feGaussianBlur4760"
         in="SourceAlpha"
         stdDeviation="1.000000"
         result="blur" />
      <feColorMatrix
         id="feColorMatrix4762"
         result="bluralpha"
         type="matrix"
         values="1 0 0 0 0 0 1 0 0 0 0 0 1 0 0 0 0 0 0.250000 0 " />
      <feOffset
         id="feOffset4764"
         in="bluralpha"
         dx="8.000000"
         dy="8.000000"
         result="offsetBlur" />
      <feMerge
         id="feMerge4766">
        <feMergeNode
           id="feMergeNode4768"
           in="offsetBlur" />
        <feMergeNode
           id="feMergeNode4770"
           in="SourceGraphic" />
      </feMerge>
    </filter>
    <filter
       id="filter4772"
       inkscape:label="Drop shadow"
       width="1.5"
       height="1.5"
       x="-0.25"
       y="-0.25"
       color-interpolation-filters="sRGB">
      <feGaussianBlur
         id="feGaussianBlur4774"
         in="SourceAlpha"
         stdDeviation="1.000000"
         result="blur" />
      <feColorMatrix
         id="feColorMatrix4776"
         result="bluralpha"
         type="matrix"
         values="1 0 0 0 0 0 1 0 0 0 0 0 1 0 0 0 0 0 0.250000 0 " />
      <feOffset
         id="feOffset4778"
         in="bluralpha"
         dx="8.000000"
         dy="8.000000"
         result="offsetBlur" />
      <feMerge
         id="feMerge4780">
        <feMergeNode
           id="feMergeNode4782"
           in="offsetBlur" />
        <feMergeNode
           id="feMergeNode4784"
           in="SourceGraphic" />
      </feMerge>
    </filter>
    <inkscape:perspective
       id="perspective4794"
       inkscape:persp3d-origin="0.5 : 0.33333333 : 1"
       inkscape:vp_z="1 : 0.5 : 1"
       inkscape:vp_y="0 : 1000 : 0"
       inkscape:vp_x="0 : 0.5 : 1"
       sodipodi:type="inkscape:persp3d" />
  </defs>
  <sodipodi:namedview
     id="base"
     pagecolor="#ffffff"
     bordercolor="#666666"
     borderopacity="1.0"
     inkscape:pageopacity="1"
     inkscape:pageshadow="2"
     inkscape:zoom="1.4431373"
     inkscape:cx="280"
     inkscape:cy="254.99998"
     inkscape:document-units="px"
     inkscape:current-layer="layer1"
     showgrid="false"
     inkscape:window-width="1672"
     inkscape:window-height="981"
     inkscape:window-x="0"
     inkscape:window-y="0"
     inkscape:window-maximized="1" />
  <metadata
     id="metadata7">
    <rdf:RDF>
      <cc:Work
         rdf:about="">
        <dc:format>image/svg+xml</dc:format>
        <dc:type
           rdf:resource="http://purl.org/dc/dcmitype/StillImage" />
        <dc:title></dc:title>
      </cc:Work>
    </rdf:RDF>
  </metadata>
  <g
     inkscape:label="Layer 1"
     inkscape:groupmode="layer"
     id="layer1"
     transform="translate(-29.671057,-40.468744)">
    <path
       style="fill:#0000ff;fill-opacity:1;filter:url(#filter4712)"
       d="m 261.35718,537.29205 c -31.7504,-4.04603 -56.7078,-9.77119 -80.00002,-18.35177 -7.24575,-2.66924 -10.72033,-4.15669 -25.58148,-10.9513 -23.89531,-10.92507 -51.85719,-32.34668 -72.050899,-55.19823 -18.81441,-21.29071 -38.02858,-54.88208 -42.68762,-74.62906 -7.77472,-32.9526 -7.6691,-66.7555 0.31208,-99.87094 4.53251,-18.80628 10.47601,-35.4493 18.92716,-53 7.73511,-16.06368 13.26824,-25.42128 23.5815,-39.88094 10.21447,-14.32114 14.6172,-19.436 29.137619,-33.85054 24.73419,-24.55382 53.42904,-44.21279 86.36166,-59.166734 51.9304,-23.5804 93.015,-35.28012 147.5,-42.00372 47.2629,-5.83238 66.1112,-6.52246 99,-3.62462 13.0448,1.14937 38.8939,5.17216 47.5,7.39223 l 5,1.28982 -0.3331,9.92225 c -0.4601,13.70422 -2.9211,50.509784 -3.4101,50.998764 -0.2201,0.22016 -3.968,-1.33348 -8.3285,-3.45253 -7.1447,-3.47203 -13.7271,-5.8464 -28.9283,-10.43487 -6.1216,-1.84781 -23.2009,-5.215104 -34,-6.703324 -4.4,-0.60637 -19.925,-1.34631 -34.5,-1.64431 -27.1864,-0.55586 -27.8102,-0.51532 -63.7873,4.14563 -41.9745,5.437944 -74.3027,14.605914 -110.2127,31.255284 -4.675,2.16753 -10.075,4.50762 -12,5.2002 -5.0194,1.80591 -6.2329,2.33818 -19.00002,8.33442 -45.16884,21.21404 -78.82397,54.85235 -106.778359,106.72502 -13.86885,25.73529 -19.86471,46.03006 -20.93715,70.86808 -0.68805,15.93554 0.74074,29.11028 4.8401,44.62989 3.32886,12.60261 4.75524,16.27082 10.11012,26 12.96734,23.56013 31.961099,47.0502 51.265289,63.40111 13.6012,11.52041 42.38884,27.78218 60,33.89324 37.31342,12.94772 74.67782,16.52933 138.50002,13.27608 31.5746,-1.60947 53.5287,-6.27133 80.9204,-17.18311 35.2932,-14.0594 68.3457,-36.29957 98.6626,-66.38732 11.0098,-10.92666 15.7591,-16.52453 21.6343,-25.5 12.0443,-18.39973 18.8977,-32.17547 24.6851,-49.61821 2.8882,-8.7046 3.8298,-13.38315 5.6254,-27.95002 1.6844,-13.66588 1.2635,-21.23071 -2.1551,-38.72784 -6.6735,-34.1565 -29.637,-65.65938 -61.9497,-84.98684 -21.6533,-12.95165 -45.3028,-21.52606 -80.923,-29.33966 l -4,-0.87743 -0.7116,-12 c -0.3913,-6.6 -1.0672,-17.0625 -1.5018,-23.25 l -0.7902,-11.25 3.0018,0.0217 c 8.0952,0.0584 31.2476,4.21719 42.5018,7.63433 29.2142,8.87044 60.5428,28.09956 78.5,48.18235 26.709,29.87067 44.9473,67.50903 50.4631,104.14112 2.3041,15.30169 -1.5307,47.86783 -8.4545,71.79868 -6.274,21.68467 -20.8372,54.31662 -31.214,69.94125 -10.3898,15.64425 -33.7898,39.16942 -53.1687,53.45317 -18.5659,13.6845 -38.6269,25.30147 -64.1259,37.13414 -17.3782,8.06426 -54.2112,20.75074 -76.5,26.34909 -19.1048,4.79862 -57.8904,6.66299 -80,3.8455 l 0,-3e-5 z m -57.2122,-70.15096 c -0.6666,-0.27047 -2.1649,-2.03344 -3.3295,-3.9177 -2.0192,-3.26717 -2.1661,-5.37397 -3.1712,-45.46261 -0.5796,-23.12017 -0.7417,-42.34881 -0.3602,-42.73032 0.3816,-0.38151 5.2791,-0.8561 10.8834,-1.05464 l 10.1897,-0.36099 4.25,3.66588 4.25,3.66589 0,7.85697 c 0,4.32134 -0.4019,8.91392 -0.893,10.20574 -0.9178,2.41408 -1.376,7.9105 -3.1076,37.28144 -0.5512,9.35 -1.265,20.2625 -1.5862,24.25 l -0.5839,7.25 -7.6646,-0.079 c -4.2156,-0.0434 -8.2102,-0.30024 -8.8769,-0.57071 l 0,5e-5 z m 94.6491,-26.74674 c -0.2685,-0.26852 -2.7267,-0.5638 -5.4626,-0.65617 -7.7479,-0.26159 -8.2926,-0.60273 -9.9943,-6.25825 -1.5271,-5.07572 -2.1172,-8.64389 -6.4654,-39.09927 -1.9612,-13.73623 -3.605,-19.60072 -5.89,-21.01287 -1.9912,-1.23065 -6.068,3.8436 -9.4925,11.81503 l -3.6321,8.45479 0,21.42158 c 0,20.107 -0.122,21.53197 -1.9876,23.22033 -1.642,1.48595 -3.0308,1.6897 -7.9868,1.17169 -7.0345,-0.73525 -9.3796,-1.98559 -11.4873,-6.12473 -1.3161,-2.58463 -1.5824,-9.82701 -1.792,-48.73806 l -0.2463,-45.70233 6.5,-0.9952 c 13.2417,-2.0274 16.6319,-1.96879 19.5243,0.33756 2.2831,1.82047 2.7496,3.10598 3.2104,8.84615 0.2965,3.69388 0.815,6.71301 1.1522,6.70917 0.3372,-0.004 2.2013,-2.81634 4.1424,-6.25 l 3.5293,-6.24302 5.3429,-0.3065 c 6.3321,-0.36324 14.1849,2.15792 18.1003,5.8111 2.322,2.16659 2.9068,3.98852 4.3327,13.5 2.7072,18.059 3.6537,31.71213 3.9164,56.4954 l 0.2491,23.5 -2.5374,0.29591 c -1.3956,0.16275 -2.7572,0.0762 -3.0257,-0.19231 z m 16.3438,-5.02856 c -6.7836,-3.75615 -8.2807,-5.69695 -8.2807,-10.73449 0,-4.64363 0.3201,-5.20541 7.1789,-12.60044 9.5805,-10.32939 12.8251,-15.57062 12.8058,-20.68589 -0.01,-2.22982 -0.3459,-4.55396 -0.75,-5.16475 -0.4041,-0.6108 -4.5597,-4.38771 -9.2347,-8.39314 -11.7169,-10.03872 -13.3519,-12.53256 -13.8362,-21.1033 -0.4775,-8.45079 0.8527,-14.15145 5.5198,-23.65472 3.2338,-6.58481 4.3702,-7.84739 12.1913,-13.5451 4.7438,-3.45587 10.3555,-7.28577 12.4705,-8.51089 l 3.8454,-2.22748 3.2204,1.99029 c 6.2539,3.8651 6.9657,5.3542 7.4094,15.49989 0.5103,11.66768 -0.7005,15.79555 -5.2691,17.96352 -1.8446,0.8753 -3.7569,1.59146 -4.2497,1.59146 -1.2289,0 -7.7921,6.96788 -9.2648,9.83596 -1.1178,2.17707 -0.6293,2.89129 7.1817,10.5 4.6096,4.49022 9.8617,10.76475 11.6714,13.94339 3.2192,5.65456 3.2829,6.00001 2.9501,16 l -0.3402,10.22065 -5,7.92707 c -5.6795,9.00439 -14.4768,18.99247 -18.6114,21.13052 -3.3184,1.716 -8.5262,1.72382 -11.6079,0.0174 l 0,5e-5 z m 118.0094,-24.19398 c -2.027,-2.02706 -2.2901,-3.26508 -2.2901,-10.77659 0,-4.66754 -0.45,-8.76455 -1,-9.10447 -0.55,-0.33992 -1,-0.11986 -1,0.48902 0,1.8055 -6.423,11.25523 -10.033,14.76098 -2.9029,2.81899 -4.0347,3.25 -8.5347,3.25 -7.0546,0 -11.8645,-2.23344 -15.4402,-7.16961 -3.7046,-5.11404 -4.6505,-8.72964 -5.4494,-20.83039 -1.4242,-21.57203 2.1745,-41.01645 10.3027,-55.66681 5.5006,-9.91458 15.8091,-18.33319 22.4487,-18.33319 2.5061,0 3.9804,-1.928 3.2499,-4.25 -0.2163,-0.6875 -0.6762,-10.025 -1.0221,-20.75 l -0.6288,-19.5 3.1232,-3.38811 3.1232,-3.38811 7.7767,0.53302 c 4.2772,0.29317 9.1958,1.26687 10.9302,2.16379 l 3.1536,1.63077 -0.012,17.72432 c -0.01,9.74838 -0.4289,30.99932 -0.938,47.22432 -0.5091,16.225 -1.2362,42.68441 -1.6157,58.79868 l -0.6901,29.29869 -6.5818,-0.21308 c -5.3536,-0.17331 -7.0091,-0.64042 -8.8719,-2.50323 l -4e-4,0 z m -15.4924,-31.95196 c 1.2336,-0.86399 3.5795,-3.90149 5.2132,-6.75 2.9681,-5.17518 2.9703,-5.19178 2.9797,-21.9291 0.01,-9.94305 -0.3775,-16.75 -0.9426,-16.75 -1.4412,0 -7.1274,8.70311 -9.1305,13.97485 -0.9744,2.56465 -2.4796,8.39419 -3.3446,12.95454 -3.1831,16.77971 -1.389,23.1322 5.2248,18.49971 z m -48.7639,30.64074 c -6.999,-0.53418 -7.5996,-0.76827 -9.5968,-3.74039 -1.954,-2.90778 -2.1836,-4.97967 -2.7703,-25 -0.3519,-12.0062 -0.9379,-31.32133 -1.3022,-42.92251 l -0.6625,-21.09307 5.399,-0.64824 c 13.304,-1.59738 17.7819,-0.59714 23.2965,5.20373 2.7947,2.93983 2.8776,3.30951 2.3396,10.4242 -0.3069,4.05696 -1.0289,9.13807 -1.6045,11.29136 -0.5757,2.1533 -1.7528,16.51508 -2.6158,31.91508 -1.7679,31.54527 -2.2077,35.57517 -3.8547,35.31984 -0.6392,-0.0991 -4.5219,-0.43659 -8.6283,-0.75 z m 106.6652,-21.08525 c -9.3792,-3.56535 -14.4672,-9.13409 -18.9501,-20.74039 -1.8943,-4.90434 -2.1956,-7.49873 -2.0605,-17.7442 0.3239,-24.57868 2.7843,-34.51481 12.0751,-48.76559 5.1137,-7.84372 8.7121,-10.80141 15.9244,-13.08895 6.8117,-2.16048 12.1347,-2.07909 17.6133,0.26933 5.8809,2.52086 9.0502,6.89889 11.8209,16.32953 l 2.2752,7.74432 -2.2884,7.10517 c -5.2704,16.36409 -17.8424,30.94071 -28.2126,32.71104 l -4.3285,0.73893 -0.3282,5.72811 c -0.3281,5.72696 -0.3275,5.72811 2.5661,5.72811 4.7134,0 14.9837,-8.61034 16.6926,-13.9946 1.2927,-4.07315 12.5039,-1.68962 15.55,3.30597 6.1308,10.05485 -3.1393,24.38764 -21.7422,33.616 -7.0118,3.47834 -9.7753,3.65427 -16.6071,1.05722 z m 7.801,-52.82612 c 4.6953,-2.87049 7.812,-10.16581 7.6789,-17.97436 -0.1662,-9.75174 -2.1011,-10.58577 -6.63,-2.85777 -2.2658,3.86629 -4.489,11.1454 -5.9323,19.42366 -0.6634,3.8053 0.4415,4.124 4.8834,1.40847 z m -277.3192,28.25563 c -2.9183,-2.04403 -7.1808,-8.79567 -7.1808,-11.37399 0,-1.0998 0.7157,-3.78829 1.5904,-5.97443 1.2076,-3.0182 2.6406,-4.48318 5.9542,-6.08728 l 4.3638,-2.11249 4.4615,1.97351 c 5.8204,2.57464 8.0158,6.02076 8.0796,12.68253 0.057,5.96436 -1.7996,8.84413 -7.1674,11.11607 -4.2282,1.78961 -7.3246,1.72097 -10.1013,-0.22392 z m 159.7853,-56.50434 c -3.6535,-1.34432 -7.9661,-8.46849 -7.9661,-13.15959 0,-10.46707 9.9252,-15.96052 18.5849,-10.28646 5.2463,3.4375 7.2976,13.01427 3.8987,18.20167 -1.5132,2.30934 -8.661,6.36607 -10.9836,6.23371 -0.55,-0.0313 -2.1403,-0.47654 -3.5339,-0.98933 z"
       id="path2911"
       sodipodi:nodetypes="cssssssssssscccsssssssssssssssssssssssccccccsssssssscccssscccccssccccccsssscccssscccssscccsscccccsssssssscccsssssscccscccssssssssssccccccccsccccccscsssccsscccsssssccsssssccccccssssccsssccsscccssccssssc" />
    <path
       sodipodi:nodetypes="cccccccccccccc"
       id="path3746"
       d="m 143.36102,193.59324 c -9.87851,3.24844 -15.2741,19.50851 -21.27806,31.14665 -8.98108,21.05411 -19.57341,44.78222 -18.39149,70.31817 0.52338,22.93156 9.49813,41.62034 26.14866,45.45438 16.80267,-3.68939 31.45112,-12.30494 36.84133,-36.27262 5.80823,-24.38473 -2.17831,-50.22045 -17.4159,-58.77825 -3.15463,-0.98404 -6.42984,-1.10415 -9.72512,-0.45647 4.60294,-11.02605 11.68243,-20.01213 14.71172,-32.24228 2.24926,-11.28722 -2.75949,-17.45335 -10.89114,-19.16958 z m -4.46561,81.9793 c 6.38619,-2.55943 11.94609,6.21973 10.29572,16.38862 -0.1781,8.65488 -5.60115,14.11403 -10.56862,14.31779 -6.66982,3.36471 -11.4379,-7.44743 -9.97321,-17.10793 0.14925,-8.50673 5.40677,-13.31239 10.24611,-13.59848 z"
       style="font-size:210.87275696px;font-style:normal;font-variant:normal;font-weight:bold;font-stretch:normal;text-align:start;line-height:125%;writing-mode:lr-tb;text-anchor:start;fill:#0000ff;fill-opacity:1;stroke:none;filter:url(#filter4772);font-family:Dyuthi;-inkscape-font-specification:Dyuthi Bold" />
    <path
       sodipodi:nodetypes="ccccsccccccccccccccc"
       id="path3748"
       d="m 186.11699,172.99979 c -1.37664,3.77281 -2.65005,12.23298 -2.42572,16.92566 -0.8916,17.68661 -3.26494,53.15843 -3.26494,53.15843 0,0 2.13188,7.67751 5.54897,7.86502 4.3875,-0.50563 8.58924,-2.3685 12.13983,-4.90694 4.10727,-2.93644 8.06267,-10.93911 12.72701,-7.13491 5.87025,5.33727 9.38123,18.21038 5.61679,29.1148 -1.49589,11.25646 -9.43608,14.56088 -15.41634,13.18882 -6.30455,-0.85971 -10.00805,-7.71863 -16.91972,-10.7141 -8.88234,4.63597 -12.36101,20.50492 -7.98849,30.33121 7.27737,15.43726 21.68917,15.70237 33.4425,11.45227 14.82308,-5.00704 26.48556,-28.20363 26.94255,-51.62077 1.48579,-22.5056 -5.52599,-47.31091 -20.12008,-51.23315 -4.51409,-1.2078 -9.33419,-0.0459 -13.84341,2.38803 -1.52146,-10.96398 4.27335,-10.1997 9.32818,-10.62164 6.67356,-2.56217 14.78213,1.22307 20.49221,-6.84615 3.37108,-4.99261 2.90895,-22.7672 1.68988,-28.9959 -7.17364,-1.81622 -16.54146,0.5805 -24.07013,1.74138 -8.07709,1.60541 -16.09099,3.06059 -23.87909,5.90819 l 0,-2.5e-4 z"
       style="font-size:210.87275696px;font-style:normal;font-variant:normal;font-weight:bold;font-stretch:normal;text-align:start;line-height:125%;writing-mode:lr-tb;text-anchor:start;fill:#0000ff;fill-opacity:1;stroke:none;filter:url(#filter4758);font-family:Dyuthi;-inkscape-font-specification:Dyuthi Bold" />
    <path
       sodipodi:nodetypes="ccscscscscccccc"
       id="path3750"
       d="m 281.96948,149.3211 c -15.84667,6.48391 -26.64939,19.10555 -32.42534,39.83741 -7.59147,26.91994 -6.96687,56.36879 0.76908,82.8976 2.36116,8.09712 4.98588,11.95409 11.44151,22.24656 9.59243,4.80308 14.85967,6.34063 21.18209,4.34115 15.80913,-4.99969 26.44759,-17.58072 31.95417,-38.12166 7.64483,-27.99847 3.62131,-57.78441 -1.99813,-85.30347 -1.80142,-8.82179 -4.97825,-17.93974 -13.04608,-25.04046 -8.06783,-2.78763 -12.20625,-3.17753 -17.8773,-0.85713 z m -0.24809,28.9312 c 8.93687,-1.87889 12.89971,13.75716 13.59199,25.50559 0.80941,18.83164 1.75174,39.89531 -4.71038,57.78423 -3.87546,12.09288 -14.90482,11.75807 -18.40826,1.32626 -5.63669,-14.49969 -4.90907,-33.95862 -4.17515,-51.45948 0.80389,-12.49507 4.271,-31.05076 13.7018,-33.1566 z"
       style="font-size:210.87275696px;font-style:normal;font-variant:normal;font-weight:bold;font-stretch:normal;text-align:start;line-height:125%;writing-mode:lr-tb;text-anchor:start;fill:#0000ff;fill-opacity:1;stroke:none;filter:url(#filter4744);font-family:Dyuthi;-inkscape-font-specification:Dyuthi Bold" />
    <path
       sodipodi:nodetypes="ccscscccccccccsccc"
       id="path3752"
       d="m 354.43302,126.43831 c -14.51541,1.81134 -26.45811,22.94761 -29.15055,45.11476 -2.44636,10.26794 1.01009,21.47459 7.49231,23.51615 2.68565,0.84584 4.98256,0.2957 9.35974,-1.3365 1.88188,-3.85025 2.85723,-6.14688 3.1688,-10.84541 0.50387,-7.59863 -0.90442,-18.49472 4.88737,-22.4095 2.5709,-0.68104 5.81213,-3.28677 8.18696,-1.62688 3.03116,4.0298 5.64207,9.60609 3.82058,16.80469 -3.29658,24.93631 -15.50924,44.61916 -25.99698,63.73016 -3.92693,7.92991 -12.60068,13.5253 -12.25846,24.95797 0.21393,9.26322 6.02504,15.2429 11.75945,12.42158 14.91687,-2.72688 29.95362,-3.88217 44.80501,-7.47634 8.72745,-6.37939 5.63521,-25.7743 1.5643,-34.35213 -6.9702,-0.35225 -15.83101,3.19278 -22.87521,3.96973 11.34722,-20.42942 22.15674,-50.54168 22.37393,-77.39576 0.0898,-11.09733 -2.88883,-24.01474 -8.72739,-32.12883 -8.19525,-4.23252 -9.57101,-3.95896 -18.40986,-2.94375 l 0,6e-5 z"
       style="font-size:210.87275696px;font-style:normal;font-variant:normal;font-weight:bold;font-stretch:normal;text-align:start;line-height:125%;writing-mode:lr-tb;text-anchor:start;fill:#0000ff;fill-opacity:1;stroke:none;filter:url(#filter4730);font-family:Dyuthi;-inkscape-font-specification:Dyuthi Bold" />
    <g
       transform="translate(0.11287242,-0.5029221)"
       id="g4631">
      <path
         transform="matrix(1.0503144,0,0,1.0503144,15.569242,42.903607)"
         d="m 401.82005,93.623901 c 0,7.360269 -5.96668,13.326949 -13.32695,13.326949 -7.36027,0 -13.32694,-5.96668 -13.32694,-13.326949 0,-7.360269 5.96667,-13.326947 13.32694,-13.326947 7.36027,0 13.32695,5.966678 13.32695,13.326947 z"
         sodipodi:ry="13.326947"
         sodipodi:rx="13.326947"
         sodipodi:cy="93.623901"
         sodipodi:cx="388.4931"
         id="path4621"
         style="fill:#ffffff;fill-opacity:1"
         sodipodi:type="arc" />
      <text
         transform="scale(1.0019084,0.99809523)"
         sodipodi:linespacing="125%"
         id="text4627"
         y="148.98164"
         x="414.50375"
         style="font-size:21.87560654px;font-style:normal;font-weight:normal;line-height:125%;fill:#0000ff;fill-opacity:1;stroke:none;font-family:Bitstream Vera Sans"
         xml:space="preserve"><tspan
           style="font-size:21.87560654px;font-style:normal;font-variant:normal;font-weight:bold;font-stretch:normal;text-align:start;line-height:125%;writing-mode:lr-tb;text-anchor:start;fill:#0000ff;fill-opacity:1;font-family:Bitstream Vera Sans;-inkscape-font-specification:Bitstream Vera Sans Bold"
           y="148.98164"
           x="414.50375"
           id="tspan4629"
           sodipodi:role="line">R</tspan></text>
    </g>
  </g>
</svg>
