M48
; DRILL file {KiCad (5.1.2)-1} date 8/6/2019 8:00:03 AM
; FORMAT={-:-/ absolute / inch / decimal}
; #@! TF.CreationDate,2019-08-06T08:00:03-07:00
; #@! TF.GenerationSoftware,Kicad,Pcbnew,(5.1.2)-1
FMAT,2
INCH
T1C0.0157
T2C0.0236
T3C0.0295
T4C0.0315
T5C0.0315
T6C0.0350
T7C0.0354
T8C0.0390
T9C0.0394
T10C0.0402
T11C0.0433
T12C0.0469
T13C0.0472
T14C0.0512
T15C0.0591
T16C0.0630
T17C0.0728
T18C0.0866
T19C0.1181
T20C0.1260
T21C0.1378
T22C0.1693
T23C0.0472
T24C0.0512
T25C0.1280
T26C0.1378
%
G90
G05
T1
X3.8189Y-4.3858
X3.8189Y-4.8583
X3.8189Y-5.0945
X3.8189Y-6.0394
X3.8189Y-6.2756
X3.8189Y-6.748
X3.8189Y-6.9843
X3.8189Y-7.2205
X3.8189Y-8.1654
X3.8189Y-8.4016
X3.8189Y-8.6378
X3.8189Y-8.874
X3.8189Y-9.1102
X3.8189Y-9.3465
X3.8189Y-10.2913
X3.8189Y-10.5276
X3.8189Y-10.7638
X3.8189Y-11.0
X3.8189Y-11.2362
X4.0551Y-4.3858
X4.0551Y-4.8583
X4.0551Y-5.0945
X4.0551Y-6.2756
X4.0551Y-6.5118
X4.0551Y-6.748
X4.0551Y-6.9843
X4.0551Y-7.2205
X4.0551Y-8.4016
X4.0551Y-8.6378
X4.0551Y-8.874
X4.0551Y-9.1102
X4.0551Y-9.3465
X4.0551Y-10.5472
X4.0551Y-10.7638
X4.0551Y-11.0
X4.0551Y-11.2362
X4.2913Y-4.3858
X4.2913Y-4.622
X4.2913Y-4.8583
X4.2913Y-5.0945
X4.2913Y-6.5118
X4.2913Y-6.748
X4.2913Y-6.9843
X4.2913Y-7.2205
X4.2913Y-7.4567
X4.2913Y-8.6378
X4.2913Y-8.874
X4.2913Y-9.1102
X4.2913Y-9.3465
X4.2913Y-9.5827
X4.2913Y-11.0
X4.2913Y-11.2362
X4.5276Y-4.3858
X4.5276Y-4.622
X4.5276Y-4.8583
X4.5276Y-5.0945
X4.5276Y-6.5118
X4.5276Y-6.748
X4.5276Y-7.2205
X4.5276Y-7.4567
X4.5276Y-8.874
X4.5276Y-9.3465
X4.5276Y-9.5827
X4.5276Y-11.0
X4.5276Y-11.2362
X4.7638Y-4.3858
X4.7638Y-4.622
X4.7638Y-4.8583
X4.7638Y-5.0945
X4.7638Y-6.0394
X4.7638Y-6.2756
X4.7638Y-6.5118
X4.7638Y-6.748
X4.7638Y-6.9843
X4.7638Y-7.2205
X4.7638Y-7.4567
X4.7638Y-7.6929
X4.7638Y-7.9291
X4.7638Y-8.1654
X4.7638Y-8.4016
X4.7638Y-8.6378
X4.7638Y-8.874
X4.7638Y-9.1102
X4.7638Y-9.3465
X4.7638Y-9.5827
X4.7638Y-10.5276
X4.7638Y-10.7638
X4.7638Y-11.0
X4.7638Y-11.2362
X5.0Y-4.3858
X5.0Y-4.622
X5.0Y-4.8583
X5.0Y-5.0945
X5.0Y-6.5118
X5.0Y-6.748
X5.0Y-6.9843
X5.0Y-7.2205
X5.0Y-8.874
X5.0Y-9.1102
X5.0Y-9.3465
X5.0Y-9.5827
X5.0Y-10.5276
X5.0Y-10.7638
X5.0Y-11.0
X5.0Y-11.2362
X5.2362Y-4.3858
X5.2362Y-4.622
X5.2362Y-4.8583
X5.2362Y-5.0945
X5.2362Y-5.3307
X5.2362Y-5.5669
X5.2362Y-6.0394
X5.2362Y-6.2756
X5.2362Y-6.5118
X5.2362Y-6.748
X5.2362Y-6.9843
X5.2362Y-7.2205
X5.2362Y-8.874
X5.2362Y-9.1102
X5.2362Y-9.3465
X5.2362Y-9.5827
X5.2362Y-9.8189
X5.2362Y-10.0551
X5.2362Y-10.5276
X5.2362Y-10.7638
X5.2362Y-11.0
X5.2362Y-11.2362
X5.2598Y-7.4567
X5.2598Y-7.6929
X5.2598Y-7.9291
X5.4724Y-4.3858
X5.4724Y-4.622
X5.4724Y-4.8583
X5.4724Y-5.0945
X5.4724Y-6.2756
X5.4724Y-6.5118
X5.4724Y-6.748
X5.4724Y-6.9843
X5.4724Y-7.2205
X5.4724Y-7.9291
X5.4724Y-8.874
X5.4724Y-9.1102
X5.4724Y-9.3465
X5.4724Y-9.5827
X5.4724Y-10.7638
X5.4724Y-11.0
X5.4843Y-5.8031
X5.4843Y-6.0394
X5.4843Y-8.1654
X5.4843Y-8.4016
X5.4843Y-8.6378
X5.4921Y-10.2913
X5.4921Y-10.5276
X5.7087Y-4.3858
X5.7087Y-4.622
X5.7087Y-4.8583
X5.7087Y-5.0945
X5.7087Y-6.2756
X5.7087Y-6.5118
X5.7087Y-6.748
X5.7087Y-6.9843
X5.7087Y-7.2205
X5.7087Y-7.9291
X5.7087Y-8.1654
X5.7087Y-8.4016
X5.7087Y-8.6378
X5.7087Y-8.874
X5.7087Y-9.1102
X5.7087Y-9.3465
X5.7087Y-9.5827
X5.7087Y-10.2913
X5.7087Y-10.5276
X5.7087Y-10.7638
X5.9449Y-4.3858
X5.9449Y-5.0945
X5.9449Y-5.3307
X5.9449Y-5.5669
X5.9449Y-6.5118
X5.9449Y-6.748
X5.9449Y-6.9843
X5.9449Y-7.2205
X5.9449Y-7.4567
X5.9449Y-7.6929
X5.9449Y-7.9291
X5.9449Y-8.874
X5.9449Y-9.1102
X5.9449Y-9.3465
X5.9449Y-9.5827
X5.9449Y-9.8189
X5.9449Y-10.0551
X6.1811Y-4.3858
X6.1811Y-4.622
X6.1811Y-5.0945
X6.1811Y-5.3307
X6.1811Y-5.5669
X6.1811Y-6.9843
X6.1811Y-7.2205
X6.1811Y-7.4567
X6.1811Y-7.6929
X6.1811Y-7.9291
X6.1811Y-9.1102
X6.1811Y-9.3465
X6.1811Y-9.5827
X6.1811Y-9.8189
X6.1811Y-10.0551
X6.4173Y-4.3858
X6.4173Y-4.622
X6.4173Y-5.0945
X6.4173Y-5.3307
X6.4173Y-5.5669
X6.4173Y-5.8031
X6.4173Y-7.2205
X6.4173Y-7.4567
X6.4173Y-7.6929
X6.4173Y-7.9291
X6.4173Y-9.3465
X6.4173Y-9.5827
X6.4173Y-9.8189
X6.4173Y-10.0551
X6.6417Y-4.8583
X6.6535Y-4.622
X6.6535Y-5.0945
X6.6535Y-5.5669
X6.6535Y-5.8031
X6.6535Y-6.5118
X6.6535Y-6.748
X6.6535Y-6.9843
X6.6535Y-7.2205
X6.6535Y-7.6929
X6.6535Y-7.9291
X6.6535Y-8.6378
X6.6535Y-8.874
X6.6535Y-9.1102
X6.6535Y-9.3465
X6.6535Y-9.5827
X6.6535Y-9.8189
X6.6535Y-10.0551
X6.8898Y-4.3858
X6.8898Y-4.622
X6.8898Y-5.3307
X6.8898Y-5.5669
X6.8898Y-5.8031
X6.8898Y-6.0394
X6.8898Y-6.2756
X6.8898Y-6.5118
X6.8898Y-6.748
X6.8898Y-6.9843
X6.8898Y-7.2205
X6.8898Y-7.4567
X6.8898Y-7.6929
X6.8898Y-7.9291
X6.8898Y-8.1654
X6.8898Y-8.4016
X6.8898Y-8.6378
X6.8898Y-8.874
X6.8898Y-9.1102
X6.8898Y-9.3465
X6.8898Y-9.5827
X6.8898Y-9.8189
X6.8898Y-10.0551
X7.0728Y-11.1709
X7.126Y-4.622
X7.126Y-5.0945
X7.126Y-5.3307
X7.126Y-5.5669
X7.126Y-5.7874
X7.126Y-7.2205
X7.126Y-7.4567
X7.126Y-7.6929
X7.126Y-7.9291
X7.126Y-9.3465
X7.126Y-9.5827
X7.126Y-9.8189
X7.2823Y-10.8669
X7.3504Y-8.1654
X7.3504Y-8.4016
X7.3543Y-6.0394
X7.3622Y-4.3858
X7.3622Y-4.622
X7.3622Y-4.8583
X7.3622Y-5.0945
X7.3622Y-5.3307
X7.3622Y-5.5669
X7.3622Y-5.7874
X7.3622Y-6.2756
X7.3622Y-7.2205
X7.3622Y-7.4567
X7.3622Y-7.6929
X7.3622Y-7.9291
X7.3622Y-9.3465
X7.3622Y-9.5827
X7.4803Y-8.1102
X7.4803Y-8.189
X7.4803Y-8.2677
X7.5591Y-8.1102
X7.5591Y-8.189
X7.5591Y-8.2677
X7.5591Y-8.3465
X7.5984Y-4.3858
X7.5984Y-4.622
X7.5984Y-4.8583
X7.5984Y-5.0945
X7.5984Y-5.3307
X7.5984Y-5.5669
X7.5984Y-5.7874
X7.5984Y-6.2756
X7.5984Y-6.5118
X7.5984Y-6.748
X7.5984Y-6.9843
X7.5984Y-7.2205
X7.5984Y-7.4567
X7.5984Y-7.6929
X7.5984Y-7.9291
X7.5984Y-8.6378
X7.5984Y-8.874
X7.5984Y-9.1102
X7.5984Y-9.3465
X7.6378Y-8.1102
X7.6378Y-8.189
X7.6378Y-8.2677
X7.6378Y-8.3465
X7.7165Y-8.1102
X7.7165Y-8.189
X7.7165Y-8.2677
X7.7165Y-8.3465
X7.7953Y-8.1102
X7.7953Y-8.189
X7.7953Y-8.2677
X7.7953Y-8.3465
X7.8346Y-4.3858
X7.8346Y-4.622
X7.8346Y-4.8583
X7.8346Y-5.0945
X7.8346Y-5.3307
X7.8346Y-5.5669
X7.8346Y-5.7874
X7.8346Y-6.2756
X7.8346Y-6.5118
X7.8346Y-6.748
X7.8346Y-6.9843
X7.8346Y-7.2205
X7.8346Y-7.4567
X7.8346Y-7.6929
X7.8346Y-7.9291
X7.8346Y-8.6378
X7.874Y-8.1102
X7.874Y-8.189
X7.874Y-8.2677
X7.874Y-8.3465
X8.1319Y-12.4445
X9.1929Y-8.7815
X9.222Y-8.811
X9.2618Y-10.2717
X9.2642Y-8.8406
X9.3047Y-8.8724
X9.3657Y-10.2228
X9.4803Y-9.0906
X9.8862Y-9.1591
X9.9689Y-9.1846
X10.052Y-9.1921
X10.1531Y-6.3425
X10.2197Y-9.0677
X10.7346Y-9.4654
X10.7406Y-9.2626
X10.7579Y-9.3866
X10.8185Y-5.4114
X10.9189Y-5.413
X10.9508Y-9.2492
X10.9516Y-10.7441
X11.0165Y-5.4138
X11.2138Y-5.4138
X11.3126Y-5.415
X11.4059Y-5.4126
X11.4669Y-10.6169
X11.4961Y-10.5717
X11.5181Y-9.0677
X11.6087Y-9.102
X12.0827Y-9.8512
X12.0854Y-9.6953
X12.0961Y-9.7866
X12.4165Y-4.6791
X13.4858Y-8.3323
X13.5291Y-8.9965
X13.5295Y-7.7512
X13.5295Y-11.3055
X13.5303Y-9.5902
X13.5366Y-10.7075
X13.5437Y-10.2122
X13.7492Y-5.5118
X13.785Y-4.6453
X14.4594Y-4.9539
T2
X3.7565Y-4.5906
X3.7937Y-4.5008
X3.7937Y-4.6803
X3.8835Y-4.4636
X3.8835Y-4.7175
X3.9732Y-4.5008
X3.9732Y-4.6803
X4.0104Y-4.5906
X16.1825Y-4.5906
X16.2197Y-4.5008
X16.2197Y-4.6803
X16.3094Y-4.4636
X16.3094Y-4.7175
X16.3992Y-4.5008
X16.3992Y-4.6803
X16.4364Y-4.5906
X3.7856Y-12.4874
X3.8228Y-12.3976
X3.8228Y-12.5772
X3.9126Y-12.3604
X3.9126Y-12.6144
X4.0024Y-12.3976
X4.0024Y-12.5772
X4.0396Y-12.4874
X16.1825Y-12.4874
X16.2197Y-12.3976
X16.2197Y-12.5772
X16.3094Y-12.3604
X16.3094Y-12.6144
X16.3992Y-12.3976
X16.3992Y-12.5772
X16.4364Y-12.4874
T3
X12.0319Y-5.9244
X12.0819Y-5.9244
X12.1319Y-5.9244
X8.5644Y-11.7459
X8.5644Y-11.7959
X8.5644Y-11.8459
T4
X16.1783Y-5.174
X16.1783Y-5.574
X13.3193Y-5.7189
X13.3193Y-5.8189
X13.3193Y-5.9189
X13.3193Y-6.0189
X13.6193Y-5.7189
X13.6193Y-5.8189
X13.6193Y-5.9189
X13.6193Y-6.0189
X16.1079Y-9.1941
X16.2063Y-9.1941
X12.7264Y-5.4728
X12.8248Y-5.4728
X8.4244Y-4.9866
X8.4244Y-5.3866
X12.7264Y-10.4209
X12.8248Y-10.4209
X14.7217Y-6.3094
X14.7217Y-6.7094
X14.4933Y-5.3268
X14.4933Y-5.4252
X8.5165Y-10.6677
X8.5165Y-10.7677
X8.5165Y-10.8677
X8.5165Y-10.9677
X8.5165Y-11.0677
X8.5165Y-11.1677
X8.5165Y-11.2677
X8.8165Y-10.6677
X8.8165Y-10.7677
X8.8165Y-10.8677
X8.8165Y-10.9677
X8.8165Y-11.0677
X8.8165Y-11.1677
X8.8165Y-11.2677
X12.4709Y-5.6689
X12.4709Y-6.0689
X9.3602Y-9.678
X9.3602Y-10.078
X12.6256Y-10.6677
X12.6256Y-10.7677
X12.6256Y-10.8677
X12.6256Y-10.9677
X12.6256Y-11.0677
X12.6256Y-11.1677
X12.6256Y-11.2677
X12.9256Y-10.6677
X12.9256Y-10.7677
X12.9256Y-10.8677
X12.9256Y-10.9677
X12.9256Y-11.0677
X12.9256Y-11.1677
X12.9256Y-11.2677
X9.9039Y-10.6677
X9.9039Y-10.7677
X9.9039Y-10.8677
X9.9039Y-10.9677
X9.9039Y-11.0677
X9.9039Y-11.1677
X9.9039Y-11.2677
X10.2039Y-10.6677
X10.2039Y-10.7677
X10.2039Y-10.8677
X10.2039Y-10.9677
X10.2039Y-11.0677
X10.2039Y-11.1677
X10.2039Y-11.2677
X12.5756Y-9.4252
X12.9756Y-9.4252
X4.6343Y-7.8191
X5.0343Y-7.8191
X6.6937Y-6.1811
X7.0937Y-6.1811
X6.326Y-5.885
X6.326Y-5.9835
X14.2492Y-6.3094
X14.2492Y-6.7094
X10.5531Y-11.65
X10.5531Y-11.95
X10.8531Y-11.65
X10.8531Y-11.95
X5.5854Y-5.1559
X5.5854Y-5.2937
X13.6091Y-10.3937
X13.7075Y-10.3937
X13.6091Y-9.1941
X13.7075Y-9.1941
X16.1079Y-10.3933
X16.2063Y-10.3933
X9.665Y-11.6075
X9.665Y-12.0075
X11.339Y-8.3413
X11.4374Y-8.3413
X9.7681Y-4.8854
X9.7681Y-5.2854
X9.7831Y-11.6075
X9.7831Y-12.0075
X8.7421Y-8.4606
X8.7421Y-8.8606
X8.5681Y-6.5634
X8.765Y-6.5634
X9.1035Y-6.7016
X9.1035Y-7.1016
X4.6307Y-5.7374
X5.0307Y-5.7374
X5.8425Y-9.5752
X5.8425Y-9.6736
X14.6035Y-6.3094
X14.6035Y-6.7094
X6.326Y-8.0846
X6.326Y-8.1831
X6.0701Y-5.7177
X6.0701Y-5.8555
X9.0654Y-11.1693
X9.0654Y-11.2677
X10.0047Y-11.4106
X10.1031Y-11.4106
X13.6091Y-9.7937
X13.7075Y-9.7937
X8.3531Y-6.0476
X8.3531Y-6.4476
X13.1646Y-4.8374
X13.1646Y-5.2374
X8.5165Y-6.8004
X8.5165Y-6.9004
X8.5165Y-7.0004
X8.5165Y-7.1004
X8.5165Y-7.2004
X8.5165Y-7.3004
X8.5165Y-7.4004
X8.8165Y-6.8004
X8.8165Y-6.9004
X8.8165Y-7.0004
X8.8165Y-7.1004
X8.8165Y-7.2004
X8.8165Y-7.3004
X8.8165Y-7.4004
X8.9713Y-10.6677
X8.9713Y-11.0677
X8.9677Y-7.6232
X9.3677Y-7.6232
X8.9634Y-10.1795
X8.9634Y-10.278
X11.9319Y-7.4984
X11.9319Y-7.5984
X11.9319Y-7.6984
X11.9319Y-7.7984
X11.9319Y-7.8984
X11.9319Y-7.9984
X11.9319Y-8.0984
X11.9319Y-8.1984
X12.2319Y-7.4984
X12.2319Y-7.5984
X12.2319Y-7.6984
X12.2319Y-7.7984
X12.2319Y-7.8984
X12.2319Y-7.9984
X12.2319Y-8.0984
X12.2319Y-8.1984
X9.4579Y-6.7016
X9.4579Y-7.1016
X10.3488Y-8.2315
X10.3488Y-8.3299
X4.6343Y-10.0189
X5.0343Y-10.0189
X8.9634Y-11.1693
X8.9634Y-11.2677
X15.1154Y-5.0276
X15.1154Y-5.4276
X8.2693Y-10.1795
X8.2693Y-10.278
X13.4201Y-5.4728
X13.5185Y-5.4728
X16.2965Y-5.174
X16.2965Y-5.574
X8.3618Y-9.678
X8.3618Y-10.078
X6.624Y-10.6677
X6.624Y-10.7677
X6.624Y-10.8677
X6.624Y-10.9677
X6.624Y-11.0677
X6.624Y-11.1677
X6.624Y-11.2677
X6.624Y-11.3677
X6.924Y-10.6677
X6.924Y-10.7677
X6.924Y-10.8677
X6.924Y-10.9677
X6.924Y-11.0677
X6.924Y-11.1677
X6.924Y-11.2677
X6.924Y-11.3677
X8.5059Y-8.4606
X8.5059Y-8.8606
X7.6449Y-5.7177
X7.6449Y-5.8555
X12.6256Y-7.4984
X12.6256Y-7.5984
X12.6256Y-7.6984
X12.6256Y-7.7984
X12.6256Y-7.8984
X12.6256Y-7.9984
X12.6256Y-8.0984
X12.6256Y-8.1984
X12.9256Y-7.4984
X12.9256Y-7.5984
X12.9256Y-7.6984
X12.9256Y-7.7984
X12.9256Y-7.8984
X12.9256Y-7.9984
X12.9256Y-8.0984
X12.9256Y-8.1984
X9.8122Y-6.7016
X9.8122Y-7.1016
X4.0106Y-5.1567
X4.0106Y-5.2945
X11.9319Y-4.7291
X11.9319Y-4.8291
X11.9319Y-4.9291
X11.9319Y-5.0291
X11.9319Y-5.1291
X11.9319Y-5.2291
X11.9319Y-5.3291
X12.2319Y-4.7291
X12.2319Y-4.8291
X12.2319Y-4.9291
X12.2319Y-5.0291
X12.2319Y-5.1291
X12.2319Y-5.2291
X12.2319Y-5.3291
X11.9319Y-6.4087
X11.9319Y-6.5087
X11.9319Y-6.6087
X11.9319Y-6.7087
X11.9319Y-6.8087
X11.9319Y-6.9087
X11.9319Y-7.0087
X11.9319Y-7.1087
X12.2319Y-6.4087
X12.2319Y-6.5087
X12.2319Y-6.6087
X12.2319Y-6.7087
X12.2319Y-6.8087
X12.2319Y-6.9087
X12.2319Y-7.0087
X12.2319Y-7.1087
X15.4697Y-5.0276
X15.4697Y-5.4276
X4.2665Y-7.5238
X4.2665Y-7.6222
X15.3295Y-4.7236
X15.7295Y-4.7236
X13.8555Y-5.5685
X13.8555Y-6.1685
X13.9555Y-5.5685
X13.9555Y-6.1685
X14.0555Y-5.5685
X14.0555Y-6.1685
X14.1555Y-5.5685
X14.1555Y-6.1685
X14.2555Y-5.5685
X14.2555Y-6.1685
X14.3555Y-5.5685
X14.3555Y-6.1685
X14.4555Y-5.5685
X14.4555Y-6.1685
X14.5555Y-5.5685
X14.5555Y-6.1685
X14.6555Y-5.5685
X14.6555Y-6.1685
X14.7555Y-5.5685
X14.7555Y-6.1685
X14.8555Y-5.5685
X14.8555Y-6.1685
X14.9555Y-5.5685
X14.9555Y-6.1685
X15.0555Y-5.5685
X15.0555Y-6.1685
X15.1555Y-5.5685
X15.1555Y-6.1685
X15.2555Y-5.5685
X15.2555Y-6.1685
X15.3555Y-5.5685
X15.3555Y-6.1685
X15.4555Y-5.5685
X15.4555Y-6.1685
X15.5555Y-5.5685
X15.5555Y-6.1685
X15.6555Y-5.5685
X15.6555Y-6.1685
X15.7555Y-5.5685
X15.7555Y-6.1685
X12.0329Y-5.4724
X12.1313Y-5.4724
X13.0803Y-5.6689
X13.0803Y-6.0689
X12.7264Y-10.5248
X12.8248Y-10.5248
X15.5175Y-12.3246
X15.9175Y-12.3246
X14.8831Y-6.3079
X14.8831Y-6.4063
X9.9039Y-9.578
X9.9039Y-9.678
X9.9039Y-9.778
X9.9039Y-9.878
X9.9039Y-9.978
X9.9039Y-10.078
X9.9039Y-10.178
X9.9039Y-10.278
X10.2039Y-9.578
X10.2039Y-9.678
X10.2039Y-9.778
X10.2039Y-9.878
X10.2039Y-9.978
X10.2039Y-10.078
X10.2039Y-10.178
X10.2039Y-10.278
X8.5425Y-4.9866
X8.5425Y-5.3866
X9.2421Y-9.678
X9.2421Y-10.078
X11.2382Y-11.6575
X11.2382Y-11.7575
X11.2382Y-11.8575
X11.2382Y-11.9575
X11.2382Y-12.0575
X11.2382Y-12.1575
X11.2382Y-12.2575
X11.5382Y-11.6575
X11.5382Y-11.7575
X11.5382Y-11.8575
X11.5382Y-11.9575
X11.5382Y-12.0575
X11.5382Y-12.1575
X11.5382Y-12.2575
X13.3193Y-4.7291
X13.3193Y-4.8291
X13.3193Y-4.9291
X13.3193Y-5.0291
X13.3193Y-5.1291
X13.3193Y-5.2291
X13.3193Y-5.3291
X13.6193Y-4.7291
X13.6193Y-4.8291
X13.6193Y-4.9291
X13.6193Y-5.0291
X13.6193Y-5.1291
X13.6193Y-5.2291
X13.6193Y-5.3291
X10.6606Y-12.0902
X10.7591Y-12.0902
X12.6256Y-6.4087
X12.6256Y-6.5087
X12.6256Y-6.6087
X12.6256Y-6.7087
X12.6256Y-6.8087
X12.6256Y-6.9087
X12.6256Y-7.0087
X12.6256Y-7.1087
X12.9256Y-6.4087
X12.9256Y-6.5087
X12.9256Y-6.6087
X12.9256Y-6.7087
X12.9256Y-6.8087
X12.9256Y-6.9087
X12.9256Y-7.0087
X12.9256Y-7.1087
X15.824Y-5.0276
X15.824Y-5.4276
X4.6307Y-10.137
X5.0307Y-10.137
X5.8413Y-7.3762
X5.8413Y-7.4746
X9.7492Y-9.678
X9.7492Y-10.078
X13.6091Y-10.9933
X13.7075Y-10.9933
X16.1079Y-11.5941
X16.2063Y-11.5941
X16.1079Y-10.9941
X16.2063Y-10.9941
X8.9374Y-11.6075
X8.9374Y-12.0075
X12.7264Y-11.5146
X12.8248Y-11.5146
X10.0043Y-4.8854
X10.0043Y-5.2854
X9.7591Y-10.6677
X9.7591Y-10.7661
X9.1602Y-11.5126
X9.5602Y-11.5126
X9.5965Y-9.678
X9.5965Y-10.078
X8.5165Y-6.1106
X8.5165Y-6.2106
X8.5165Y-6.3106
X8.5165Y-6.4106
X8.8165Y-6.1106
X8.8165Y-6.2106
X8.8165Y-6.3106
X8.8165Y-6.4106
X9.7047Y-5.7205
X9.7047Y-5.8189
X8.9854Y-6.7016
X8.9854Y-7.1016
X8.5165Y-9.678
X8.5165Y-9.778
X8.5165Y-9.878
X8.5165Y-9.978
X8.5165Y-10.078
X8.5165Y-10.178
X8.5165Y-10.278
X8.8165Y-9.678
X8.8165Y-9.778
X8.8165Y-9.878
X8.8165Y-9.978
X8.8165Y-10.078
X8.8165Y-10.178
X8.8165Y-10.278
X4.6343Y-5.6193
X5.0343Y-5.6193
X11.3535Y-10.6285
X11.3535Y-10.7285
X11.3535Y-10.8285
X11.3535Y-10.9285
X11.3535Y-11.0285
X11.3535Y-11.1285
X7.9008Y-5.7374
X7.9008Y-5.8358
X9.2102Y-11.6575
X9.2102Y-11.7575
X9.2102Y-11.8575
X9.2102Y-11.9575
X9.5102Y-11.6575
X9.5102Y-11.7575
X9.5102Y-11.8575
X9.5102Y-11.9575
X14.4854Y-6.3094
X14.4854Y-6.7094
X4.2665Y-5.324
X4.2665Y-5.4224
X5.5854Y-7.3565
X5.5854Y-7.4943
X9.7591Y-10.1795
X9.7591Y-10.278
X12.7264Y-8.4453
X12.8248Y-8.4453
X13.6091Y-7.9941
X13.7075Y-7.9941
X16.1079Y-8.5941
X16.2063Y-8.5941
X8.2339Y-6.0476
X8.2339Y-6.4476
X10.6976Y-11.4014
X11.0976Y-11.4014
X11.9319Y-8.5882
X11.9319Y-8.6882
X11.9319Y-8.7882
X11.9319Y-8.8882
X11.9319Y-8.9882
X11.9319Y-9.0882
X11.9319Y-9.1882
X12.2319Y-8.5882
X12.2319Y-8.6882
X12.2319Y-8.7882
X12.2319Y-8.8882
X12.2319Y-8.9882
X12.2319Y-9.0882
X12.2319Y-9.1882
X9.1602Y-12.1102
X9.5602Y-12.1102
X12.4709Y-8.5882
X12.4709Y-8.9882
X8.2713Y-11.1693
X8.2713Y-11.2677
X9.3398Y-6.7016
X9.3398Y-7.1016
X12.3768Y-9.5858
X12.3768Y-9.6843
X6.6937Y-8.498
X7.0937Y-8.498
X8.3697Y-10.1795
X8.3697Y-10.278
X14.3319Y-5.0276
X14.3319Y-5.4276
X9.0638Y-10.1795
X9.0638Y-10.278
X10.0047Y-10.4209
X10.1031Y-10.4209
X15.3295Y-4.6055
X15.7295Y-4.6055
X8.9713Y-9.678
X8.9713Y-10.078
X9.2102Y-10.6677
X9.2102Y-10.7677
X9.2102Y-10.8677
X9.2102Y-10.9677
X9.2102Y-11.0677
X9.2102Y-11.1677
X9.2102Y-11.2677
X9.5102Y-10.6677
X9.5102Y-10.7677
X9.5102Y-10.8677
X9.5102Y-10.9677
X9.5102Y-11.0677
X9.5102Y-11.1677
X9.5102Y-11.2677
X8.9677Y-7.387
X9.3677Y-7.387
X9.6472Y-10.9177
X9.6472Y-11.2177
X11.9319Y-11.6575
X11.9319Y-11.7575
X11.9319Y-11.8575
X11.9319Y-11.9575
X11.9319Y-12.0575
X11.9319Y-12.1575
X11.9319Y-12.2575
X12.2319Y-11.6575
X12.2319Y-11.7575
X12.2319Y-11.8575
X12.2319Y-11.9575
X12.2319Y-12.0575
X12.2319Y-12.1575
X12.2319Y-12.2575
X9.6941Y-6.7016
X9.6941Y-7.1016
X9.55Y-9.2299
X9.6484Y-9.2299
X9.7882Y-12.2335
X9.8866Y-12.2335
X8.6181Y-10.4209
X8.7165Y-10.4209
X15.3516Y-5.0276
X15.3516Y-5.4276
X13.4201Y-6.2736
X13.5185Y-6.2736
X14.5815Y-4.7236
X14.9815Y-4.7236
X8.6173Y-7.5437
X8.7157Y-7.5437
X7.5315Y-11.4457
X7.9315Y-11.4457
X12.0327Y-11.5146
X12.1311Y-11.5146
X8.2697Y-8.4606
X8.2697Y-8.8606
X11.0169Y-5.6469
X11.1154Y-5.6469
X12.6256Y-9.578
X12.6256Y-9.678
X12.6256Y-9.778
X12.6256Y-9.878
X12.6256Y-9.978
X12.6256Y-10.078
X12.6256Y-10.178
X12.6256Y-10.278
X12.9256Y-9.578
X12.9256Y-9.678
X12.9256Y-9.778
X12.9256Y-9.878
X12.9256Y-9.978
X12.9256Y-10.078
X12.9256Y-10.178
X12.9256Y-10.278
X8.7791Y-4.9866
X8.7791Y-5.3866
X4.0106Y-7.3565
X4.0106Y-7.4943
X9.124Y-9.678
X9.124Y-10.078
X11.3425Y-10.3321
X11.3425Y-10.4305
X12.6256Y-5.7189
X12.6256Y-5.8189
X12.6256Y-5.9189
X12.6256Y-6.0189
X12.9256Y-5.7189
X12.9256Y-5.8189
X12.9256Y-5.9189
X12.9256Y-6.0189
X15.7059Y-5.0276
X15.7059Y-5.4276
X7.9008Y-7.937
X7.9008Y-8.0354
X16.1783Y-5.922
X16.1783Y-6.322
X12.6256Y-8.5882
X12.6256Y-8.6882
X12.6256Y-8.7882
X12.6256Y-8.8882
X12.6256Y-8.9882
X12.6256Y-9.0882
X12.6256Y-9.1882
X12.9256Y-8.5882
X12.9256Y-8.6882
X12.9256Y-8.7882
X12.9256Y-8.8882
X12.9256Y-8.9882
X12.9256Y-9.0882
X12.9256Y-9.1882
X16.1079Y-9.7937
X16.2063Y-9.7937
X16.1079Y-12.1941
X16.2063Y-12.1941
X11.0835Y-7.6484
X11.0835Y-8.0484
X12.0327Y-8.3413
X12.1311Y-8.3413
X9.65Y-4.8854
X9.65Y-5.2854
X13.3709Y-6.1638
X13.5677Y-6.1638
X12.6256Y-11.6575
X12.6256Y-11.7575
X12.6256Y-11.8575
X12.6256Y-11.9575
X12.6256Y-12.0575
X12.6256Y-12.1575
X12.6256Y-12.2575
X12.6256Y-12.3575
X12.9256Y-11.6575
X12.9256Y-11.7575
X12.9256Y-11.8575
X12.9256Y-11.9575
X12.9256Y-12.0575
X12.9256Y-12.1575
X12.9256Y-12.2575
X12.9256Y-12.3575
X9.0555Y-11.6075
X9.0555Y-12.0075
X9.4783Y-9.678
X9.4783Y-10.078
X9.0528Y-5.9606
X9.0528Y-6.5606
X9.1528Y-5.9606
X9.1528Y-6.5606
X9.2528Y-5.9606
X9.2528Y-6.5606
X9.3528Y-5.9606
X9.3528Y-6.5606
X9.4528Y-5.9606
X9.4528Y-6.5606
X9.5528Y-5.9606
X9.5528Y-6.5606
X9.6528Y-5.9606
X9.6528Y-6.5606
X9.7528Y-5.9606
X9.7528Y-6.5606
X9.8528Y-5.9606
X9.8528Y-6.5606
X9.9528Y-5.9606
X9.9528Y-6.5606
X10.0528Y-5.9606
X10.0528Y-6.5606
X10.1528Y-5.9606
X10.1528Y-6.5606
X10.2528Y-5.9606
X10.2528Y-6.5606
X10.3528Y-5.9606
X10.3528Y-6.5606
X10.4528Y-5.9606
X10.4528Y-6.5606
X10.5528Y-5.9606
X10.5528Y-6.5606
X10.6528Y-5.9606
X10.6528Y-6.5606
X10.7528Y-5.9606
X10.7528Y-6.5606
X10.8528Y-5.9606
X10.8528Y-6.5606
X10.9528Y-5.9606
X10.9528Y-6.5606
X10.076Y-6.7016
X10.076Y-6.8
X9.9303Y-6.7016
X9.9303Y-7.1016
X4.6307Y-7.9372
X5.0307Y-7.9372
X6.6929Y-6.2992
X7.0929Y-6.2992
X4.2665Y-9.7236
X4.2665Y-9.822
X14.3673Y-6.3094
X14.3673Y-6.7094
X7.6449Y-7.9173
X7.6449Y-8.0551
X13.6091Y-7.3937
X13.7075Y-7.3937
X12.0327Y-8.4453
X12.1311Y-8.4453
X13.6091Y-11.5941
X13.7075Y-11.5941
X16.1079Y-7.9945
X16.2063Y-7.9945
X8.3063Y-4.9866
X8.3063Y-5.3866
X12.7264Y-8.3413
X12.8248Y-8.3413
X9.8862Y-4.8854
X9.8862Y-5.2854
X8.95Y-7.9315
X8.95Y-8.0315
X8.95Y-8.1315
X8.95Y-8.2315
X8.95Y-8.3315
X8.95Y-8.4315
X8.95Y-8.5315
X8.95Y-8.6315
X8.95Y-8.7315
X8.95Y-8.8315
X8.95Y-8.9315
X9.05Y-7.8315
X9.05Y-7.9315
X9.05Y-8.0315
X9.05Y-8.1315
X9.05Y-8.2315
X9.05Y-8.3315
X9.05Y-8.4315
X9.05Y-8.5315
X9.05Y-8.6315
X9.05Y-8.7315
X9.05Y-8.8315
X9.05Y-8.9315
X9.05Y-9.0315
X9.15Y-7.8315
X9.15Y-7.9315
X9.15Y-8.9315
X9.15Y-9.0315
X9.25Y-7.8315
X9.25Y-7.9315
X9.25Y-8.9315
X9.25Y-9.0315
X9.35Y-7.8315
X9.35Y-7.9315
X9.35Y-8.9315
X9.35Y-9.0315
X9.45Y-7.8315
X9.45Y-7.9315
X9.45Y-8.9315
X9.45Y-9.0315
X9.55Y-7.8315
X9.55Y-7.9315
X9.55Y-8.9315
X9.55Y-9.0315
X9.65Y-7.8315
X9.65Y-7.9315
X9.65Y-8.9315
X9.65Y-9.0315
X9.75Y-7.8315
X9.75Y-7.9315
X9.75Y-8.9315
X9.75Y-9.0315
X9.85Y-7.8315
X9.85Y-7.9315
X9.85Y-8.9315
X9.85Y-9.0315
X9.95Y-7.8315
X9.95Y-7.9315
X9.95Y-8.9315
X9.95Y-9.0315
X10.05Y-7.8315
X10.05Y-7.9315
X10.05Y-8.0315
X10.05Y-8.1315
X10.05Y-8.2315
X10.05Y-8.3315
X10.05Y-8.4315
X10.05Y-8.5315
X10.05Y-8.6315
X10.05Y-8.7315
X10.05Y-8.8315
X10.05Y-8.9315
X10.05Y-9.0315
X10.15Y-7.9315
X10.15Y-8.0315
X10.15Y-8.1315
X10.15Y-8.2315
X10.15Y-8.3315
X10.15Y-8.4315
X10.15Y-8.5315
X10.15Y-8.6315
X10.15Y-8.7315
X10.15Y-8.8315
X10.15Y-8.9315
X9.1602Y-12.2283
X9.5602Y-12.2283
X8.624Y-8.4606
X8.624Y-8.8606
X12.7264Y-5.576
X12.8248Y-5.576
X9.2217Y-6.7016
X9.2217Y-7.1016
X6.6937Y-8.3799
X7.0937Y-8.3799
X10.6976Y-11.2833
X11.0976Y-11.2833
X14.2138Y-5.0276
X14.2138Y-5.4276
X4.0106Y-9.5563
X4.0106Y-9.6941
X8.3717Y-11.1693
X8.3717Y-11.2677
X9.311Y-11.4028
X9.4094Y-11.4028
X13.6091Y-8.5933
X13.7075Y-8.5933
X12.3866Y-10.1858
X12.3866Y-10.5858
X14.5815Y-4.6055
X14.9815Y-4.6055
X8.3618Y-10.6677
X8.3618Y-11.0677
X8.9677Y-7.5051
X9.3677Y-7.5051
X11.2382Y-7.4984
X11.2382Y-7.5984
X11.2382Y-7.6984
X11.2382Y-7.7984
X11.2382Y-7.8984
X11.2382Y-7.9984
X11.2382Y-8.0984
X11.2382Y-8.1984
X11.5382Y-7.4984
X11.5382Y-7.5984
X11.5382Y-7.6984
X11.5382Y-7.7984
X11.5382Y-7.8984
X11.5382Y-7.9984
X11.5382Y-8.0984
X11.5382Y-8.1984
X9.576Y-6.7016
X9.576Y-7.1016
X10.3488Y-8.5315
X10.3488Y-8.6299
X9.2136Y-10.5138
X9.3136Y-10.5138
X9.4136Y-10.5138
X9.5136Y-10.5138
X8.6213Y-11.4106
X8.7197Y-11.4106
X13.3193Y-6.4087
X13.3193Y-6.5087
X13.3193Y-6.6087
X13.3193Y-6.7087
X13.3193Y-6.8087
X13.3193Y-6.9087
X13.3193Y-7.0087
X13.3193Y-7.1087
X13.6193Y-6.4087
X13.6193Y-6.5087
X13.6193Y-6.6087
X13.6193Y-6.7087
X13.6193Y-6.8087
X13.6193Y-6.9087
X13.6193Y-7.0087
X13.6193Y-7.1087
X15.2335Y-5.0276
X15.2335Y-5.4276
X12.7264Y-6.2559
X12.8248Y-6.2559
X16.2965Y-5.922
X16.2965Y-6.322
X9.7571Y-10.8677
X9.7571Y-11.2677
X11.339Y-11.5146
X11.4374Y-11.5146
X8.3878Y-8.4606
X8.3878Y-8.8606
X5.5866Y-9.5559
X5.5866Y-9.6937
X10.5976Y-9.2305
X10.5976Y-9.3305
X10.5976Y-9.4305
X10.5976Y-9.5305
X10.5976Y-9.6305
X10.5976Y-9.7305
X10.5976Y-9.8305
X10.5976Y-9.9305
X10.5976Y-10.0305
X10.5976Y-10.1305
X10.5976Y-10.2305
X10.5976Y-10.3305
X10.5976Y-10.4305
X10.5976Y-10.5305
X10.5976Y-10.6305
X10.5976Y-10.7305
X10.5976Y-10.8305
X10.5976Y-10.9305
X10.5976Y-11.0305
X10.5976Y-11.1305
X11.1976Y-9.2305
X11.1976Y-9.3305
X11.1976Y-9.4305
X11.1976Y-9.5305
X11.1976Y-9.6305
X11.1976Y-9.7305
X11.1976Y-9.8305
X11.1976Y-9.9305
X11.1976Y-10.0305
X11.1976Y-10.1305
X11.1976Y-10.2305
X11.1976Y-10.3305
X11.1976Y-10.4305
X11.1976Y-10.5305
X11.1976Y-10.6305
X11.1976Y-10.7305
X11.1976Y-10.8305
X11.1976Y-10.9305
X11.1976Y-11.0305
X11.1976Y-11.1305
X8.6606Y-4.9866
X8.6606Y-5.3866
X6.0701Y-7.9173
X6.0701Y-8.0551
X7.302Y-11.4457
X7.4004Y-11.4457
X12.6256Y-4.7291
X12.6256Y-4.8291
X12.6256Y-4.9291
X12.6256Y-5.0291
X12.6256Y-5.1291
X12.6256Y-5.2291
X12.6256Y-5.3291
X12.9256Y-4.7291
X12.9256Y-4.8291
X12.9256Y-4.9291
X12.9256Y-5.0291
X12.9256Y-5.1291
X12.9256Y-5.2291
X12.9256Y-5.3291
X15.5878Y-5.0276
X15.5878Y-5.4276
X5.8413Y-5.1795
X5.8413Y-5.278
T5
X9.8988Y-5.7669
X10.0988Y-5.7669
X14.7004Y-5.3752
X14.9004Y-5.3752
T6
X15.6678Y-12.5632
X15.7678Y-12.5632
T7
X9.6913Y-4.6232
X9.6913Y-4.7217
X9.774Y-4.6232
X9.8764Y-4.6232
X9.9591Y-4.6232
X9.9591Y-4.7217
T8
X15.44Y-4.35
X15.6171Y-4.35
X13.9439Y-4.35
X14.1211Y-4.35
X14.8831Y-6.5559
X14.8831Y-6.7331
X15.139Y-6.5559
X15.139Y-6.7331
X16.552Y-6.0325
X16.552Y-6.2096
X10.0413Y-6.9701
X10.0413Y-7.1472
X10.2972Y-6.9701
X10.2972Y-7.1472
X14.6919Y-4.35
X14.8691Y-4.35
X16.552Y-5.2844
X16.552Y-5.4616
T9
X15.8988Y-7.1685
X15.8988Y-7.2685
X11.7787Y-8.5858
X11.7787Y-8.6858
X11.7787Y-8.7858
X8.1634Y-11.8291
X8.1634Y-11.9291
X6.323Y-11.8287
X6.323Y-11.9287
X9.1921Y-5.7071
X9.1921Y-5.8071
X8.5177Y-5.9209
X8.6177Y-5.9209
X8.7177Y-5.9209
X8.8177Y-5.9209
X4.8457Y-11.8287
X4.8457Y-11.9287
X6.0815Y-10.1803
X6.0815Y-10.2803
X6.1815Y-10.1803
X6.1815Y-10.2803
X6.2815Y-10.1803
X6.2815Y-10.2803
X6.3815Y-10.1803
X6.3815Y-10.2803
X6.4815Y-10.1803
X6.4815Y-10.2803
X6.5815Y-10.1803
X6.5815Y-10.2803
X6.6815Y-10.1803
X6.6815Y-10.2803
X6.7815Y-10.1803
X6.7815Y-10.2803
X6.8815Y-10.1803
X6.8815Y-10.2803
X6.9815Y-10.1803
X6.9815Y-10.2803
X6.1346Y-10.6701
X6.1346Y-10.7701
X6.1346Y-10.8701
X6.1346Y-10.9701
X6.1346Y-11.0701
X6.1346Y-11.1701
X6.1346Y-11.2701
X6.1346Y-11.3701
X6.2346Y-10.6701
X6.2346Y-10.7701
X6.2346Y-10.8701
X6.2346Y-10.9701
X6.2346Y-11.0701
X6.2346Y-11.1701
X6.2346Y-11.2701
X6.2346Y-11.3701
X4.9874Y-11.8287
X4.9874Y-11.9287
X15.7571Y-7.1685
X15.7571Y-7.2685
X9.4819Y-7.5248
X9.4819Y-7.6248
X8.1441Y-12.1894
X8.2441Y-12.1894
X11.3508Y-10.0285
X11.3508Y-10.1285
X10.0083Y-7.6248
X10.1083Y-7.6248
X10.2083Y-7.6248
X9.0504Y-5.7075
X9.0504Y-5.8075
X6.2535Y-4.8647
X6.4535Y-4.8647
X6.6065Y-11.8287
X6.6065Y-11.9287
X14.7098Y-7.1685
X14.7098Y-7.2685
X7.2Y-12.1894
X7.3Y-12.1894
X15.0555Y-6.3217
X15.1555Y-6.3217
X15.2555Y-6.3217
X15.3555Y-6.3217
X15.4555Y-6.3217
X15.5555Y-6.3217
X15.6555Y-6.3217
X15.7555Y-6.3217
X15.8555Y-6.3217
X9.624Y-7.6248
X9.724Y-7.6248
X9.824Y-7.6248
X7.3Y-11.8287
X7.3Y-11.9287
X13.0787Y-9.676
X13.0787Y-9.776
X11.6079Y-9.5858
X11.6079Y-9.6858
X11.6079Y-9.7858
X11.6079Y-9.8858
X11.6079Y-9.9858
X11.6079Y-10.0858
X11.6079Y-10.1858
X11.6079Y-10.2858
X11.6079Y-10.3858
X11.6079Y-10.4858
X11.6079Y-10.5858
X11.6079Y-10.6858
X11.6079Y-10.7858
X11.6079Y-10.8858
X12.2079Y-9.5858
X12.2079Y-9.6858
X12.2079Y-9.7858
X12.2079Y-9.8858
X12.2079Y-9.9858
X12.2079Y-10.0858
X12.2079Y-10.1858
X12.2079Y-10.2858
X12.2079Y-10.3858
X12.2079Y-10.4858
X12.2079Y-10.5858
X12.2079Y-10.6858
X12.2079Y-10.7858
X12.2079Y-10.8858
X6.4648Y-11.8287
X6.4648Y-11.9287
X9.3339Y-5.7075
X9.3339Y-5.8075
X13.9272Y-5.1154
X13.9272Y-5.2154
X13.9272Y-5.3154
X13.9272Y-5.4154
X8.5661Y-12.1894
X8.6661Y-12.1894
X10.3602Y-11.6508
X10.3602Y-11.7508
X5.1291Y-11.8287
X5.1291Y-11.9287
T10
X13.7075Y-9.4
X13.7083Y-9.5894
X13.8075Y-9.4
X13.8083Y-9.5894
X13.9075Y-9.4
X13.9083Y-9.5894
X14.0075Y-9.4
X14.0083Y-9.5894
X14.1075Y-9.4
X14.1083Y-9.5894
X14.2075Y-9.4
X14.2083Y-9.5894
X14.3075Y-9.4
X14.3083Y-9.5894
X14.4075Y-9.4
X14.4083Y-9.5894
X14.5075Y-9.4
X14.5083Y-9.5894
X14.6075Y-9.4
X14.6083Y-9.5894
X14.7075Y-9.4
X14.7083Y-9.5894
X14.8075Y-9.4
X14.8083Y-9.5894
X14.9075Y-9.4
X14.9083Y-9.5894
X15.0075Y-9.4
X15.0083Y-9.5894
X15.1075Y-9.4
X15.1083Y-9.5894
X15.2075Y-9.4
X15.2083Y-9.5894
X15.3075Y-9.4
X15.3083Y-9.5894
X15.4075Y-9.4
X15.4083Y-9.5894
X15.5075Y-9.4
X15.5083Y-9.5894
X15.6075Y-9.4
X15.6083Y-9.5894
X15.7075Y-9.4
X15.7083Y-9.5894
X15.8083Y-9.3984
X15.8083Y-9.5894
X15.9083Y-9.3984
X15.9083Y-9.5894
X16.0083Y-9.3984
X16.0083Y-9.5894
X16.1083Y-9.3984
X16.1083Y-9.5894
X13.7075Y-10.6
X13.7083Y-10.7894
X13.8075Y-10.6
X13.8083Y-10.7894
X13.9075Y-10.6
X13.9083Y-10.7894
X14.0075Y-10.6
X14.0083Y-10.7894
X14.1075Y-10.6
X14.1083Y-10.7894
X14.2075Y-10.6
X14.2083Y-10.7894
X14.3075Y-10.6
X14.3083Y-10.7894
X14.4075Y-10.6
X14.4083Y-10.7894
X14.5075Y-10.6
X14.5083Y-10.7894
X14.6075Y-10.6
X14.6083Y-10.7894
X14.7075Y-10.6
X14.7083Y-10.7894
X14.8075Y-10.6
X14.8083Y-10.7894
X14.9075Y-10.6
X14.9083Y-10.7894
X15.0075Y-10.6
X15.0083Y-10.7894
X15.1075Y-10.6
X15.1083Y-10.7894
X15.2075Y-10.6
X15.2083Y-10.7894
X15.3075Y-10.6
X15.3083Y-10.7894
X15.4075Y-10.6
X15.4083Y-10.7894
X15.5075Y-10.6
X15.5083Y-10.7894
X15.6075Y-10.6
X15.6083Y-10.7894
X15.7075Y-10.6
X15.7083Y-10.7894
X15.8083Y-10.5984
X15.8083Y-10.7894
X15.9083Y-10.5984
X15.9083Y-10.7894
X16.0083Y-10.5984
X16.0083Y-10.7894
X16.1083Y-10.5984
X16.1083Y-10.7894
X13.7075Y-11.8
X13.7083Y-11.9894
X13.8075Y-11.8
X13.8083Y-11.9894
X13.9075Y-11.8
X13.9083Y-11.9894
X14.0075Y-11.8
X14.0083Y-11.9894
X14.1075Y-11.8
X14.1083Y-11.9894
X14.2075Y-11.8
X14.2083Y-11.9894
X14.3075Y-11.8
X14.3083Y-11.9894
X14.4075Y-11.8
X14.4083Y-11.9894
X14.5075Y-11.8
X14.5083Y-11.9894
X14.6075Y-11.8
X14.6083Y-11.9894
X14.7075Y-11.8
X14.7083Y-11.9894
X14.8075Y-11.8
X14.8083Y-11.9894
X14.9075Y-11.8
X14.9083Y-11.9894
X15.0075Y-11.8
X15.0083Y-11.9894
X15.1075Y-11.8
X15.1083Y-11.9894
X15.2075Y-11.8
X15.2083Y-11.9894
X15.3075Y-11.8
X15.3083Y-11.9894
X15.4075Y-11.8
X15.4083Y-11.9894
X15.5075Y-11.8
X15.5083Y-11.9894
X15.6075Y-11.8
X15.6083Y-11.9894
X15.7075Y-11.8
X15.7083Y-11.9894
X15.8083Y-11.7984
X15.8083Y-11.9894
X15.9083Y-11.7984
X15.9083Y-11.9894
X16.0083Y-11.7984
X16.0083Y-11.9894
X16.1083Y-11.7984
X16.1083Y-11.9894
X13.7075Y-7.6
X13.7083Y-7.7894
X13.8075Y-7.6
X13.8083Y-7.7894
X13.9075Y-7.6
X13.9083Y-7.7894
X14.0075Y-7.6
X14.0083Y-7.7894
X14.1075Y-7.6
X14.1083Y-7.7894
X14.2075Y-7.6
X14.2083Y-7.7894
X14.3075Y-7.6
X14.3083Y-7.7894
X14.4075Y-7.6
X14.4083Y-7.7894
X14.5075Y-7.6
X14.5083Y-7.7894
X14.6075Y-7.6
X14.6083Y-7.7894
X14.7075Y-7.6
X14.7083Y-7.7894
X14.8075Y-7.6
X14.8083Y-7.7894
X14.9075Y-7.6
X14.9083Y-7.7894
X15.0075Y-7.6
X15.0083Y-7.7894
X15.1075Y-7.6
X15.1083Y-7.7894
X15.2075Y-7.6
X15.2083Y-7.7894
X15.3075Y-7.6
X15.3083Y-7.7894
X15.4075Y-7.6
X15.4083Y-7.7894
X15.5075Y-7.6
X15.5083Y-7.7894
X15.6075Y-7.6
X15.6083Y-7.7894
X15.7075Y-7.6
X15.7083Y-7.7894
X15.8083Y-7.5984
X15.8083Y-7.7894
X15.9083Y-7.5984
X15.9083Y-7.7894
X16.0083Y-7.5984
X16.0083Y-7.7894
X16.1083Y-7.5984
X16.1083Y-7.7894
X13.7075Y-8.8
X13.7083Y-8.9894
X13.8075Y-8.8
X13.8083Y-8.9894
X13.9075Y-8.8
X13.9083Y-8.9894
X14.0075Y-8.8
X14.0083Y-8.9894
X14.1075Y-8.8
X14.1083Y-8.9894
X14.2075Y-8.8
X14.2083Y-8.9894
X14.3075Y-8.8
X14.3083Y-8.9894
X14.4075Y-8.8
X14.4083Y-8.9894
X14.5075Y-8.8
X14.5083Y-8.9894
X14.6075Y-8.8
X14.6083Y-8.9894
X14.7075Y-8.8
X14.7083Y-8.9894
X14.8075Y-8.8
X14.8083Y-8.9894
X14.9075Y-8.8
X14.9083Y-8.9894
X15.0075Y-8.8
X15.0083Y-8.9894
X15.1075Y-8.8
X15.1083Y-8.9894
X15.2075Y-8.8
X15.2083Y-8.9894
X15.3075Y-8.8
X15.3083Y-8.9894
X15.4075Y-8.8
X15.4083Y-8.9894
X15.5075Y-8.8
X15.5083Y-8.9894
X15.6075Y-8.8
X15.6083Y-8.9894
X15.7075Y-8.8
X15.7083Y-8.9894
X15.8083Y-8.7984
X15.8083Y-8.9894
X15.9083Y-8.7984
X15.9083Y-8.9894
X16.0083Y-8.7984
X16.0083Y-8.9894
X16.1083Y-8.7984
X16.1083Y-8.9894
X13.7075Y-10.0
X13.7083Y-10.1894
X13.8075Y-10.0
X13.8083Y-10.1894
X13.9075Y-10.0
X13.9083Y-10.1894
X14.0075Y-10.0
X14.0083Y-10.1894
X14.1075Y-10.0
X14.1083Y-10.1894
X14.2075Y-10.0
X14.2083Y-10.1894
X14.3075Y-10.0
X14.3083Y-10.1894
X14.4075Y-10.0
X14.4083Y-10.1894
X14.5075Y-10.0
X14.5083Y-10.1894
X14.6075Y-10.0
X14.6083Y-10.1894
X14.7075Y-10.0
X14.7083Y-10.1894
X14.8075Y-10.0
X14.8083Y-10.1894
X14.9075Y-10.0
X14.9083Y-10.1894
X15.0075Y-10.0
X15.0083Y-10.1894
X15.1075Y-10.0
X15.1083Y-10.1894
X15.2075Y-10.0
X15.2083Y-10.1894
X15.3075Y-10.0
X15.3083Y-10.1894
X15.4075Y-10.0
X15.4083Y-10.1894
X15.5075Y-10.0
X15.5083Y-10.1894
X15.6075Y-10.0
X15.6083Y-10.1894
X15.7075Y-10.0
X15.7083Y-10.1894
X15.8083Y-9.9984
X15.8083Y-10.1894
X15.9083Y-9.9984
X15.9083Y-10.1894
X16.0083Y-9.9984
X16.0083Y-10.1894
X16.1083Y-9.9984
X16.1083Y-10.1894
X13.7075Y-11.2
X13.7083Y-11.3894
X13.8075Y-11.2
X13.8083Y-11.3894
X13.9075Y-11.2
X13.9083Y-11.3894
X14.0075Y-11.2
X14.0083Y-11.3894
X14.1075Y-11.2
X14.1083Y-11.3894
X14.2075Y-11.2
X14.2083Y-11.3894
X14.3075Y-11.2
X14.3083Y-11.3894
X14.4075Y-11.2
X14.4083Y-11.3894
X14.5075Y-11.2
X14.5083Y-11.3894
X14.6075Y-11.2
X14.6083Y-11.3894
X14.7075Y-11.2
X14.7083Y-11.3894
X14.8075Y-11.2
X14.8083Y-11.3894
X14.9075Y-11.2
X14.9083Y-11.3894
X15.0075Y-11.2
X15.0083Y-11.3894
X15.1075Y-11.2
X15.1083Y-11.3894
X15.2075Y-11.2
X15.2083Y-11.3894
X15.3075Y-11.2
X15.3083Y-11.3894
X15.4075Y-11.2
X15.4083Y-11.3894
X15.5075Y-11.2
X15.5083Y-11.3894
X15.6075Y-11.2
X15.6083Y-11.3894
X15.7075Y-11.2
X15.7083Y-11.3894
X15.8083Y-11.1984
X15.8083Y-11.3894
X15.9083Y-11.1984
X15.9083Y-11.3894
X16.0083Y-11.1984
X16.0083Y-11.3894
X16.1083Y-11.1984
X16.1083Y-11.3894
X13.7075Y-8.2
X13.7083Y-8.3894
X13.8075Y-8.2
X13.8083Y-8.3894
X13.9075Y-8.2
X13.9083Y-8.3894
X14.0075Y-8.2
X14.0083Y-8.3894
X14.1075Y-8.2
X14.1083Y-8.3894
X14.2075Y-8.2
X14.2083Y-8.3894
X14.3075Y-8.2
X14.3083Y-8.3894
X14.4075Y-8.2
X14.4083Y-8.3894
X14.5075Y-8.2
X14.5083Y-8.3894
X14.6075Y-8.2
X14.6083Y-8.3894
X14.7075Y-8.2
X14.7083Y-8.3894
X14.8075Y-8.2
X14.8083Y-8.3894
X14.9075Y-8.2
X14.9083Y-8.3894
X15.0075Y-8.2
X15.0083Y-8.3894
X15.1075Y-8.2
X15.1083Y-8.3894
X15.2075Y-8.2
X15.2083Y-8.3894
X15.3075Y-8.2
X15.3083Y-8.3894
X15.4075Y-8.2
X15.4083Y-8.3894
X15.5075Y-8.2
X15.5083Y-8.3894
X15.6075Y-8.2
X15.6083Y-8.3894
X15.7075Y-8.2
X15.7083Y-8.3894
X15.8083Y-8.1984
X15.8083Y-8.3894
X15.9083Y-8.1984
X15.9083Y-8.3894
X16.0083Y-8.1984
X16.0083Y-8.3894
X16.1083Y-8.1984
X16.1083Y-8.3894
T11
X8.3051Y-12.3516
X8.4051Y-12.3516
X8.5051Y-12.3516
X4.6047Y-12.0882
X4.6047Y-12.3543
X4.6593Y-12.2
X4.6593Y-12.4661
X4.7138Y-12.0882
X4.7138Y-12.3543
X4.7683Y-12.2
X4.7683Y-12.4661
X4.8228Y-12.0882
X4.8228Y-12.3543
X4.8774Y-12.2
X4.8774Y-12.4661
X4.9319Y-12.0882
X4.9319Y-12.3543
X4.9864Y-12.2
X4.9864Y-12.4661
X5.0409Y-12.0882
X5.0409Y-12.3543
X5.0955Y-12.2
X5.0955Y-12.4661
X5.15Y-12.0882
X5.15Y-12.3543
X5.2045Y-12.2
X5.2045Y-12.4661
X5.2591Y-12.0882
X5.2591Y-12.3543
X5.3136Y-12.2
X5.3136Y-12.4661
X5.3681Y-12.0882
X5.3681Y-12.3543
X6.2469Y-12.0882
X6.2469Y-12.3543
X6.3014Y-12.2
X6.3014Y-12.4661
X6.3559Y-12.0882
X6.3559Y-12.3543
X6.4104Y-12.2
X6.4104Y-12.4661
X6.465Y-12.0882
X6.465Y-12.3543
X6.5195Y-12.2
X6.5195Y-12.4661
X6.574Y-12.0882
X6.574Y-12.3543
X6.6285Y-12.2
X6.6285Y-12.4661
X6.6831Y-12.0882
X6.6831Y-12.3543
T12
X8.328Y-4.7398
X8.3728Y-4.6398
X8.3728Y-4.8398
X8.4177Y-4.7398
X8.4626Y-4.6398
X8.4626Y-4.8398
X8.5075Y-4.7398
X8.5524Y-4.6398
X8.5524Y-4.8398
X8.5972Y-4.7398
X8.6421Y-4.6398
X8.6421Y-4.8398
X8.687Y-4.7398
X8.7319Y-4.6398
X8.7319Y-4.8398
T13
X4.424Y-5.4224
X4.4909Y-5.4224
X4.5579Y-5.4224
X4.6248Y-5.4224
X4.6917Y-5.4224
X6.4835Y-5.9835
X6.5504Y-5.9835
X6.6173Y-5.9835
X6.6843Y-5.9835
X6.7512Y-5.9835
X4.424Y-7.6222
X4.4909Y-7.6222
X4.5579Y-7.6222
X4.6248Y-7.6222
X4.6917Y-7.6222
X5.0925Y-5.1272
X5.0925Y-5.324
X5.0933Y-7.327
X5.0933Y-7.5238
X7.1528Y-5.6882
X7.1528Y-5.885
X6.4835Y-8.1831
X6.5504Y-8.1831
X6.6173Y-8.1831
X6.6843Y-8.1831
X6.7512Y-8.1831
X5.0941Y-9.5276
X5.0941Y-9.7244
X4.424Y-9.822
X4.4909Y-9.822
X4.5579Y-9.822
X4.6248Y-9.822
X4.6917Y-9.822
X7.1528Y-7.8878
X7.1528Y-8.0846
X7.5819Y-11.8795
X7.8811Y-11.8795
T14
X14.6425Y-4.448
X14.9185Y-4.448
X16.4539Y-5.235
X16.4539Y-5.511
X15.3906Y-4.448
X15.6665Y-4.448
X13.8945Y-4.448
X14.1705Y-4.448
X16.4539Y-5.9831
X16.4539Y-6.2591
T15
X7.5366Y-12.4146
X7.635Y-12.4146
X7.7335Y-12.6114
X7.8319Y-12.4146
X7.9303Y-12.4146
X9.1831Y-12.4146
X9.2815Y-12.4146
X9.3799Y-12.6114
X9.4783Y-12.4146
X9.5768Y-12.4146
X9.7941Y-12.4146
X9.8925Y-12.4146
X9.9909Y-12.6114
X10.0894Y-12.4146
X10.1878Y-12.4146
T16
X5.9213Y-8.4409
X6.5213Y-8.4409
X3.8646Y-10.078
X4.4646Y-10.078
X3.8661Y-5.6783
X4.4661Y-5.6783
X5.9213Y-6.2362
X6.5213Y-6.2362
X3.8661Y-7.8781
X4.4661Y-7.8781
T17
X6.6305Y-4.4173
X6.7055Y-4.7925
X6.8906Y-4.7925
X7.0756Y-4.7925
X7.1506Y-4.4173
T18
X9.5594Y-4.5051
X9.8252Y-4.4736
X10.0909Y-4.5051
T19
X5.6906Y-4.7471
X5.8756Y-4.629
T20
X8.0504Y-4.7398
X9.0343Y-4.7398
X4.3309Y-12.15
X4.3309Y-12.465
X5.6427Y-12.15
X5.6427Y-12.465
X5.973Y-12.15
X5.973Y-12.465
X6.9569Y-12.15
X6.9569Y-12.465
T21
X5.8756Y-4.8652
T22
X3.9126Y-12.4874
X16.3094Y-12.4874
X3.8835Y-4.5906
X16.3094Y-4.5906
T23
X7.5366Y-12.6114
X7.5366Y-12.7098
X7.7335Y-12.4146
X7.9303Y-12.6114
X7.9303Y-12.7098
X9.1831Y-12.6114
X9.1831Y-12.7098
X9.3799Y-12.4146
X9.5768Y-12.6114
X9.5768Y-12.7098
X9.7941Y-12.6114
X9.7941Y-12.7098
X9.9909Y-12.4146
X10.1878Y-12.6114
X10.1878Y-12.7098
T24
X10.6459Y-5.4028
X11.5278Y-5.4028
T25
X13.3709Y-11.2939
X16.4457Y-11.2939
X13.3709Y-8.2939
X16.4457Y-8.2939
X13.3709Y-9.4939
X16.4457Y-9.4939
X13.3709Y-10.6939
X16.4457Y-10.6939
X13.3709Y-11.8939
X16.4457Y-11.8939
X13.3709Y-7.6939
X16.4457Y-7.6939
X13.3709Y-8.8939
X16.4457Y-8.8939
X13.3709Y-10.0939
X16.4457Y-10.0939
T26
X4.5579Y-9.1661
X6.6173Y-5.3276
X4.5579Y-6.9663
X6.6173Y-7.5272
X4.5579Y-4.7665
T0
M30
