G04 #@! TF.GenerationSoftware,KiCad,Pcbnew,(5.1.2)-1*
G04 #@! TF.CreationDate,2019-08-06T08:45:36-07:00*
G04 #@! TF.ProjectId,retroii,72657472-6f69-4692-9e6b-696361645f70,rev?*
G04 #@! TF.SameCoordinates,Original*
G04 #@! TF.FileFunction,Legend,Bot*
G04 #@! TF.FilePolarity,Positive*
%FSLAX46Y46*%
G04 Gerber Fmt 4.6, Leading zero omitted, Abs format (unit mm)*
G04 Created by KiCad (PCBNEW (5.1.2)-1) date 2019-08-06 08:45:36*
%MOMM*%
%LPD*%
G04 APERTURE LIST*
%ADD10R,2.502000X1.702000*%
%ADD11O,2.502000X1.702000*%
%ADD12C,1.702000*%
%ADD13R,1.702000X1.702000*%
%ADD14R,2.502000X2.502000*%
%ADD15C,2.502000*%
%ADD16C,1.402000*%
%ADD17O,1.702000X1.702000*%
%ADD18O,3.302000X3.302000*%
%ADD19R,3.302000X3.302000*%
%ADD20C,4.102000*%
%ADD21C,2.002000*%
%ADD22C,1.302000*%
%ADD23C,2.302000*%
%ADD24O,1.802000X1.802000*%
%ADD25R,1.802000X1.802000*%
%ADD26C,4.602000*%
%ADD27C,3.352000*%
%ADD28O,1.829200X2.134000*%
%ADD29R,1.829200X2.134000*%
%ADD30C,3.602000*%
%ADD31O,1.902000X2.202000*%
%ADD32O,1.602000X1.152000*%
%ADD33R,1.602000X1.152000*%
%ADD34R,1.152000X1.602000*%
%ADD35O,1.152000X1.602000*%
%ADD36C,1.826000*%
%ADD37C,2.902000*%
%ADD38C,2.102000*%
%ADD39C,1.802000*%
%ADD40R,1.702000X2.502000*%
%ADD41O,1.702000X2.502000*%
%ADD42R,2.402000X1.702000*%
%ADD43O,2.402000X1.702000*%
%ADD44C,1.656000*%
%ADD45O,3.602000X3.602000*%
%ADD46R,1.552000X2.102000*%
%ADD47O,1.552000X2.102000*%
%ADD48C,2.100980*%
%ADD49R,1.626000X1.626000*%
%ADD50C,1.626000*%
%ADD51C,5.102000*%
%ADD52C,8.702000*%
%ADD53C,1.002000*%
%ADD54C,1.926000*%
G04 APERTURE END LIST*
%LPC*%
D10*
X338310000Y-162780000D03*
D11*
X345930000Y-180560000D03*
X338310000Y-165320000D03*
X345930000Y-178020000D03*
X338310000Y-167860000D03*
X345930000Y-175480000D03*
X338310000Y-170400000D03*
X345930000Y-172940000D03*
X338310000Y-172940000D03*
X345930000Y-170400000D03*
X338310000Y-175480000D03*
X345930000Y-167860000D03*
X338310000Y-178020000D03*
X345930000Y-165320000D03*
X338310000Y-180560000D03*
X345930000Y-162780000D03*
D12*
X218900000Y-264690000D03*
X221400000Y-264690000D03*
D10*
X303070000Y-162780000D03*
D11*
X310690000Y-180560000D03*
X303070000Y-165320000D03*
X310690000Y-178020000D03*
X303070000Y-167860000D03*
X310690000Y-175480000D03*
X303070000Y-170400000D03*
X310690000Y-172940000D03*
X303070000Y-172940000D03*
X310690000Y-170400000D03*
X303070000Y-175480000D03*
X310690000Y-167860000D03*
X303070000Y-178020000D03*
X310690000Y-165320000D03*
X303070000Y-180560000D03*
X310690000Y-162780000D03*
D10*
X328310000Y-135360000D03*
D11*
X320690000Y-120120000D03*
X328310000Y-132820000D03*
X320690000Y-122660000D03*
X328310000Y-130280000D03*
X320690000Y-125200000D03*
X328310000Y-127740000D03*
X320690000Y-127740000D03*
X328310000Y-125200000D03*
X320690000Y-130280000D03*
X328310000Y-122660000D03*
X320690000Y-132820000D03*
X328310000Y-120120000D03*
X320690000Y-135360000D03*
X328310000Y-145260000D03*
X320690000Y-152880000D03*
X328310000Y-147800000D03*
X320690000Y-150340000D03*
X328310000Y-150340000D03*
X320690000Y-147800000D03*
X328310000Y-152880000D03*
D10*
X320690000Y-145260000D03*
X320690000Y-162780000D03*
D11*
X328310000Y-180560000D03*
X320690000Y-165320000D03*
X328310000Y-178020000D03*
X320690000Y-167860000D03*
X328310000Y-175480000D03*
X320690000Y-170400000D03*
X328310000Y-172940000D03*
X320690000Y-172940000D03*
X328310000Y-170400000D03*
X320690000Y-175480000D03*
X328310000Y-167860000D03*
X320690000Y-178020000D03*
X328310000Y-165320000D03*
X320690000Y-180560000D03*
X328310000Y-162780000D03*
X338310000Y-135360000D03*
X345930000Y-120120000D03*
X338310000Y-132820000D03*
X345930000Y-122660000D03*
X338310000Y-130280000D03*
X345930000Y-125200000D03*
X338310000Y-127740000D03*
X345930000Y-127740000D03*
X338310000Y-125200000D03*
X345930000Y-130280000D03*
X338310000Y-122660000D03*
X345930000Y-132820000D03*
X338310000Y-120120000D03*
D10*
X345930000Y-135360000D03*
D11*
X251560000Y-286200000D03*
X259180000Y-270960000D03*
X251560000Y-283660000D03*
X259180000Y-273500000D03*
X251560000Y-281120000D03*
X259180000Y-276040000D03*
X251560000Y-278580000D03*
X259180000Y-278580000D03*
X251560000Y-276040000D03*
X259180000Y-281120000D03*
X251560000Y-273500000D03*
X259180000Y-283660000D03*
X251560000Y-270960000D03*
D10*
X259180000Y-286200000D03*
D12*
X255930000Y-170220000D03*
X255930000Y-172720000D03*
X246500000Y-145300000D03*
X246500000Y-147800000D03*
X222630000Y-166710000D03*
X217630000Y-166710000D03*
X325750000Y-141630000D03*
X323250000Y-141630000D03*
X210090000Y-283700000D03*
X210090000Y-286200000D03*
X227670000Y-258560000D03*
X227670000Y-261060000D03*
X212590000Y-261060000D03*
X212590000Y-258560000D03*
X227670000Y-283700000D03*
X227670000Y-286200000D03*
X221480000Y-289830000D03*
X218980000Y-289830000D03*
X251120000Y-310730000D03*
X248620000Y-310730000D03*
D10*
X310690000Y-135360000D03*
D11*
X303070000Y-120120000D03*
X310690000Y-132820000D03*
X303070000Y-122660000D03*
X310690000Y-130280000D03*
X303070000Y-125200000D03*
X310690000Y-127740000D03*
X303070000Y-127740000D03*
X310690000Y-125200000D03*
X303070000Y-130280000D03*
X310690000Y-122660000D03*
X303070000Y-132820000D03*
X310690000Y-120120000D03*
X303070000Y-135360000D03*
D12*
X187970000Y-290720000D03*
X185470000Y-290720000D03*
X288100000Y-262435000D03*
X288100000Y-264935000D03*
X270780000Y-307090000D03*
X273280000Y-307090000D03*
X314370000Y-245980000D03*
X314370000Y-243480000D03*
X262860000Y-211580000D03*
X262860000Y-209080000D03*
X262860000Y-216700000D03*
X262860000Y-219200000D03*
X245070000Y-234440000D03*
X242570000Y-234440000D03*
X101870000Y-130980000D03*
D13*
X101870000Y-134480000D03*
D12*
X154180000Y-201100000D03*
D13*
X154180000Y-204600000D03*
X101870000Y-190355000D03*
D12*
X101870000Y-186855000D03*
D14*
X129350000Y-130230000D03*
D15*
X129350000Y-135230000D03*
X181680000Y-200350000D03*
D14*
X181680000Y-205350000D03*
D15*
X129370000Y-186105000D03*
D14*
X129370000Y-191105000D03*
D13*
X141870000Y-130960000D03*
D12*
X141870000Y-134460000D03*
D13*
X194180000Y-204600000D03*
D12*
X194180000Y-201100000D03*
X141870000Y-186855000D03*
D13*
X141870000Y-190355000D03*
X154180000Y-148730000D03*
D12*
X154180000Y-145230000D03*
D13*
X101870000Y-246230000D03*
D12*
X101870000Y-242730000D03*
D14*
X181680000Y-149480000D03*
D15*
X181680000Y-144480000D03*
D14*
X129390000Y-242000000D03*
D15*
X129390000Y-247000000D03*
D12*
X194180000Y-145230000D03*
D13*
X194180000Y-148730000D03*
D12*
X141900000Y-246220000D03*
D13*
X141900000Y-242720000D03*
D12*
X279830000Y-143430000D03*
X282330000Y-143430000D03*
X378030000Y-162720000D03*
X378030000Y-160220000D03*
X368130000Y-137800000D03*
X368130000Y-135300000D03*
X339620000Y-156560000D03*
X344620000Y-156560000D03*
X247880000Y-273460000D03*
X247880000Y-270960000D03*
X308130000Y-214510000D03*
X305630000Y-214510000D03*
X323250000Y-214510000D03*
X325750000Y-214510000D03*
X254120000Y-289830000D03*
X256620000Y-289830000D03*
X239000000Y-289630000D03*
X236500000Y-289630000D03*
X256620000Y-264690000D03*
X254120000Y-264690000D03*
X343370000Y-139010000D03*
X340870000Y-139010000D03*
X325750000Y-158900000D03*
X323250000Y-158900000D03*
X340870000Y-159350000D03*
X343370000Y-159350000D03*
X288010000Y-292470000D03*
X290510000Y-292470000D03*
X308130000Y-292470000D03*
X305630000Y-292470000D03*
X323250000Y-267330000D03*
X325750000Y-267330000D03*
X325750000Y-264690000D03*
X323250000Y-264690000D03*
X305630000Y-211870000D03*
X308130000Y-211870000D03*
X325750000Y-292470000D03*
X323250000Y-292470000D03*
X288010000Y-211870000D03*
X290510000Y-211870000D03*
X325750000Y-211870000D03*
X323250000Y-211870000D03*
X221380000Y-191610000D03*
X218880000Y-191610000D03*
X308135000Y-139000000D03*
X305635000Y-139000000D03*
X323250000Y-139010000D03*
X325750000Y-139010000D03*
X409140000Y-309730000D03*
X411640000Y-309730000D03*
X411640000Y-279250000D03*
X409140000Y-279250000D03*
X409140000Y-263990000D03*
X411640000Y-263990000D03*
X411640000Y-203060000D03*
X409140000Y-203060000D03*
X409140000Y-218290000D03*
X411640000Y-218290000D03*
X411640000Y-233530000D03*
X409140000Y-233530000D03*
X409140000Y-248760000D03*
X411640000Y-248760000D03*
X411640000Y-294490000D03*
X409140000Y-294490000D03*
X348170000Y-233530000D03*
X345670000Y-233530000D03*
X345670000Y-294490000D03*
X348170000Y-294490000D03*
X348170000Y-203050000D03*
X345670000Y-203050000D03*
X345670000Y-248760000D03*
X348170000Y-248760000D03*
X348170000Y-218270000D03*
X345670000Y-218270000D03*
X345670000Y-279230000D03*
X348170000Y-279230000D03*
X345670000Y-264000000D03*
X348170000Y-264000000D03*
X348170000Y-187800000D03*
X345670000Y-187800000D03*
X247880000Y-258560000D03*
X247880000Y-261060000D03*
X230260000Y-283700000D03*
X230260000Y-286200000D03*
X212640000Y-283700000D03*
X212640000Y-286200000D03*
X230220000Y-258560000D03*
X230220000Y-261060000D03*
X210040000Y-261060000D03*
X210040000Y-258560000D03*
D16*
X292805000Y-137230000D03*
X270405000Y-137230000D03*
D13*
X245040000Y-284930000D03*
D17*
X245040000Y-277310000D03*
D18*
X113440000Y-144230000D03*
D19*
X98200000Y-144230000D03*
X150400000Y-214400000D03*
D18*
X165640000Y-214400000D03*
D19*
X98200000Y-200105000D03*
D18*
X113440000Y-200105000D03*
X165640000Y-158400000D03*
D19*
X150400000Y-158400000D03*
X98160000Y-255980000D03*
D18*
X113400000Y-255980000D03*
D11*
X328310000Y-296100000D03*
X320690000Y-313880000D03*
X328310000Y-298640000D03*
X320690000Y-311340000D03*
X328310000Y-301180000D03*
X320690000Y-308800000D03*
X328310000Y-303720000D03*
X320690000Y-306260000D03*
X328310000Y-306260000D03*
X320690000Y-303720000D03*
X328310000Y-308800000D03*
X320690000Y-301180000D03*
X328310000Y-311340000D03*
X320690000Y-298640000D03*
X328310000Y-313880000D03*
D10*
X320690000Y-296100000D03*
X310690000Y-208240000D03*
D11*
X303070000Y-190460000D03*
X310690000Y-205700000D03*
X303070000Y-193000000D03*
X310690000Y-203160000D03*
X303070000Y-195540000D03*
X310690000Y-200620000D03*
X303070000Y-198080000D03*
X310690000Y-198080000D03*
X303070000Y-200620000D03*
X310690000Y-195540000D03*
X303070000Y-203160000D03*
X310690000Y-193000000D03*
X303070000Y-205700000D03*
X310690000Y-190460000D03*
X303070000Y-208240000D03*
D10*
X293070000Y-208240000D03*
D11*
X285450000Y-190460000D03*
X293070000Y-205700000D03*
X285450000Y-193000000D03*
X293070000Y-203160000D03*
X285450000Y-195540000D03*
X293070000Y-200620000D03*
X285450000Y-198080000D03*
X293070000Y-198080000D03*
X285450000Y-200620000D03*
X293070000Y-195540000D03*
X285450000Y-203160000D03*
X293070000Y-193000000D03*
X285450000Y-205700000D03*
X293070000Y-190460000D03*
X285450000Y-208240000D03*
X310690000Y-296100000D03*
X303070000Y-311340000D03*
X310690000Y-298640000D03*
X303070000Y-308800000D03*
X310690000Y-301180000D03*
X303070000Y-306260000D03*
X310690000Y-303720000D03*
X303070000Y-303720000D03*
X310690000Y-306260000D03*
X303070000Y-301180000D03*
X310690000Y-308800000D03*
X303070000Y-298640000D03*
X310690000Y-311340000D03*
D10*
X303070000Y-296100000D03*
D11*
X320690000Y-208240000D03*
X328310000Y-190460000D03*
X320690000Y-205700000D03*
X328310000Y-193000000D03*
X320690000Y-203160000D03*
X328310000Y-195540000D03*
X320690000Y-200620000D03*
X328310000Y-198080000D03*
X320690000Y-198080000D03*
X328310000Y-200620000D03*
X320690000Y-195540000D03*
X328310000Y-203160000D03*
X320690000Y-193000000D03*
X328310000Y-205700000D03*
X320690000Y-190460000D03*
D10*
X328310000Y-208240000D03*
D11*
X269180000Y-282715000D03*
X284420000Y-234455000D03*
X269180000Y-280175000D03*
X284420000Y-236995000D03*
X269180000Y-277635000D03*
X284420000Y-239535000D03*
X269180000Y-275095000D03*
X284420000Y-242075000D03*
X269180000Y-272555000D03*
X284420000Y-244615000D03*
X269180000Y-270015000D03*
X284420000Y-247155000D03*
X269180000Y-267475000D03*
X284420000Y-249695000D03*
X269180000Y-264935000D03*
X284420000Y-252235000D03*
X269180000Y-262395000D03*
X284420000Y-254775000D03*
X269180000Y-259855000D03*
X284420000Y-257315000D03*
X269180000Y-257315000D03*
X284420000Y-259855000D03*
X269180000Y-254775000D03*
X284420000Y-262395000D03*
X269180000Y-252235000D03*
X284420000Y-264935000D03*
X269180000Y-249695000D03*
X284420000Y-267475000D03*
X269180000Y-247155000D03*
X284420000Y-270015000D03*
X269180000Y-244615000D03*
X284420000Y-272555000D03*
X269180000Y-242075000D03*
X284420000Y-275095000D03*
X269180000Y-239535000D03*
X284420000Y-277635000D03*
X269180000Y-236995000D03*
X284420000Y-280175000D03*
X269180000Y-234455000D03*
D10*
X284420000Y-282715000D03*
D11*
X320690000Y-261060000D03*
X328310000Y-243280000D03*
X320690000Y-258520000D03*
X328310000Y-245820000D03*
X320690000Y-255980000D03*
X328310000Y-248360000D03*
X320690000Y-253440000D03*
X328310000Y-250900000D03*
X320690000Y-250900000D03*
X328310000Y-253440000D03*
X320690000Y-248360000D03*
X328310000Y-255980000D03*
X320690000Y-245820000D03*
X328310000Y-258520000D03*
X320690000Y-243280000D03*
D10*
X328310000Y-261060000D03*
D11*
X251560000Y-261060000D03*
X259180000Y-243280000D03*
X251560000Y-258520000D03*
X259180000Y-245820000D03*
X251560000Y-255980000D03*
X259180000Y-248360000D03*
X251560000Y-253440000D03*
X259180000Y-250900000D03*
X251560000Y-250900000D03*
X259180000Y-253440000D03*
X251560000Y-248360000D03*
X259180000Y-255980000D03*
X251560000Y-245820000D03*
X259180000Y-258520000D03*
X251560000Y-243280000D03*
D10*
X259180000Y-261060000D03*
X223940000Y-286200000D03*
D11*
X216320000Y-270960000D03*
X223940000Y-283660000D03*
X216320000Y-273500000D03*
X223940000Y-281120000D03*
X216320000Y-276040000D03*
X223940000Y-278580000D03*
X216320000Y-278580000D03*
X223940000Y-276040000D03*
X216320000Y-281120000D03*
X223940000Y-273500000D03*
X216320000Y-283660000D03*
X223940000Y-270960000D03*
X216320000Y-286200000D03*
X216320000Y-261060000D03*
X223940000Y-245820000D03*
X216320000Y-258520000D03*
X223940000Y-248360000D03*
X216320000Y-255980000D03*
X223940000Y-250900000D03*
X216320000Y-253440000D03*
X223940000Y-253440000D03*
X216320000Y-250900000D03*
X223940000Y-255980000D03*
X216320000Y-248360000D03*
X223940000Y-258520000D03*
X216320000Y-245820000D03*
D10*
X223940000Y-261060000D03*
D20*
X204480000Y-120390000D03*
X229470000Y-120390000D03*
D21*
X221790000Y-117850000D03*
X219510000Y-117850000D03*
X217230000Y-117850000D03*
X214950000Y-117850000D03*
X212670000Y-117850000D03*
X213810000Y-120390000D03*
X216090000Y-120390000D03*
X218370000Y-120390000D03*
X220650000Y-120390000D03*
X211530000Y-120390000D03*
X221790000Y-122930000D03*
X219510000Y-122930000D03*
X217230000Y-122930000D03*
X214950000Y-122930000D03*
X212670000Y-122930000D03*
D22*
X253770000Y-315330000D03*
D23*
X251270000Y-315330000D03*
X256270000Y-315330000D03*
X248770000Y-315330000D03*
X258770000Y-315330000D03*
X253770000Y-320330000D03*
D22*
X248770000Y-320330000D03*
X258770000Y-320330000D03*
X258770000Y-322830000D03*
X248770000Y-322830000D03*
X233250000Y-322830000D03*
X243250000Y-322830000D03*
X243250000Y-320330000D03*
X233250000Y-320330000D03*
D23*
X238250000Y-320330000D03*
X243250000Y-315330000D03*
X233250000Y-315330000D03*
X240750000Y-315330000D03*
X235750000Y-315330000D03*
D22*
X238250000Y-315330000D03*
D24*
X220120000Y-309610000D03*
D25*
X217580000Y-309610000D03*
D26*
X149240000Y-123576000D03*
D20*
X149240000Y-117576000D03*
X144540000Y-120576000D03*
D25*
X177330000Y-261120000D03*
D24*
X177330000Y-258580000D03*
X174790000Y-261120000D03*
X174790000Y-258580000D03*
X172250000Y-261120000D03*
X172250000Y-258580000D03*
X169710000Y-261120000D03*
X169710000Y-258580000D03*
X167170000Y-261120000D03*
X167170000Y-258580000D03*
X164630000Y-261120000D03*
X164630000Y-258580000D03*
X162090000Y-261120000D03*
X162090000Y-258580000D03*
X159550000Y-261120000D03*
X159550000Y-258580000D03*
X157010000Y-261120000D03*
X157010000Y-258580000D03*
X154470000Y-261120000D03*
X154470000Y-258580000D03*
D27*
X417720000Y-302105000D03*
X339620000Y-302105000D03*
D28*
X348170000Y-299720000D03*
X350710000Y-299720000D03*
X353250000Y-299720000D03*
X355790000Y-299720000D03*
X358330000Y-299720000D03*
X360870000Y-299720000D03*
X363410000Y-299720000D03*
X365950000Y-299720000D03*
X368490000Y-299720000D03*
X371030000Y-299720000D03*
X373570000Y-299720000D03*
X376110000Y-299720000D03*
X378650000Y-299720000D03*
X381190000Y-299720000D03*
X383730000Y-299720000D03*
X386270000Y-299720000D03*
X388810000Y-299720000D03*
X391350000Y-299720000D03*
X393890000Y-299720000D03*
X396430000Y-299720000D03*
X398970000Y-299720000D03*
X401530000Y-299680000D03*
X404070000Y-299680000D03*
X406610000Y-299680000D03*
X409150000Y-299680000D03*
X409150000Y-304530000D03*
X406610000Y-304530000D03*
X404070000Y-304530000D03*
X401530000Y-304530000D03*
X398990000Y-304530000D03*
X396450000Y-304530000D03*
X393910000Y-304530000D03*
X391370000Y-304530000D03*
X388830000Y-304530000D03*
X386290000Y-304530000D03*
X383750000Y-304530000D03*
X381210000Y-304530000D03*
X378670000Y-304530000D03*
X376130000Y-304530000D03*
X373590000Y-304530000D03*
X371050000Y-304530000D03*
X368510000Y-304530000D03*
X365970000Y-304530000D03*
X363430000Y-304530000D03*
X360890000Y-304530000D03*
X358350000Y-304530000D03*
X355810000Y-304530000D03*
X353270000Y-304530000D03*
X350730000Y-304530000D03*
D29*
X348190000Y-304530000D03*
D11*
X233940000Y-286200000D03*
X241560000Y-270960000D03*
X233940000Y-283660000D03*
X241560000Y-273500000D03*
X233940000Y-281120000D03*
X241560000Y-276040000D03*
X233940000Y-278580000D03*
X241560000Y-278580000D03*
X233940000Y-276040000D03*
X241560000Y-281120000D03*
X233940000Y-273500000D03*
X241560000Y-283660000D03*
X233940000Y-270960000D03*
D10*
X241560000Y-286200000D03*
D11*
X175870000Y-270960000D03*
X168250000Y-288740000D03*
X175870000Y-273500000D03*
X168250000Y-286200000D03*
X175870000Y-276040000D03*
X168250000Y-283660000D03*
X175870000Y-278580000D03*
X168250000Y-281120000D03*
X175870000Y-281120000D03*
X168250000Y-278580000D03*
X175870000Y-283660000D03*
X168250000Y-276040000D03*
X175870000Y-286200000D03*
X168250000Y-273500000D03*
X175870000Y-288740000D03*
D10*
X168250000Y-270960000D03*
D27*
X417720000Y-241145000D03*
X339620000Y-241145000D03*
D28*
X348170000Y-238760000D03*
X350710000Y-238760000D03*
X353250000Y-238760000D03*
X355790000Y-238760000D03*
X358330000Y-238760000D03*
X360870000Y-238760000D03*
X363410000Y-238760000D03*
X365950000Y-238760000D03*
X368490000Y-238760000D03*
X371030000Y-238760000D03*
X373570000Y-238760000D03*
X376110000Y-238760000D03*
X378650000Y-238760000D03*
X381190000Y-238760000D03*
X383730000Y-238760000D03*
X386270000Y-238760000D03*
X388810000Y-238760000D03*
X391350000Y-238760000D03*
X393890000Y-238760000D03*
X396430000Y-238760000D03*
X398970000Y-238760000D03*
X401530000Y-238720000D03*
X404070000Y-238720000D03*
X406610000Y-238720000D03*
X409150000Y-238720000D03*
X409150000Y-243570000D03*
X406610000Y-243570000D03*
X404070000Y-243570000D03*
X401530000Y-243570000D03*
X398990000Y-243570000D03*
X396450000Y-243570000D03*
X393910000Y-243570000D03*
X391370000Y-243570000D03*
X388830000Y-243570000D03*
X386290000Y-243570000D03*
X383750000Y-243570000D03*
X381210000Y-243570000D03*
X378670000Y-243570000D03*
X376130000Y-243570000D03*
X373590000Y-243570000D03*
X371050000Y-243570000D03*
X368510000Y-243570000D03*
X365970000Y-243570000D03*
X363430000Y-243570000D03*
X360890000Y-243570000D03*
X358350000Y-243570000D03*
X355810000Y-243570000D03*
X353270000Y-243570000D03*
X350730000Y-243570000D03*
D29*
X348190000Y-243570000D03*
X348190000Y-289290000D03*
D28*
X350730000Y-289290000D03*
X353270000Y-289290000D03*
X355810000Y-289290000D03*
X358350000Y-289290000D03*
X360890000Y-289290000D03*
X363430000Y-289290000D03*
X365970000Y-289290000D03*
X368510000Y-289290000D03*
X371050000Y-289290000D03*
X373590000Y-289290000D03*
X376130000Y-289290000D03*
X378670000Y-289290000D03*
X381210000Y-289290000D03*
X383750000Y-289290000D03*
X386290000Y-289290000D03*
X388830000Y-289290000D03*
X391370000Y-289290000D03*
X393910000Y-289290000D03*
X396450000Y-289290000D03*
X398990000Y-289290000D03*
X401530000Y-289290000D03*
X404070000Y-289290000D03*
X406610000Y-289290000D03*
X409150000Y-289290000D03*
X409150000Y-284440000D03*
X406610000Y-284440000D03*
X404070000Y-284440000D03*
X401530000Y-284440000D03*
X398970000Y-284480000D03*
X396430000Y-284480000D03*
X393890000Y-284480000D03*
X391350000Y-284480000D03*
X388810000Y-284480000D03*
X386270000Y-284480000D03*
X383730000Y-284480000D03*
X381190000Y-284480000D03*
X378650000Y-284480000D03*
X376110000Y-284480000D03*
X373570000Y-284480000D03*
X371030000Y-284480000D03*
X368490000Y-284480000D03*
X365950000Y-284480000D03*
X363410000Y-284480000D03*
X360870000Y-284480000D03*
X358330000Y-284480000D03*
X355790000Y-284480000D03*
X353250000Y-284480000D03*
X350710000Y-284480000D03*
X348170000Y-284480000D03*
D27*
X339620000Y-286865000D03*
X417720000Y-286865000D03*
D29*
X348190000Y-228330000D03*
D28*
X350730000Y-228330000D03*
X353270000Y-228330000D03*
X355810000Y-228330000D03*
X358350000Y-228330000D03*
X360890000Y-228330000D03*
X363430000Y-228330000D03*
X365970000Y-228330000D03*
X368510000Y-228330000D03*
X371050000Y-228330000D03*
X373590000Y-228330000D03*
X376130000Y-228330000D03*
X378670000Y-228330000D03*
X381210000Y-228330000D03*
X383750000Y-228330000D03*
X386290000Y-228330000D03*
X388830000Y-228330000D03*
X391370000Y-228330000D03*
X393910000Y-228330000D03*
X396450000Y-228330000D03*
X398990000Y-228330000D03*
X401530000Y-228330000D03*
X404070000Y-228330000D03*
X406610000Y-228330000D03*
X409150000Y-228330000D03*
X409150000Y-223480000D03*
X406610000Y-223480000D03*
X404070000Y-223480000D03*
X401530000Y-223480000D03*
X398970000Y-223520000D03*
X396430000Y-223520000D03*
X393890000Y-223520000D03*
X391350000Y-223520000D03*
X388810000Y-223520000D03*
X386270000Y-223520000D03*
X383730000Y-223520000D03*
X381190000Y-223520000D03*
X378650000Y-223520000D03*
X376110000Y-223520000D03*
X373570000Y-223520000D03*
X371030000Y-223520000D03*
X368490000Y-223520000D03*
X365950000Y-223520000D03*
X363410000Y-223520000D03*
X360870000Y-223520000D03*
X358330000Y-223520000D03*
X355790000Y-223520000D03*
X353250000Y-223520000D03*
X350710000Y-223520000D03*
X348170000Y-223520000D03*
D27*
X339620000Y-225905000D03*
X417720000Y-225905000D03*
X417720000Y-271625000D03*
X339620000Y-271625000D03*
D28*
X348170000Y-269240000D03*
X350710000Y-269240000D03*
X353250000Y-269240000D03*
X355790000Y-269240000D03*
X358330000Y-269240000D03*
X360870000Y-269240000D03*
X363410000Y-269240000D03*
X365950000Y-269240000D03*
X368490000Y-269240000D03*
X371030000Y-269240000D03*
X373570000Y-269240000D03*
X376110000Y-269240000D03*
X378650000Y-269240000D03*
X381190000Y-269240000D03*
X383730000Y-269240000D03*
X386270000Y-269240000D03*
X388810000Y-269240000D03*
X391350000Y-269240000D03*
X393890000Y-269240000D03*
X396430000Y-269240000D03*
X398970000Y-269240000D03*
X401530000Y-269200000D03*
X404070000Y-269200000D03*
X406610000Y-269200000D03*
X409150000Y-269200000D03*
X409150000Y-274050000D03*
X406610000Y-274050000D03*
X404070000Y-274050000D03*
X401530000Y-274050000D03*
X398990000Y-274050000D03*
X396450000Y-274050000D03*
X393910000Y-274050000D03*
X391370000Y-274050000D03*
X388830000Y-274050000D03*
X386290000Y-274050000D03*
X383750000Y-274050000D03*
X381210000Y-274050000D03*
X378670000Y-274050000D03*
X376130000Y-274050000D03*
X373590000Y-274050000D03*
X371050000Y-274050000D03*
X368510000Y-274050000D03*
X365970000Y-274050000D03*
X363430000Y-274050000D03*
X360890000Y-274050000D03*
X358350000Y-274050000D03*
X355810000Y-274050000D03*
X353270000Y-274050000D03*
X350730000Y-274050000D03*
D29*
X348190000Y-274050000D03*
D27*
X417720000Y-210665000D03*
X339620000Y-210665000D03*
D28*
X348170000Y-208280000D03*
X350710000Y-208280000D03*
X353250000Y-208280000D03*
X355790000Y-208280000D03*
X358330000Y-208280000D03*
X360870000Y-208280000D03*
X363410000Y-208280000D03*
X365950000Y-208280000D03*
X368490000Y-208280000D03*
X371030000Y-208280000D03*
X373570000Y-208280000D03*
X376110000Y-208280000D03*
X378650000Y-208280000D03*
X381190000Y-208280000D03*
X383730000Y-208280000D03*
X386270000Y-208280000D03*
X388810000Y-208280000D03*
X391350000Y-208280000D03*
X393890000Y-208280000D03*
X396430000Y-208280000D03*
X398970000Y-208280000D03*
X401530000Y-208240000D03*
X404070000Y-208240000D03*
X406610000Y-208240000D03*
X409150000Y-208240000D03*
X409150000Y-213090000D03*
X406610000Y-213090000D03*
X404070000Y-213090000D03*
X401530000Y-213090000D03*
X398990000Y-213090000D03*
X396450000Y-213090000D03*
X393910000Y-213090000D03*
X391370000Y-213090000D03*
X388830000Y-213090000D03*
X386290000Y-213090000D03*
X383750000Y-213090000D03*
X381210000Y-213090000D03*
X378670000Y-213090000D03*
X376130000Y-213090000D03*
X373590000Y-213090000D03*
X371050000Y-213090000D03*
X368510000Y-213090000D03*
X365970000Y-213090000D03*
X363430000Y-213090000D03*
X360890000Y-213090000D03*
X358350000Y-213090000D03*
X355810000Y-213090000D03*
X353270000Y-213090000D03*
X350730000Y-213090000D03*
D29*
X348190000Y-213090000D03*
X348190000Y-258810000D03*
D28*
X350730000Y-258810000D03*
X353270000Y-258810000D03*
X355810000Y-258810000D03*
X358350000Y-258810000D03*
X360890000Y-258810000D03*
X363430000Y-258810000D03*
X365970000Y-258810000D03*
X368510000Y-258810000D03*
X371050000Y-258810000D03*
X373590000Y-258810000D03*
X376130000Y-258810000D03*
X378670000Y-258810000D03*
X381210000Y-258810000D03*
X383750000Y-258810000D03*
X386290000Y-258810000D03*
X388830000Y-258810000D03*
X391370000Y-258810000D03*
X393910000Y-258810000D03*
X396450000Y-258810000D03*
X398990000Y-258810000D03*
X401530000Y-258810000D03*
X404070000Y-258810000D03*
X406610000Y-258810000D03*
X409150000Y-258810000D03*
X409150000Y-253960000D03*
X406610000Y-253960000D03*
X404070000Y-253960000D03*
X401530000Y-253960000D03*
X398970000Y-254000000D03*
X396430000Y-254000000D03*
X393890000Y-254000000D03*
X391350000Y-254000000D03*
X388810000Y-254000000D03*
X386270000Y-254000000D03*
X383730000Y-254000000D03*
X381190000Y-254000000D03*
X378650000Y-254000000D03*
X376110000Y-254000000D03*
X373570000Y-254000000D03*
X371030000Y-254000000D03*
X368490000Y-254000000D03*
X365950000Y-254000000D03*
X363410000Y-254000000D03*
X360870000Y-254000000D03*
X358330000Y-254000000D03*
X355790000Y-254000000D03*
X353250000Y-254000000D03*
X350710000Y-254000000D03*
X348170000Y-254000000D03*
D27*
X339620000Y-256385000D03*
X417720000Y-256385000D03*
D29*
X348190000Y-197850000D03*
D28*
X350730000Y-197850000D03*
X353270000Y-197850000D03*
X355810000Y-197850000D03*
X358350000Y-197850000D03*
X360890000Y-197850000D03*
X363430000Y-197850000D03*
X365970000Y-197850000D03*
X368510000Y-197850000D03*
X371050000Y-197850000D03*
X373590000Y-197850000D03*
X376130000Y-197850000D03*
X378670000Y-197850000D03*
X381210000Y-197850000D03*
X383750000Y-197850000D03*
X386290000Y-197850000D03*
X388830000Y-197850000D03*
X391370000Y-197850000D03*
X393910000Y-197850000D03*
X396450000Y-197850000D03*
X398990000Y-197850000D03*
X401530000Y-197850000D03*
X404070000Y-197850000D03*
X406610000Y-197850000D03*
X409150000Y-197850000D03*
X409150000Y-193000000D03*
X406610000Y-193000000D03*
X404070000Y-193000000D03*
X401530000Y-193000000D03*
X398970000Y-193040000D03*
X396430000Y-193040000D03*
X393890000Y-193040000D03*
X391350000Y-193040000D03*
X388810000Y-193040000D03*
X386270000Y-193040000D03*
X383730000Y-193040000D03*
X381190000Y-193040000D03*
X378650000Y-193040000D03*
X376110000Y-193040000D03*
X373570000Y-193040000D03*
X371030000Y-193040000D03*
X368490000Y-193040000D03*
X365950000Y-193040000D03*
X363410000Y-193040000D03*
X360870000Y-193040000D03*
X358330000Y-193040000D03*
X355790000Y-193040000D03*
X353250000Y-193040000D03*
X350710000Y-193040000D03*
X348170000Y-193040000D03*
D27*
X339620000Y-195425000D03*
X417720000Y-195425000D03*
D25*
X402730000Y-160570000D03*
D24*
X400190000Y-160570000D03*
X397650000Y-160570000D03*
X395110000Y-160570000D03*
X392570000Y-160570000D03*
X390030000Y-160570000D03*
X387490000Y-160570000D03*
X384950000Y-160570000D03*
X382410000Y-160570000D03*
D25*
X288310000Y-254725000D03*
D24*
X288310000Y-257265000D03*
D22*
X191430000Y-322830000D03*
X201430000Y-322830000D03*
X201430000Y-320330000D03*
X191430000Y-320330000D03*
D23*
X196430000Y-320330000D03*
X201430000Y-315330000D03*
X191430000Y-315330000D03*
X198930000Y-315330000D03*
X193930000Y-315330000D03*
D22*
X196430000Y-315330000D03*
D25*
X332200000Y-245770000D03*
D24*
X332200000Y-248310000D03*
X229880000Y-144970000D03*
D25*
X229880000Y-147510000D03*
D24*
X233480000Y-147500000D03*
D25*
X233480000Y-144960000D03*
X237080000Y-147510000D03*
D24*
X237080000Y-144970000D03*
D25*
X240840000Y-191130000D03*
D24*
X240840000Y-193670000D03*
X299180000Y-218080000D03*
X299180000Y-220620000D03*
D25*
X299180000Y-223160000D03*
D24*
X244450000Y-193670000D03*
X246990000Y-193670000D03*
D25*
X249530000Y-193670000D03*
X259290000Y-193670000D03*
D24*
X256750000Y-193670000D03*
X254210000Y-193670000D03*
D25*
X160605000Y-302990000D03*
D24*
X160605000Y-300450000D03*
X164205000Y-300450000D03*
D25*
X164205000Y-302990000D03*
D24*
X167805000Y-300450000D03*
D25*
X167805000Y-302990000D03*
X123080000Y-302990000D03*
D24*
X123080000Y-300450000D03*
X126680000Y-300450000D03*
D25*
X126680000Y-302990000D03*
X130280000Y-302990000D03*
D24*
X130280000Y-300450000D03*
D25*
X185420000Y-309610000D03*
D24*
X182880000Y-309610000D03*
D25*
X209400000Y-309610000D03*
D24*
X206860000Y-309610000D03*
X207350000Y-300460000D03*
D25*
X207350000Y-303000000D03*
D24*
X185420000Y-302990000D03*
D25*
X185420000Y-300450000D03*
D12*
X252960000Y-119930000D03*
X246160000Y-119930000D03*
X252960000Y-117430000D03*
X246160000Y-117430000D03*
X248260000Y-117430000D03*
X250860000Y-117430000D03*
D30*
X249560000Y-113630000D03*
X242810000Y-114430000D03*
X256310000Y-114430000D03*
D11*
X233940000Y-303720000D03*
X241560000Y-296100000D03*
X233940000Y-301180000D03*
X241560000Y-298640000D03*
X233940000Y-298640000D03*
X241560000Y-301180000D03*
X233940000Y-296100000D03*
D10*
X241560000Y-303720000D03*
D12*
X397962620Y-319105000D03*
X400502620Y-319105000D03*
D31*
X200180000Y-301740000D03*
X192580000Y-301740000D03*
D25*
X216350000Y-150390000D03*
D24*
X218890000Y-150390000D03*
X221430000Y-150390000D03*
X223970000Y-150390000D03*
X353750000Y-137550000D03*
X353750000Y-135010000D03*
X353750000Y-132470000D03*
D25*
X353750000Y-129930000D03*
D32*
X217535000Y-299615000D03*
X217535000Y-298345000D03*
D33*
X217535000Y-300885000D03*
D34*
X305610000Y-150480000D03*
D35*
X308150000Y-150480000D03*
X306880000Y-150480000D03*
D12*
X329580000Y-239400000D03*
D17*
X319420000Y-239400000D03*
D12*
X252230000Y-180380000D03*
D17*
X252230000Y-170220000D03*
X228230000Y-180380000D03*
D12*
X228230000Y-170220000D03*
X231230000Y-170220000D03*
D17*
X231230000Y-180380000D03*
D12*
X234230000Y-170220000D03*
D17*
X234230000Y-180380000D03*
D12*
X237230000Y-170220000D03*
D17*
X237230000Y-180380000D03*
X240230000Y-180380000D03*
D12*
X240230000Y-170220000D03*
X243230000Y-170220000D03*
D17*
X243230000Y-180380000D03*
X246230000Y-180380000D03*
D12*
X246230000Y-170220000D03*
X249230000Y-170220000D03*
D17*
X249230000Y-180380000D03*
D12*
X219980000Y-136820000D03*
D17*
X219980000Y-126660000D03*
X222990000Y-126660000D03*
D12*
X222990000Y-136820000D03*
D17*
X216980000Y-136820000D03*
D12*
X216980000Y-126660000D03*
X316760000Y-154150000D03*
D17*
X316760000Y-143990000D03*
D12*
X230010000Y-294830000D03*
D17*
X230010000Y-304990000D03*
X242830000Y-292420000D03*
D12*
X232670000Y-292420000D03*
D17*
X248490000Y-294830000D03*
D12*
X248490000Y-304990000D03*
D17*
X232670000Y-310600000D03*
D12*
X242830000Y-310600000D03*
X242830000Y-307600000D03*
D17*
X232670000Y-307600000D03*
X227870000Y-281120000D03*
D12*
X227870000Y-270960000D03*
D17*
X212390000Y-281120000D03*
D12*
X212390000Y-270960000D03*
X227870000Y-245820000D03*
D17*
X227870000Y-255980000D03*
D12*
X212390000Y-245820000D03*
D17*
X212390000Y-255980000D03*
D12*
X247830000Y-286200000D03*
D17*
X247830000Y-276040000D03*
X201460000Y-290720000D03*
D12*
X191300000Y-290720000D03*
D17*
X332240000Y-154150000D03*
D12*
X332240000Y-143990000D03*
D17*
X213980000Y-136820000D03*
D12*
X213980000Y-126660000D03*
D17*
X281520000Y-204430000D03*
D12*
X281520000Y-194270000D03*
D17*
X227010000Y-294830000D03*
D12*
X227010000Y-304990000D03*
X245490000Y-304990000D03*
D17*
X245490000Y-294830000D03*
D12*
X210980000Y-126660000D03*
D17*
X210980000Y-136820000D03*
X209140000Y-153610000D03*
D12*
X209140000Y-163770000D03*
D17*
X212170000Y-153610000D03*
D12*
X212170000Y-163770000D03*
X314620000Y-268880000D03*
D17*
X314620000Y-258720000D03*
X231750000Y-255980000D03*
D12*
X231750000Y-245820000D03*
X234750000Y-245820000D03*
D17*
X234750000Y-255980000D03*
X237750000Y-255980000D03*
D12*
X237750000Y-245820000D03*
X240750000Y-245820000D03*
D17*
X240750000Y-255980000D03*
X243750000Y-245820000D03*
D12*
X243750000Y-255980000D03*
X222050000Y-225060000D03*
D17*
X222050000Y-214900000D03*
X219050000Y-214900000D03*
D12*
X219050000Y-225060000D03*
X316760000Y-218140000D03*
D17*
X316760000Y-228300000D03*
D12*
X227780000Y-193630000D03*
D17*
X237940000Y-193630000D03*
D12*
X227780000Y-190630000D03*
D17*
X237940000Y-190630000D03*
D12*
X227780000Y-187630000D03*
D17*
X237940000Y-187630000D03*
X216050000Y-214900000D03*
D12*
X216050000Y-225060000D03*
D17*
X213050000Y-214900000D03*
D12*
X213050000Y-225060000D03*
D17*
X210050000Y-214900000D03*
D12*
X210050000Y-225060000D03*
D17*
X394145000Y-313045000D03*
D12*
X404305000Y-313045000D03*
X373930000Y-170420000D03*
D17*
X373930000Y-160260000D03*
X245110000Y-134250000D03*
D12*
X245110000Y-124090000D03*
D17*
X254110000Y-134250000D03*
D12*
X254110000Y-124090000D03*
X248110000Y-124090000D03*
D17*
X248110000Y-134250000D03*
X251110000Y-124090000D03*
D12*
X251110000Y-134250000D03*
X281880000Y-289595000D03*
D17*
X271720000Y-289595000D03*
D12*
X334380000Y-122870000D03*
D17*
X334380000Y-133030000D03*
X370370000Y-116980000D03*
D12*
X380530000Y-116980000D03*
D17*
X389370000Y-116980000D03*
D12*
X399530000Y-116980000D03*
X413930000Y-141580000D03*
D17*
X413930000Y-131420000D03*
D12*
X413930000Y-160580000D03*
D17*
X413930000Y-150420000D03*
D12*
X380530000Y-119980000D03*
D17*
X370370000Y-119980000D03*
X389370000Y-119980000D03*
D12*
X399530000Y-119980000D03*
X410930000Y-141580000D03*
D17*
X410930000Y-131420000D03*
X410930000Y-150420000D03*
D12*
X410930000Y-160580000D03*
X247630000Y-245820000D03*
D17*
X247630000Y-255980000D03*
D12*
X361930000Y-160260000D03*
D17*
X361930000Y-170420000D03*
X364930000Y-170420000D03*
D12*
X364930000Y-160260000D03*
D17*
X367930000Y-170420000D03*
D12*
X367930000Y-160260000D03*
D17*
X370930000Y-170420000D03*
D12*
X370930000Y-160260000D03*
D17*
X361030000Y-137860000D03*
D12*
X361030000Y-127700000D03*
D17*
X364030000Y-137860000D03*
D12*
X364030000Y-127700000D03*
D17*
X383930000Y-137860000D03*
D12*
X383930000Y-127700000D03*
X386930000Y-127700000D03*
D17*
X386930000Y-137860000D03*
D12*
X389930000Y-127700000D03*
D17*
X389930000Y-137860000D03*
X392930000Y-137860000D03*
D12*
X392930000Y-127700000D03*
D17*
X395930000Y-137860000D03*
D12*
X395930000Y-127700000D03*
X398930000Y-127700000D03*
D17*
X398930000Y-137860000D03*
D12*
X401930000Y-127700000D03*
D17*
X401930000Y-137860000D03*
X117710000Y-198605000D03*
D12*
X127870000Y-198605000D03*
X117620000Y-201605000D03*
D17*
X127780000Y-201605000D03*
D12*
X127870000Y-142730000D03*
D17*
X117710000Y-142730000D03*
X127780000Y-145730000D03*
D12*
X117620000Y-145730000D03*
X180180000Y-212850000D03*
D17*
X170020000Y-212850000D03*
X180180000Y-215850000D03*
D12*
X170020000Y-215850000D03*
X127870000Y-254480000D03*
D17*
X117710000Y-254480000D03*
D12*
X117620000Y-257480000D03*
D17*
X127780000Y-257480000D03*
D12*
X180180000Y-157000000D03*
D17*
X170020000Y-157000000D03*
X180160000Y-160000000D03*
D12*
X170000000Y-160000000D03*
D13*
X288380000Y-269965000D03*
D17*
X288380000Y-272505000D03*
X288380000Y-275045000D03*
X288380000Y-277585000D03*
X288380000Y-280125000D03*
X288380000Y-282665000D03*
D31*
X216030000Y-313730000D03*
X213490000Y-313730000D03*
X210950000Y-313730000D03*
D36*
X261550000Y-181540000D03*
X255050000Y-181540000D03*
X255050000Y-177040000D03*
X261550000Y-177040000D03*
D37*
X168415000Y-112200000D03*
X181625000Y-112200000D03*
X170320000Y-121730000D03*
X175020000Y-121730000D03*
X179720000Y-121730000D03*
D38*
X397930000Y-112980000D03*
X390920000Y-112980000D03*
D39*
X392175000Y-110490000D03*
X396675000Y-110490000D03*
X377675000Y-110490000D03*
X373175000Y-110490000D03*
D38*
X371920000Y-112980000D03*
X378930000Y-112980000D03*
D36*
X384530000Y-166520000D03*
X378030000Y-166520000D03*
X378030000Y-171020000D03*
X384530000Y-171020000D03*
D38*
X359930000Y-112980000D03*
X352920000Y-112980000D03*
D39*
X354175000Y-110490000D03*
X358675000Y-110490000D03*
X420420000Y-138725000D03*
X420420000Y-134225000D03*
D38*
X417930000Y-132970000D03*
X417930000Y-139980000D03*
X417930000Y-158980000D03*
X417930000Y-151970000D03*
D39*
X420420000Y-153225000D03*
X420420000Y-157725000D03*
D10*
X285450000Y-296100000D03*
D11*
X293070000Y-311340000D03*
X285450000Y-298640000D03*
X293070000Y-308800000D03*
X285450000Y-301180000D03*
X293070000Y-306260000D03*
X285450000Y-303720000D03*
X293070000Y-303720000D03*
X285450000Y-306260000D03*
X293070000Y-301180000D03*
X285450000Y-308800000D03*
X293070000Y-298640000D03*
X285450000Y-311340000D03*
X293070000Y-296100000D03*
D10*
X320690000Y-270960000D03*
D11*
X328310000Y-286200000D03*
X320690000Y-273500000D03*
X328310000Y-283660000D03*
X320690000Y-276040000D03*
X328310000Y-281120000D03*
X320690000Y-278580000D03*
X328310000Y-278580000D03*
X320690000Y-281120000D03*
X328310000Y-276040000D03*
X320690000Y-283660000D03*
X328310000Y-273500000D03*
X320690000Y-286200000D03*
X328310000Y-270960000D03*
D40*
X229940000Y-166640000D03*
D41*
X278200000Y-151400000D03*
X232480000Y-166640000D03*
X275660000Y-151400000D03*
X235020000Y-166640000D03*
X273120000Y-151400000D03*
X237560000Y-166640000D03*
X270580000Y-151400000D03*
X240100000Y-166640000D03*
X268040000Y-151400000D03*
X242640000Y-166640000D03*
X265500000Y-151400000D03*
X245180000Y-166640000D03*
X262960000Y-151400000D03*
X247720000Y-166640000D03*
X260420000Y-151400000D03*
X250260000Y-166640000D03*
X257880000Y-151400000D03*
X252800000Y-166640000D03*
X255340000Y-151400000D03*
X255340000Y-166640000D03*
X252800000Y-151400000D03*
X257880000Y-166640000D03*
X250260000Y-151400000D03*
X260420000Y-166640000D03*
X247720000Y-151400000D03*
X262960000Y-166640000D03*
X245180000Y-151400000D03*
X265500000Y-166640000D03*
X242640000Y-151400000D03*
X268040000Y-166640000D03*
X240100000Y-151400000D03*
X270580000Y-166640000D03*
X237560000Y-151400000D03*
X273120000Y-166640000D03*
X235020000Y-151400000D03*
X275660000Y-166640000D03*
X232480000Y-151400000D03*
X278200000Y-166640000D03*
X229940000Y-151400000D03*
D10*
X223940000Y-162830000D03*
D11*
X216320000Y-155210000D03*
X223940000Y-160290000D03*
X216320000Y-157750000D03*
X223940000Y-157750000D03*
X216320000Y-160290000D03*
X223940000Y-155210000D03*
X216320000Y-162830000D03*
D42*
X294840000Y-243480000D03*
D43*
X294840000Y-246020000D03*
X294840000Y-248560000D03*
X294840000Y-251100000D03*
X294840000Y-253640000D03*
X294840000Y-256180000D03*
X294840000Y-258720000D03*
X294840000Y-261260000D03*
X294840000Y-263800000D03*
X294840000Y-266340000D03*
X294840000Y-268880000D03*
X294840000Y-271420000D03*
X294840000Y-273960000D03*
X294840000Y-276500000D03*
X310080000Y-276500000D03*
X310080000Y-273960000D03*
X310080000Y-271420000D03*
X310080000Y-268880000D03*
X310080000Y-266340000D03*
X310080000Y-263800000D03*
X310080000Y-261260000D03*
X310080000Y-258720000D03*
X310080000Y-256180000D03*
X310080000Y-253640000D03*
X310080000Y-251100000D03*
X310080000Y-248560000D03*
X310080000Y-246020000D03*
X310080000Y-243480000D03*
D44*
X229870000Y-198920000D03*
X232410000Y-198920000D03*
X234950000Y-198920000D03*
X240030000Y-198920000D03*
X237490000Y-198920000D03*
X242570000Y-198920000D03*
X245110000Y-198920000D03*
X247650000Y-198920000D03*
X250190000Y-198920000D03*
X252730000Y-198920000D03*
X255270000Y-198920000D03*
X229870000Y-201460000D03*
X232410000Y-201460000D03*
X234950000Y-201460000D03*
X237490000Y-201460000D03*
X240030000Y-201460000D03*
X242570000Y-201460000D03*
X245110000Y-201460000D03*
X247650000Y-201460000D03*
X250190000Y-201460000D03*
X252730000Y-201460000D03*
X255270000Y-201460000D03*
X229870000Y-204000000D03*
X229870000Y-206540000D03*
X229870000Y-209080000D03*
X229870000Y-211620000D03*
X229870000Y-214160000D03*
X229870000Y-216700000D03*
X229870000Y-219240000D03*
X229870000Y-221780000D03*
X229870000Y-224320000D03*
X229870000Y-226860000D03*
X227330000Y-226860000D03*
X227330000Y-224320000D03*
X227330000Y-219240000D03*
X227330000Y-221780000D03*
X227330000Y-216700000D03*
X227330000Y-214160000D03*
X227330000Y-211620000D03*
X227330000Y-209080000D03*
X227330000Y-206540000D03*
X227330000Y-204000000D03*
X255270000Y-204000000D03*
X255270000Y-206540000D03*
X255270000Y-209080000D03*
X255270000Y-211620000D03*
X255270000Y-214160000D03*
X255270000Y-216700000D03*
X255270000Y-219240000D03*
X255270000Y-221780000D03*
X255270000Y-224320000D03*
X255270000Y-226860000D03*
X257810000Y-204000000D03*
X257810000Y-206540000D03*
X257810000Y-209080000D03*
X257810000Y-211620000D03*
X257810000Y-214160000D03*
X257810000Y-216700000D03*
X257810000Y-219240000D03*
X257810000Y-221780000D03*
X257810000Y-224320000D03*
X257810000Y-226860000D03*
X232410000Y-226860000D03*
X234950000Y-226860000D03*
X237490000Y-226860000D03*
X240030000Y-226860000D03*
X242570000Y-226860000D03*
X245110000Y-226860000D03*
X247650000Y-226860000D03*
X250190000Y-226860000D03*
X252730000Y-226860000D03*
X227330000Y-201460000D03*
X257810000Y-201460000D03*
X229870000Y-229400000D03*
X232410000Y-229400000D03*
X234950000Y-229400000D03*
X237490000Y-229400000D03*
X240030000Y-229400000D03*
X242570000Y-229400000D03*
X245110000Y-229400000D03*
X247650000Y-229400000D03*
X250190000Y-229400000D03*
X252730000Y-229400000D03*
X255270000Y-229400000D03*
D11*
X310690000Y-218140000D03*
X303070000Y-233380000D03*
X310690000Y-220680000D03*
X303070000Y-230840000D03*
X310690000Y-223220000D03*
X303070000Y-228300000D03*
X310690000Y-225760000D03*
X303070000Y-225760000D03*
X310690000Y-228300000D03*
X303070000Y-223220000D03*
X310690000Y-230840000D03*
X303070000Y-220680000D03*
X310690000Y-233380000D03*
D10*
X303070000Y-218140000D03*
X223940000Y-187970000D03*
D11*
X216320000Y-172730000D03*
X223940000Y-185430000D03*
X216320000Y-175270000D03*
X223940000Y-182890000D03*
X216320000Y-177810000D03*
X223940000Y-180350000D03*
X216320000Y-180350000D03*
X223940000Y-177810000D03*
X216320000Y-182890000D03*
X223940000Y-175270000D03*
X216320000Y-185430000D03*
X223940000Y-172730000D03*
X216320000Y-187970000D03*
D45*
X115770000Y-121070000D03*
D46*
X112370000Y-137730000D03*
D47*
X114070000Y-137730000D03*
X115770000Y-137730000D03*
X117470000Y-137730000D03*
X119170000Y-137730000D03*
X171480000Y-207850000D03*
X169780000Y-207850000D03*
X168080000Y-207850000D03*
X166380000Y-207850000D03*
D46*
X164680000Y-207850000D03*
D45*
X168080000Y-191190000D03*
D47*
X119170000Y-193605000D03*
X117470000Y-193605000D03*
X115770000Y-193605000D03*
X114070000Y-193605000D03*
D46*
X112370000Y-193605000D03*
D45*
X115770000Y-176945000D03*
X168080000Y-135320000D03*
D46*
X164680000Y-151980000D03*
D47*
X166380000Y-151980000D03*
X168080000Y-151980000D03*
X169780000Y-151980000D03*
X171480000Y-151980000D03*
D45*
X115770000Y-232820000D03*
D46*
X112370000Y-249480000D03*
D47*
X114070000Y-249480000D03*
X115770000Y-249480000D03*
X117470000Y-249480000D03*
X119170000Y-249480000D03*
D40*
X351930000Y-156680000D03*
D41*
X400190000Y-141440000D03*
X354470000Y-156680000D03*
X397650000Y-141440000D03*
X357010000Y-156680000D03*
X395110000Y-141440000D03*
X359550000Y-156680000D03*
X392570000Y-141440000D03*
X362090000Y-156680000D03*
X390030000Y-141440000D03*
X364630000Y-156680000D03*
X387490000Y-141440000D03*
X367170000Y-156680000D03*
X384950000Y-141440000D03*
X369710000Y-156680000D03*
X382410000Y-141440000D03*
X372250000Y-156680000D03*
X379870000Y-141440000D03*
X374790000Y-156680000D03*
X377330000Y-141440000D03*
X377330000Y-156680000D03*
X374790000Y-141440000D03*
X379870000Y-156680000D03*
X372250000Y-141440000D03*
X382410000Y-156680000D03*
X369710000Y-141440000D03*
X384950000Y-156680000D03*
X367170000Y-141440000D03*
X387490000Y-156680000D03*
X364630000Y-141440000D03*
X390030000Y-156680000D03*
X362090000Y-141440000D03*
X392570000Y-156680000D03*
X359550000Y-141440000D03*
X395110000Y-156680000D03*
X357010000Y-141440000D03*
X397650000Y-156680000D03*
X354470000Y-141440000D03*
X400190000Y-156680000D03*
X351930000Y-141440000D03*
D10*
X345930000Y-152880000D03*
D11*
X338310000Y-145260000D03*
X345930000Y-150340000D03*
X338310000Y-147800000D03*
X345930000Y-147800000D03*
X338310000Y-150340000D03*
X345930000Y-145260000D03*
X338310000Y-152880000D03*
D10*
X320690000Y-218140000D03*
D11*
X328310000Y-233380000D03*
X320690000Y-220680000D03*
X328310000Y-230840000D03*
X320690000Y-223220000D03*
X328310000Y-228300000D03*
X320690000Y-225760000D03*
X328310000Y-225760000D03*
X320690000Y-228300000D03*
X328310000Y-223220000D03*
X320690000Y-230840000D03*
X328310000Y-220680000D03*
X320690000Y-233380000D03*
X328310000Y-218140000D03*
D48*
X251430000Y-146480000D03*
X256510000Y-146480000D03*
D49*
X275670000Y-303530000D03*
D50*
X275670000Y-295910000D03*
X268050000Y-303530000D03*
X268050000Y-295910000D03*
D48*
X378470000Y-136530000D03*
X373390000Y-136530000D03*
D12*
X108370000Y-137730000D03*
X108370000Y-135230000D03*
X160680000Y-205350000D03*
X160680000Y-207850000D03*
X108370000Y-191105000D03*
X108370000Y-193605000D03*
X148370000Y-134060000D03*
X148370000Y-131560000D03*
X200680000Y-201600000D03*
X200680000Y-204100000D03*
X148370000Y-189855000D03*
X148370000Y-187355000D03*
X160680000Y-151980000D03*
X160680000Y-149480000D03*
X108370000Y-249480000D03*
X108370000Y-246980000D03*
X200680000Y-145730000D03*
X200680000Y-148230000D03*
X148400000Y-243210000D03*
X148400000Y-245710000D03*
X271720000Y-286595000D03*
D17*
X281880000Y-286595000D03*
D21*
X158670000Y-307040000D03*
X161440000Y-307040000D03*
X164210000Y-307040000D03*
X166980000Y-307040000D03*
X169750000Y-307040000D03*
X160055000Y-309880000D03*
X162825000Y-309880000D03*
X165595000Y-309880000D03*
X168365000Y-309880000D03*
X158670000Y-313800000D03*
X161440000Y-313800000D03*
X164210000Y-313800000D03*
X166980000Y-313800000D03*
X169750000Y-313800000D03*
X160055000Y-316640000D03*
X162825000Y-316640000D03*
X165595000Y-316640000D03*
X168365000Y-316640000D03*
D51*
X176705000Y-308610000D03*
X176705000Y-316610000D03*
X151715000Y-316610000D03*
X151715000Y-308610000D03*
D21*
X116960000Y-307040000D03*
X119730000Y-307040000D03*
X122500000Y-307040000D03*
X125270000Y-307040000D03*
X128040000Y-307040000D03*
X118345000Y-309880000D03*
X121115000Y-309880000D03*
X123885000Y-309880000D03*
X126655000Y-309880000D03*
X116960000Y-313800000D03*
X119730000Y-313800000D03*
X122500000Y-313800000D03*
X125270000Y-313800000D03*
X128040000Y-313800000D03*
X118345000Y-316640000D03*
X121115000Y-316640000D03*
X123885000Y-316640000D03*
X126655000Y-316640000D03*
D51*
X143325000Y-308610000D03*
X143325000Y-316610000D03*
X110005000Y-316610000D03*
X110005000Y-308610000D03*
D21*
X130810000Y-307040000D03*
X133580000Y-307040000D03*
X136350000Y-307040000D03*
X129425000Y-309880000D03*
X132195000Y-309880000D03*
X134965000Y-309880000D03*
X130810000Y-313800000D03*
X133580000Y-313800000D03*
X136350000Y-313800000D03*
X129425000Y-316640000D03*
X132195000Y-316640000D03*
X134965000Y-316640000D03*
D13*
X234025000Y-267050000D03*
D17*
X236565000Y-267050000D03*
X239105000Y-267050000D03*
X241645000Y-267050000D03*
D24*
X158360000Y-271020000D03*
D25*
X155820000Y-271020000D03*
D24*
X158360000Y-273560000D03*
X155820000Y-273560000D03*
X158360000Y-276100000D03*
X155820000Y-276100000D03*
X158360000Y-278640000D03*
X155820000Y-278640000D03*
X158360000Y-281180000D03*
X155820000Y-281180000D03*
X158360000Y-283720000D03*
X155820000Y-283720000D03*
X158360000Y-286260000D03*
X155820000Y-286260000D03*
X158360000Y-288800000D03*
X155820000Y-288800000D03*
X263150000Y-298470000D03*
D25*
X263150000Y-295930000D03*
X373630000Y-182080000D03*
D24*
X373630000Y-184620000D03*
X400230000Y-184620000D03*
D25*
X400230000Y-182080000D03*
X403830000Y-182080000D03*
D24*
X403830000Y-184620000D03*
D52*
X414260000Y-116600000D03*
D53*
X417485000Y-116600000D03*
X416540419Y-118880419D03*
X414260000Y-119825000D03*
X411979581Y-118880419D03*
X411035000Y-116600000D03*
X411979581Y-114319581D03*
X414260000Y-113375000D03*
X416540419Y-114319581D03*
X100920419Y-114319581D03*
X98640000Y-113375000D03*
X96359581Y-114319581D03*
X95415000Y-116600000D03*
X96359581Y-118880419D03*
X98640000Y-119825000D03*
X100920419Y-118880419D03*
X101865000Y-116600000D03*
D52*
X98640000Y-116600000D03*
D53*
X416540419Y-314899581D03*
X414260000Y-313955000D03*
X411979581Y-314899581D03*
X411035000Y-317180000D03*
X411979581Y-319460419D03*
X414260000Y-320405000D03*
X416540419Y-319460419D03*
X417485000Y-317180000D03*
D52*
X414260000Y-317180000D03*
X99380000Y-317180000D03*
D53*
X102605000Y-317180000D03*
X101660419Y-319460419D03*
X99380000Y-320405000D03*
X97099581Y-319460419D03*
X96155000Y-317180000D03*
X97099581Y-314899581D03*
X99380000Y-313955000D03*
X101660419Y-314899581D03*
D54*
X163920000Y-123562540D03*
X158840000Y-123562540D03*
M02*
