M48
INCH,TZ
T1C0.0157
T2C0.0236
T3C0.0295
T4C0.0315
T5C0.0315
T6C0.0350
T7C0.0354
T8C0.0390
T9C0.0394
T10C0.0402
T11C0.0433
T12C0.0469
T13C0.0472
T14C0.0512
T15C0.0591
T16C0.0630
T17C0.0728
T18C0.0866
T19C0.1181
T20C0.1260
T21C0.1378
T22C0.1693
%
G90
G05
T1
X38189Y-43858
X38189Y-48583
X38189Y-50945
X38189Y-60394
X38189Y-62756
X38189Y-67480
X38189Y-69843
X38189Y-72205
X38189Y-81654
X38189Y-84016
X38189Y-86378
X38189Y-88740
X38189Y-91102
X38189Y-93465
X38189Y-102913
X38189Y-105276
X38189Y-107638
X38189Y-110000
X38189Y-112362
X40551Y-43858
X40551Y-48583
X40551Y-50945
X40551Y-62756
X40551Y-65118
X40551Y-67480
X40551Y-69843
X40551Y-72205
X40551Y-84016
X40551Y-86378
X40551Y-88740
X40551Y-91102
X40551Y-93465
X40551Y-105472
X40551Y-107638
X40551Y-110000
X40551Y-112362
X42913Y-43858
X42913Y-46220
X42913Y-48583
X42913Y-50945
X42913Y-65118
X42913Y-67480
X42913Y-69843
X42913Y-72205
X42913Y-74567
X42913Y-86378
X42913Y-88740
X42913Y-91102
X42913Y-93465
X42913Y-95827
X42913Y-110000
X42913Y-112362
X45276Y-43858
X45276Y-46220
X45276Y-48583
X45276Y-50945
X45276Y-65118
X45276Y-67480
X45276Y-72205
X45276Y-74567
X45276Y-88740
X45276Y-93465
X45276Y-95827
X45276Y-110000
X45276Y-112362
X47638Y-43858
X47638Y-46220
X47638Y-48583
X47638Y-50945
X47638Y-60394
X47638Y-62756
X47638Y-65118
X47638Y-67480
X47638Y-69843
X47638Y-72205
X47638Y-74567
X47638Y-76929
X47638Y-79291
X47638Y-81654
X47638Y-84016
X47638Y-86378
X47638Y-88740
X47638Y-91102
X47638Y-93465
X47638Y-95827
X47638Y-105276
X47638Y-107638
X47638Y-110000
X47638Y-112362
X50000Y-43858
X50000Y-46220
X50000Y-48583
X50000Y-50945
X50000Y-65118
X50000Y-67480
X50000Y-69843
X50000Y-72205
X50000Y-88740
X50000Y-91102
X50000Y-93465
X50000Y-95827
X50000Y-105276
X50000Y-107638
X50000Y-110000
X50000Y-112362
X52362Y-43858
X52362Y-46220
X52362Y-48583
X52362Y-50945
X52362Y-53307
X52362Y-55669
X52362Y-60394
X52362Y-62756
X52362Y-65118
X52362Y-67480
X52362Y-69843
X52362Y-72205
X52362Y-88740
X52362Y-91102
X52362Y-93465
X52362Y-95827
X52362Y-98189
X52362Y-100551
X52362Y-105276
X52362Y-107638
X52362Y-110000
X52362Y-112362
X52598Y-74567
X52598Y-76929
X52598Y-79291
X54724Y-43858
X54724Y-46220
X54724Y-48583
X54724Y-50945
X54724Y-62756
X54724Y-65118
X54724Y-67480
X54724Y-69843
X54724Y-72205
X54724Y-79291
X54724Y-88740
X54724Y-91102
X54724Y-93465
X54724Y-95827
X54724Y-107638
X54724Y-110000
X54843Y-58031
X54843Y-60394
X54843Y-81654
X54843Y-84016
X54843Y-86378
X54921Y-102913
X54921Y-105276
X57087Y-43858
X57087Y-46220
X57087Y-48583
X57087Y-50945
X57087Y-62756
X57087Y-65118
X57087Y-67480
X57087Y-69843
X57087Y-72205
X57087Y-79291
X57087Y-81654
X57087Y-84016
X57087Y-86378
X57087Y-88740
X57087Y-91102
X57087Y-93465
X57087Y-95827
X57087Y-102913
X57087Y-105276
X57087Y-107638
X59449Y-43858
X59449Y-50945
X59449Y-53307
X59449Y-55669
X59449Y-65118
X59449Y-67480
X59449Y-69843
X59449Y-72205
X59449Y-74567
X59449Y-76929
X59449Y-79291
X59449Y-88740
X59449Y-91102
X59449Y-93465
X59449Y-95827
X59449Y-98189
X59449Y-100551
X61811Y-43858
X61811Y-46220
X61811Y-50945
X61811Y-53307
X61811Y-55669
X61811Y-69843
X61811Y-72205
X61811Y-74567
X61811Y-76929
X61811Y-79291
X61811Y-91102
X61811Y-93465
X61811Y-95827
X61811Y-98189
X61811Y-100551
X64173Y-43858
X64173Y-46220
X64173Y-50945
X64173Y-53307
X64173Y-55669
X64173Y-58031
X64173Y-72205
X64173Y-74567
X64173Y-76929
X64173Y-79291
X64173Y-93465
X64173Y-95827
X64173Y-98189
X64173Y-100551
X66417Y-48583
X66535Y-46220
X66535Y-50945
X66535Y-55669
X66535Y-58031
X66535Y-65118
X66535Y-67480
X66535Y-69843
X66535Y-72205
X66535Y-76929
X66535Y-79291
X66535Y-86378
X66535Y-88740
X66535Y-91102
X66535Y-93465
X66535Y-95827
X66535Y-98189
X66535Y-100551
X68898Y-43858
X68898Y-46220
X68898Y-53307
X68898Y-55669
X68898Y-58031
X68898Y-60394
X68898Y-62756
X68898Y-65118
X68898Y-67480
X68898Y-69843
X68898Y-72205
X68898Y-74567
X68898Y-76929
X68898Y-79291
X68898Y-81654
X68898Y-84016
X68898Y-86378
X68898Y-88740
X68898Y-91102
X68898Y-93465
X68898Y-95827
X68898Y-98189
X68898Y-100551
X70728Y-111709
X71260Y-46220
X71260Y-50945
X71260Y-53307
X71260Y-55669
X71260Y-57874
X71260Y-72205
X71260Y-74567
X71260Y-76929
X71260Y-79291
X71260Y-93465
X71260Y-95827
X71260Y-98189
X72823Y-108669
X73504Y-81654
X73504Y-84016
X73543Y-60394
X73622Y-43858
X73622Y-46220
X73622Y-48583
X73622Y-50945
X73622Y-53307
X73622Y-55669
X73622Y-57874
X73622Y-62756
X73622Y-72205
X73622Y-74567
X73622Y-76929
X73622Y-79291
X73622Y-93465
X73622Y-95827
X74803Y-81102
X74803Y-81890
X74803Y-82677
X75591Y-81102
X75591Y-81890
X75591Y-82677
X75591Y-83465
X75984Y-43858
X75984Y-46220
X75984Y-48583
X75984Y-50945
X75984Y-53307
X75984Y-55669
X75984Y-57874
X75984Y-62756
X75984Y-65118
X75984Y-67480
X75984Y-69843
X75984Y-72205
X75984Y-74567
X75984Y-76929
X75984Y-79291
X75984Y-86378
X75984Y-88740
X75984Y-91102
X75984Y-93465
X76378Y-81102
X76378Y-81890
X76378Y-82677
X76378Y-83465
X77165Y-81102
X77165Y-81890
X77165Y-82677
X77165Y-83465
X77953Y-81102
X77953Y-81890
X77953Y-82677
X77953Y-83465
X78346Y-43858
X78346Y-46220
X78346Y-48583
X78346Y-50945
X78346Y-53307
X78346Y-55669
X78346Y-57874
X78346Y-62756
X78346Y-65118
X78346Y-67480
X78346Y-69843
X78346Y-72205
X78346Y-74567
X78346Y-76929
X78346Y-79291
X78346Y-86378
X78740Y-81102
X78740Y-81890
X78740Y-82677
X78740Y-83465
X81319Y-124445
X91929Y-87815
X92220Y-88110
X92618Y-102717
X92642Y-88406
X93047Y-88724
X93657Y-102228
X94803Y-90906
X98862Y-91591
X99689Y-91846
X100520Y-91921
X101531Y-63425
X102197Y-90677
X107346Y-94654
X107406Y-92626
X107579Y-93866
X108185Y-54114
X109189Y-54130
X109508Y-92492
X109516Y-107441
X110165Y-54138
X112138Y-54138
X113126Y-54150
X114059Y-54126
X114669Y-106169
X114961Y-105717
X115181Y-90677
X116087Y-91020
X120827Y-98512
X120854Y-96953
X120961Y-97866
X124165Y-46791
X134858Y-83323
X135291Y-89965
X135295Y-77512
X135295Y-113055
X135303Y-95902
X135366Y-107075
X135437Y-102122
X137492Y-55118
X137850Y-46453
X144594Y-49539
T2
X37565Y-45906
X37937Y-45008
X37937Y-46803
X38835Y-44636
X38835Y-47175
X39732Y-45008
X39732Y-46803
X40104Y-45906
X161825Y-45906
X162197Y-45008
X162197Y-46803
X163094Y-44636
X163094Y-47175
X163992Y-45008
X163992Y-46803
X164364Y-45906
X37856Y-124874
X38228Y-123976
X38228Y-125772
X39126Y-123604
X39126Y-126144
X40024Y-123976
X40024Y-125772
X40396Y-124874
X161825Y-124874
X162197Y-123976
X162197Y-125772
X163094Y-123604
X163094Y-126144
X163992Y-123976
X163992Y-125772
X164364Y-124874
T3
X120319Y-59244
X120819Y-59244
X121319Y-59244
X85644Y-117459
X85644Y-117959
X85644Y-118459
T4
X46307Y-79372
X50307Y-79372
X66929Y-62992
X70929Y-62992
X42665Y-97236
X42665Y-98220
X143673Y-63094
X143673Y-67094
X76449Y-79173
X76449Y-80551
X136091Y-73937
X137075Y-73937
X120327Y-84453
X121311Y-84453
X136091Y-115941
X137075Y-115941
X161079Y-79945
X162063Y-79945
X83063Y-49866
X83063Y-53866
X127264Y-83413
X128248Y-83413
X98862Y-48854
X98862Y-52854
X89500Y-79315
X89500Y-80315
X89500Y-81315
X89500Y-82315
X89500Y-83315
X89500Y-84315
X89500Y-85315
X89500Y-86315
X89500Y-87315
X89500Y-88315
X89500Y-89315
X90500Y-78315
X90500Y-79315
X90500Y-80315
X90500Y-81315
X90500Y-82315
X90500Y-83315
X90500Y-84315
X90500Y-85315
X90500Y-86315
X90500Y-87315
X90500Y-88315
X90500Y-89315
X90500Y-90315
X91500Y-78315
X91500Y-79315
X91500Y-89315
X91500Y-90315
X92500Y-78315
X92500Y-79315
X92500Y-89315
X92500Y-90315
X93500Y-78315
X93500Y-79315
X93500Y-89315
X93500Y-90315
X94500Y-78315
X94500Y-79315
X94500Y-89315
X94500Y-90315
X95500Y-78315
X95500Y-79315
X95500Y-89315
X95500Y-90315
X96500Y-78315
X96500Y-79315
X96500Y-89315
X96500Y-90315
X97500Y-78315
X97500Y-79315
X97500Y-89315
X97500Y-90315
X98500Y-78315
X98500Y-79315
X98500Y-89315
X98500Y-90315
X99500Y-78315
X99500Y-79315
X99500Y-89315
X99500Y-90315
X100500Y-78315
X100500Y-79315
X100500Y-80315
X100500Y-81315
X100500Y-82315
X100500Y-83315
X100500Y-84315
X100500Y-85315
X100500Y-86315
X100500Y-87315
X100500Y-88315
X100500Y-89315
X100500Y-90315
X101500Y-79315
X101500Y-80315
X101500Y-81315
X101500Y-82315
X101500Y-83315
X101500Y-84315
X101500Y-85315
X101500Y-86315
X101500Y-87315
X101500Y-88315
X101500Y-89315
X91602Y-122283
X95602Y-122283
X86240Y-84606
X86240Y-88606
X127264Y-55760
X128248Y-55760
X92217Y-67016
X92217Y-71016
X66937Y-83799
X70937Y-83799
X106976Y-112833
X110976Y-112833
X142138Y-50276
X142138Y-54276
X40106Y-95563
X40106Y-96941
X83717Y-111693
X83717Y-112677
X93110Y-114028
X94094Y-114028
X136091Y-85933
X137075Y-85933
X123866Y-101858
X123866Y-105858
X145815Y-46055
X149815Y-46055
X83618Y-106677
X83618Y-110677
X89677Y-75051
X93677Y-75051
X112382Y-74984
X112382Y-75984
X112382Y-76984
X112382Y-77984
X112382Y-78984
X112382Y-79984
X112382Y-80984
X112382Y-81984
X115382Y-74984
X115382Y-75984
X115382Y-76984
X115382Y-77984
X115382Y-78984
X115382Y-79984
X115382Y-80984
X115382Y-81984
X95760Y-67016
X95760Y-71016
X103488Y-85315
X103488Y-86299
X92136Y-105138
X93136Y-105138
X94136Y-105138
X95136Y-105138
X86213Y-114106
X87197Y-114106
X133193Y-64087
X133193Y-65087
X133193Y-66087
X133193Y-67087
X133193Y-68087
X133193Y-69087
X133193Y-70087
X133193Y-71087
X136193Y-64087
X136193Y-65087
X136193Y-66087
X136193Y-67087
X136193Y-68087
X136193Y-69087
X136193Y-70087
X136193Y-71087
X152335Y-50276
X152335Y-54276
X127264Y-62559
X128248Y-62559
X162965Y-59220
X162965Y-63220
X97571Y-108677
X97571Y-112677
X113390Y-115146
X114374Y-115146
X83878Y-84606
X83878Y-88606
X55866Y-95559
X55866Y-96937
X105976Y-92305
X105976Y-93305
X105976Y-94305
X105976Y-95305
X105976Y-96305
X105976Y-97305
X105976Y-98305
X105976Y-99305
X105976Y-100305
X105976Y-101305
X105976Y-102305
X105976Y-103305
X105976Y-104305
X105976Y-105305
X105976Y-106305
X105976Y-107305
X105976Y-108305
X105976Y-109305
X105976Y-110305
X105976Y-111305
X111976Y-92305
X111976Y-93305
X111976Y-94305
X111976Y-95305
X111976Y-96305
X111976Y-97305
X111976Y-98305
X111976Y-99305
X111976Y-100305
X111976Y-101305
X111976Y-102305
X111976Y-103305
X111976Y-104305
X111976Y-105305
X111976Y-106305
X111976Y-107305
X111976Y-108305
X111976Y-109305
X111976Y-110305
X111976Y-111305
X86606Y-49866
X86606Y-53866
X60701Y-79173
X60701Y-80551
X73020Y-114457
X74004Y-114457
X126256Y-47291
X126256Y-48291
X126256Y-49291
X126256Y-50291
X126256Y-51291
X126256Y-52291
X126256Y-53291
X129256Y-47291
X129256Y-48291
X129256Y-49291
X129256Y-50291
X129256Y-51291
X129256Y-52291
X129256Y-53291
X155878Y-50276
X155878Y-54276
X58413Y-51795
X58413Y-52780
X161783Y-51740
X161783Y-55740
X133193Y-57189
X133193Y-58189
X133193Y-59189
X133193Y-60189
X136193Y-57189
X136193Y-58189
X136193Y-59189
X136193Y-60189
X161079Y-91941
X162063Y-91941
X127264Y-54728
X128248Y-54728
X84244Y-49866
X84244Y-53866
X127264Y-104209
X128248Y-104209
X147217Y-63094
X147217Y-67094
X144933Y-53268
X144933Y-54252
X85165Y-106677
X85165Y-107677
X85165Y-108677
X85165Y-109677
X85165Y-110677
X85165Y-111677
X85165Y-112677
X88165Y-106677
X88165Y-107677
X88165Y-108677
X88165Y-109677
X88165Y-110677
X88165Y-111677
X88165Y-112677
X124709Y-56689
X124709Y-60689
X93602Y-96780
X93602Y-100780
X126256Y-106677
X126256Y-107677
X126256Y-108677
X126256Y-109677
X126256Y-110677
X126256Y-111677
X126256Y-112677
X129256Y-106677
X129256Y-107677
X129256Y-108677
X129256Y-109677
X129256Y-110677
X129256Y-111677
X129256Y-112677
X99039Y-106677
X99039Y-107677
X99039Y-108677
X99039Y-109677
X99039Y-110677
X99039Y-111677
X99039Y-112677
X102039Y-106677
X102039Y-107677
X102039Y-108677
X102039Y-109677
X102039Y-110677
X102039Y-111677
X102039Y-112677
X125756Y-94252
X129756Y-94252
X46343Y-78191
X50343Y-78191
X66937Y-61811
X70937Y-61811
X63260Y-58850
X63260Y-59835
X142492Y-63094
X142492Y-67094
X105531Y-116500
X105531Y-119500
X108531Y-116500
X108531Y-119500
X55854Y-51559
X55854Y-52937
X136091Y-103937
X137075Y-103937
X136091Y-91941
X137075Y-91941
X161079Y-103933
X162063Y-103933
X96650Y-116075
X96650Y-120075
X113390Y-83413
X114374Y-83413
X97681Y-48854
X97681Y-52854
X97831Y-116075
X97831Y-120075
X87421Y-84606
X87421Y-88606
X85681Y-65634
X87650Y-65634
X91035Y-67016
X91035Y-71016
X46307Y-57374
X50307Y-57374
X58425Y-95752
X58425Y-96736
X146035Y-63094
X146035Y-67094
X63260Y-80846
X63260Y-81831
X60701Y-57177
X60701Y-58555
X90654Y-111693
X90654Y-112677
X100047Y-114106
X101031Y-114106
X136091Y-97937
X137075Y-97937
X83531Y-60476
X83531Y-64476
X131646Y-48374
X131646Y-52374
X85165Y-68004
X85165Y-69004
X85165Y-70004
X85165Y-71004
X85165Y-72004
X85165Y-73004
X85165Y-74004
X88165Y-68004
X88165Y-69004
X88165Y-70004
X88165Y-71004
X88165Y-72004
X88165Y-73004
X88165Y-74004
X89713Y-106677
X89713Y-110677
X89677Y-76232
X93677Y-76232
X89634Y-101795
X89634Y-102780
X119319Y-74984
X119319Y-75984
X119319Y-76984
X119319Y-77984
X119319Y-78984
X119319Y-79984
X119319Y-80984
X119319Y-81984
X122319Y-74984
X122319Y-75984
X122319Y-76984
X122319Y-77984
X122319Y-78984
X122319Y-79984
X122319Y-80984
X122319Y-81984
X94579Y-67016
X94579Y-71016
X103488Y-82315
X103488Y-83299
X46343Y-100189
X50343Y-100189
X89634Y-111693
X89634Y-112677
X151154Y-50276
X151154Y-54276
X82693Y-101795
X82693Y-102780
X134201Y-54728
X135185Y-54728
X162965Y-51740
X162965Y-55740
X83618Y-96780
X83618Y-100780
X66240Y-106677
X66240Y-107677
X66240Y-108677
X66240Y-109677
X66240Y-110677
X66240Y-111677
X66240Y-112677
X66240Y-113677
X69240Y-106677
X69240Y-107677
X69240Y-108677
X69240Y-109677
X69240Y-110677
X69240Y-111677
X69240Y-112677
X69240Y-113677
X85059Y-84606
X85059Y-88606
X76449Y-57177
X76449Y-58555
X126256Y-74984
X126256Y-75984
X126256Y-76984
X126256Y-77984
X126256Y-78984
X126256Y-79984
X126256Y-80984
X126256Y-81984
X129256Y-74984
X129256Y-75984
X129256Y-76984
X129256Y-77984
X129256Y-78984
X129256Y-79984
X129256Y-80984
X129256Y-81984
X98122Y-67016
X98122Y-71016
X40106Y-51567
X40106Y-52945
X119319Y-47291
X119319Y-48291
X119319Y-49291
X119319Y-50291
X119319Y-51291
X119319Y-52291
X119319Y-53291
X122319Y-47291
X122319Y-48291
X122319Y-49291
X122319Y-50291
X122319Y-51291
X122319Y-52291
X122319Y-53291
X119319Y-64087
X119319Y-65087
X119319Y-66087
X119319Y-67087
X119319Y-68087
X119319Y-69087
X119319Y-70087
X119319Y-71087
X122319Y-64087
X122319Y-65087
X122319Y-66087
X122319Y-67087
X122319Y-68087
X122319Y-69087
X122319Y-70087
X122319Y-71087
X154697Y-50276
X154697Y-54276
X42665Y-75238
X42665Y-76222
X153295Y-47236
X157295Y-47236
X138555Y-55685
X138555Y-61685
X139555Y-55685
X139555Y-61685
X140555Y-55685
X140555Y-61685
X141555Y-55685
X141555Y-61685
X142555Y-55685
X142555Y-61685
X143555Y-55685
X143555Y-61685
X144555Y-55685
X144555Y-61685
X145555Y-55685
X145555Y-61685
X146555Y-55685
X146555Y-61685
X147555Y-55685
X147555Y-61685
X148555Y-55685
X148555Y-61685
X149555Y-55685
X149555Y-61685
X150555Y-55685
X150555Y-61685
X151555Y-55685
X151555Y-61685
X152555Y-55685
X152555Y-61685
X153555Y-55685
X153555Y-61685
X154555Y-55685
X154555Y-61685
X155555Y-55685
X155555Y-61685
X156555Y-55685
X156555Y-61685
X157555Y-55685
X157555Y-61685
X120329Y-54724
X121313Y-54724
X130803Y-56689
X130803Y-60689
X127264Y-105248
X128248Y-105248
X155175Y-123246
X159175Y-123246
X148831Y-63079
X148831Y-64063
X99039Y-95780
X99039Y-96780
X99039Y-97780
X99039Y-98780
X99039Y-99780
X99039Y-100780
X99039Y-101780
X99039Y-102780
X102039Y-95780
X102039Y-96780
X102039Y-97780
X102039Y-98780
X102039Y-99780
X102039Y-100780
X102039Y-101780
X102039Y-102780
X85425Y-49866
X85425Y-53866
X92421Y-96780
X92421Y-100780
X112382Y-116575
X112382Y-117575
X112382Y-118575
X112382Y-119575
X112382Y-120575
X112382Y-121575
X112382Y-122575
X115382Y-116575
X115382Y-117575
X115382Y-118575
X115382Y-119575
X115382Y-120575
X115382Y-121575
X115382Y-122575
X133193Y-47291
X133193Y-48291
X133193Y-49291
X133193Y-50291
X133193Y-51291
X133193Y-52291
X133193Y-53291
X136193Y-47291
X136193Y-48291
X136193Y-49291
X136193Y-50291
X136193Y-51291
X136193Y-52291
X136193Y-53291
X106606Y-120902
X107591Y-120902
X126256Y-64087
X126256Y-65087
X126256Y-66087
X126256Y-67087
X126256Y-68087
X126256Y-69087
X126256Y-70087
X126256Y-71087
X129256Y-64087
X129256Y-65087
X129256Y-66087
X129256Y-67087
X129256Y-68087
X129256Y-69087
X129256Y-70087
X129256Y-71087
X158240Y-50276
X158240Y-54276
X46307Y-101370
X50307Y-101370
X58413Y-73762
X58413Y-74746
X97492Y-96780
X97492Y-100780
X136091Y-109933
X137075Y-109933
X161079Y-115941
X162063Y-115941
X161079Y-109941
X162063Y-109941
X89374Y-116075
X89374Y-120075
X127264Y-115146
X128248Y-115146
X100043Y-48854
X100043Y-52854
X97591Y-106677
X97591Y-107661
X91602Y-115126
X95602Y-115126
X95965Y-96780
X95965Y-100780
X85165Y-61106
X85165Y-62106
X85165Y-63106
X85165Y-64106
X88165Y-61106
X88165Y-62106
X88165Y-63106
X88165Y-64106
X97047Y-57205
X97047Y-58189
X89854Y-67016
X89854Y-71016
X85165Y-96780
X85165Y-97780
X85165Y-98780
X85165Y-99780
X85165Y-100780
X85165Y-101780
X85165Y-102780
X88165Y-96780
X88165Y-97780
X88165Y-98780
X88165Y-99780
X88165Y-100780
X88165Y-101780
X88165Y-102780
X46343Y-56193
X50343Y-56193
X113535Y-106285
X113535Y-107285
X113535Y-108285
X113535Y-109285
X113535Y-110285
X113535Y-111285
X79008Y-57374
X79008Y-58358
X92102Y-116575
X92102Y-117575
X92102Y-118575
X92102Y-119575
X95102Y-116575
X95102Y-117575
X95102Y-118575
X95102Y-119575
X144854Y-63094
X144854Y-67094
X42665Y-53240
X42665Y-54224
X55854Y-73565
X55854Y-74943
X97591Y-101795
X97591Y-102780
X127264Y-84453
X128248Y-84453
X136091Y-79941
X137075Y-79941
X161079Y-85941
X162063Y-85941
X82339Y-60476
X82339Y-64476
X106976Y-114014
X110976Y-114014
X119319Y-85882
X119319Y-86882
X119319Y-87882
X119319Y-88882
X119319Y-89882
X119319Y-90882
X119319Y-91882
X122319Y-85882
X122319Y-86882
X122319Y-87882
X122319Y-88882
X122319Y-89882
X122319Y-90882
X122319Y-91882
X91602Y-121102
X95602Y-121102
X124709Y-85882
X124709Y-89882
X82713Y-111693
X82713Y-112677
X93398Y-67016
X93398Y-71016
X123768Y-95858
X123768Y-96843
X66937Y-84980
X70937Y-84980
X83697Y-101795
X83697Y-102780
X143319Y-50276
X143319Y-54276
X90638Y-101795
X90638Y-102780
X100047Y-104209
X101031Y-104209
X153295Y-46055
X157295Y-46055
X89713Y-96780
X89713Y-100780
X92102Y-106677
X92102Y-107677
X92102Y-108677
X92102Y-109677
X92102Y-110677
X92102Y-111677
X92102Y-112677
X95102Y-106677
X95102Y-107677
X95102Y-108677
X95102Y-109677
X95102Y-110677
X95102Y-111677
X95102Y-112677
X89677Y-73870
X93677Y-73870
X96472Y-109177
X96472Y-112177
X119319Y-116575
X119319Y-117575
X119319Y-118575
X119319Y-119575
X119319Y-120575
X119319Y-121575
X119319Y-122575
X122319Y-116575
X122319Y-117575
X122319Y-118575
X122319Y-119575
X122319Y-120575
X122319Y-121575
X122319Y-122575
X96941Y-67016
X96941Y-71016
X95500Y-92299
X96484Y-92299
X97882Y-122335
X98866Y-122335
X86181Y-104209
X87165Y-104209
X153516Y-50276
X153516Y-54276
X134201Y-62736
X135185Y-62736
X145815Y-47236
X149815Y-47236
X86173Y-75437
X87157Y-75437
X75315Y-114457
X79315Y-114457
X120327Y-115146
X121311Y-115146
X82697Y-84606
X82697Y-88606
X110169Y-56469
X111154Y-56469
X126256Y-95780
X126256Y-96780
X126256Y-97780
X126256Y-98780
X126256Y-99780
X126256Y-100780
X126256Y-101780
X126256Y-102780
X129256Y-95780
X129256Y-96780
X129256Y-97780
X129256Y-98780
X129256Y-99780
X129256Y-100780
X129256Y-101780
X129256Y-102780
X87791Y-49866
X87791Y-53866
X40106Y-73565
X40106Y-74943
X91240Y-96780
X91240Y-100780
X113425Y-103321
X113425Y-104305
X126256Y-57189
X126256Y-58189
X126256Y-59189
X126256Y-60189
X129256Y-57189
X129256Y-58189
X129256Y-59189
X129256Y-60189
X157059Y-50276
X157059Y-54276
X79008Y-79370
X79008Y-80354
X161783Y-59220
X161783Y-63220
X126256Y-85882
X126256Y-86882
X126256Y-87882
X126256Y-88882
X126256Y-89882
X126256Y-90882
X126256Y-91882
X129256Y-85882
X129256Y-86882
X129256Y-87882
X129256Y-88882
X129256Y-89882
X129256Y-90882
X129256Y-91882
X161079Y-97937
X162063Y-97937
X161079Y-121941
X162063Y-121941
X110835Y-76484
X110835Y-80484
X120327Y-83413
X121311Y-83413
X96500Y-48854
X96500Y-52854
X133709Y-61638
X135677Y-61638
X126256Y-116575
X126256Y-117575
X126256Y-118575
X126256Y-119575
X126256Y-120575
X126256Y-121575
X126256Y-122575
X126256Y-123575
X129256Y-116575
X129256Y-117575
X129256Y-118575
X129256Y-119575
X129256Y-120575
X129256Y-121575
X129256Y-122575
X129256Y-123575
X90555Y-116075
X90555Y-120075
X94783Y-96780
X94783Y-100780
X90528Y-59606
X90528Y-65606
X91528Y-59606
X91528Y-65606
X92528Y-59606
X92528Y-65606
X93528Y-59606
X93528Y-65606
X94528Y-59606
X94528Y-65606
X95528Y-59606
X95528Y-65606
X96528Y-59606
X96528Y-65606
X97528Y-59606
X97528Y-65606
X98528Y-59606
X98528Y-65606
X99528Y-59606
X99528Y-65606
X100528Y-59606
X100528Y-65606
X101528Y-59606
X101528Y-65606
X102528Y-59606
X102528Y-65606
X103528Y-59606
X103528Y-65606
X104528Y-59606
X104528Y-65606
X105528Y-59606
X105528Y-65606
X106528Y-59606
X106528Y-65606
X107528Y-59606
X107528Y-65606
X108528Y-59606
X108528Y-65606
X109528Y-59606
X109528Y-65606
X100760Y-67016
X100760Y-68000
X99303Y-67016
X99303Y-71016
T5
X98988Y-57669
X100988Y-57669
X147004Y-53752
X149004Y-53752
T6
X156678Y-125632
X157678Y-125632
T7
X96913Y-46232
X96913Y-47217
X97740Y-46232
X98764Y-46232
X99591Y-46232
X99591Y-47217
T8
X148831Y-65559
X148831Y-67331
X151390Y-65559
X151390Y-67331
X165520Y-60325
X165520Y-62096
X100413Y-69701
X100413Y-71472
X102972Y-69701
X102972Y-71472
X146919Y-43500
X148691Y-43500
X165520Y-52844
X165520Y-54616
X154400Y-43500
X156171Y-43500
X139439Y-43500
X141211Y-43500
T9
X158988Y-71685
X158988Y-72685
X117787Y-85858
X117787Y-86858
X117787Y-87858
X81634Y-118291
X81634Y-119291
X63230Y-118287
X63230Y-119287
X91921Y-57071
X91921Y-58071
X85177Y-59209
X86177Y-59209
X87177Y-59209
X88177Y-59209
X48457Y-118287
X48457Y-119287
X60815Y-101803
X60815Y-102803
X61815Y-101803
X61815Y-102803
X62815Y-101803
X62815Y-102803
X63815Y-101803
X63815Y-102803
X64815Y-101803
X64815Y-102803
X65815Y-101803
X65815Y-102803
X66815Y-101803
X66815Y-102803
X67815Y-101803
X67815Y-102803
X68815Y-101803
X68815Y-102803
X69815Y-101803
X69815Y-102803
X61346Y-106701
X61346Y-107701
X61346Y-108701
X61346Y-109701
X61346Y-110701
X61346Y-111701
X61346Y-112701
X61346Y-113701
X62346Y-106701
X62346Y-107701
X62346Y-108701
X62346Y-109701
X62346Y-110701
X62346Y-111701
X62346Y-112701
X62346Y-113701
X49874Y-118287
X49874Y-119287
X157571Y-71685
X157571Y-72685
X94819Y-75248
X94819Y-76248
X81441Y-121894
X82441Y-121894
X113508Y-100285
X113508Y-101285
X100083Y-76248
X101083Y-76248
X102083Y-76248
X90504Y-57075
X90504Y-58075
X62535Y-48647
X64535Y-48647
X66065Y-118287
X66065Y-119287
X147098Y-71685
X147098Y-72685
X72000Y-121894
X73000Y-121894
X150555Y-63217
X151555Y-63217
X152555Y-63217
X153555Y-63217
X154555Y-63217
X155555Y-63217
X156555Y-63217
X157555Y-63217
X158555Y-63217
X96240Y-76248
X97240Y-76248
X98240Y-76248
X73000Y-118287
X73000Y-119287
X130787Y-96760
X130787Y-97760
X116079Y-95858
X116079Y-96858
X116079Y-97858
X116079Y-98858
X116079Y-99858
X116079Y-100858
X116079Y-101858
X116079Y-102858
X116079Y-103858
X116079Y-104858
X116079Y-105858
X116079Y-106858
X116079Y-107858
X116079Y-108858
X122079Y-95858
X122079Y-96858
X122079Y-97858
X122079Y-98858
X122079Y-99858
X122079Y-100858
X122079Y-101858
X122079Y-102858
X122079Y-103858
X122079Y-104858
X122079Y-105858
X122079Y-106858
X122079Y-107858
X122079Y-108858
X64648Y-118287
X64648Y-119287
X93339Y-57075
X93339Y-58075
X139272Y-51154
X139272Y-52154
X139272Y-53154
X139272Y-54154
X85661Y-121894
X86661Y-121894
X103602Y-116508
X103602Y-117508
X51291Y-118287
X51291Y-119287
T10
X137075Y-94000
X137083Y-95894
X138075Y-94000
X138083Y-95894
X139075Y-94000
X139083Y-95894
X140075Y-94000
X140083Y-95894
X141075Y-94000
X141083Y-95894
X142075Y-94000
X142083Y-95894
X143075Y-94000
X143083Y-95894
X144075Y-94000
X144083Y-95894
X145075Y-94000
X145083Y-95894
X146075Y-94000
X146083Y-95894
X147075Y-94000
X147083Y-95894
X148075Y-94000
X148083Y-95894
X149075Y-94000
X149083Y-95894
X150075Y-94000
X150083Y-95894
X151075Y-94000
X151083Y-95894
X152075Y-94000
X152083Y-95894
X153075Y-94000
X153083Y-95894
X154075Y-94000
X154083Y-95894
X155075Y-94000
X155083Y-95894
X156075Y-94000
X156083Y-95894
X157075Y-94000
X157083Y-95894
X158083Y-93984
X158083Y-95894
X159083Y-93984
X159083Y-95894
X160083Y-93984
X160083Y-95894
X161083Y-93984
X161083Y-95894
X137075Y-106000
X137083Y-107894
X138075Y-106000
X138083Y-107894
X139075Y-106000
X139083Y-107894
X140075Y-106000
X140083Y-107894
X141075Y-106000
X141083Y-107894
X142075Y-106000
X142083Y-107894
X143075Y-106000
X143083Y-107894
X144075Y-106000
X144083Y-107894
X145075Y-106000
X145083Y-107894
X146075Y-106000
X146083Y-107894
X147075Y-106000
X147083Y-107894
X148075Y-106000
X148083Y-107894
X149075Y-106000
X149083Y-107894
X150075Y-106000
X150083Y-107894
X151075Y-106000
X151083Y-107894
X152075Y-106000
X152083Y-107894
X153075Y-106000
X153083Y-107894
X154075Y-106000
X154083Y-107894
X155075Y-106000
X155083Y-107894
X156075Y-106000
X156083Y-107894
X157075Y-106000
X157083Y-107894
X158083Y-105984
X158083Y-107894
X159083Y-105984
X159083Y-107894
X160083Y-105984
X160083Y-107894
X161083Y-105984
X161083Y-107894
X137075Y-118000
X137083Y-119894
X138075Y-118000
X138083Y-119894
X139075Y-118000
X139083Y-119894
X140075Y-118000
X140083Y-119894
X141075Y-118000
X141083Y-119894
X142075Y-118000
X142083Y-119894
X143075Y-118000
X143083Y-119894
X144075Y-118000
X144083Y-119894
X145075Y-118000
X145083Y-119894
X146075Y-118000
X146083Y-119894
X147075Y-118000
X147083Y-119894
X148075Y-118000
X148083Y-119894
X149075Y-118000
X149083Y-119894
X150075Y-118000
X150083Y-119894
X151075Y-118000
X151083Y-119894
X152075Y-118000
X152083Y-119894
X153075Y-118000
X153083Y-119894
X154075Y-118000
X154083Y-119894
X155075Y-118000
X155083Y-119894
X156075Y-118000
X156083Y-119894
X157075Y-118000
X157083Y-119894
X158083Y-117984
X158083Y-119894
X159083Y-117984
X159083Y-119894
X160083Y-117984
X160083Y-119894
X161083Y-117984
X161083Y-119894
X137075Y-76000
X137083Y-77894
X138075Y-76000
X138083Y-77894
X139075Y-76000
X139083Y-77894
X140075Y-76000
X140083Y-77894
X141075Y-76000
X141083Y-77894
X142075Y-76000
X142083Y-77894
X143075Y-76000
X143083Y-77894
X144075Y-76000
X144083Y-77894
X145075Y-76000
X145083Y-77894
X146075Y-76000
X146083Y-77894
X147075Y-76000
X147083Y-77894
X148075Y-76000
X148083Y-77894
X149075Y-76000
X149083Y-77894
X150075Y-76000
X150083Y-77894
X151075Y-76000
X151083Y-77894
X152075Y-76000
X152083Y-77894
X153075Y-76000
X153083Y-77894
X154075Y-76000
X154083Y-77894
X155075Y-76000
X155083Y-77894
X156075Y-76000
X156083Y-77894
X157075Y-76000
X157083Y-77894
X158083Y-75984
X158083Y-77894
X159083Y-75984
X159083Y-77894
X160083Y-75984
X160083Y-77894
X161083Y-75984
X161083Y-77894
X137075Y-88000
X137083Y-89894
X138075Y-88000
X138083Y-89894
X139075Y-88000
X139083Y-89894
X140075Y-88000
X140083Y-89894
X141075Y-88000
X141083Y-89894
X142075Y-88000
X142083Y-89894
X143075Y-88000
X143083Y-89894
X144075Y-88000
X144083Y-89894
X145075Y-88000
X145083Y-89894
X146075Y-88000
X146083Y-89894
X147075Y-88000
X147083Y-89894
X148075Y-88000
X148083Y-89894
X149075Y-88000
X149083Y-89894
X150075Y-88000
X150083Y-89894
X151075Y-88000
X151083Y-89894
X152075Y-88000
X152083Y-89894
X153075Y-88000
X153083Y-89894
X154075Y-88000
X154083Y-89894
X155075Y-88000
X155083Y-89894
X156075Y-88000
X156083Y-89894
X157075Y-88000
X157083Y-89894
X158083Y-87984
X158083Y-89894
X159083Y-87984
X159083Y-89894
X160083Y-87984
X160083Y-89894
X161083Y-87984
X161083Y-89894
X137075Y-100000
X137083Y-101894
X138075Y-100000
X138083Y-101894
X139075Y-100000
X139083Y-101894
X140075Y-100000
X140083Y-101894
X141075Y-100000
X141083Y-101894
X142075Y-100000
X142083Y-101894
X143075Y-100000
X143083Y-101894
X144075Y-100000
X144083Y-101894
X145075Y-100000
X145083Y-101894
X146075Y-100000
X146083Y-101894
X147075Y-100000
X147083Y-101894
X148075Y-100000
X148083Y-101894
X149075Y-100000
X149083Y-101894
X150075Y-100000
X150083Y-101894
X151075Y-100000
X151083Y-101894
X152075Y-100000
X152083Y-101894
X153075Y-100000
X153083Y-101894
X154075Y-100000
X154083Y-101894
X155075Y-100000
X155083Y-101894
X156075Y-100000
X156083Y-101894
X157075Y-100000
X157083Y-101894
X158083Y-99984
X158083Y-101894
X159083Y-99984
X159083Y-101894
X160083Y-99984
X160083Y-101894
X161083Y-99984
X161083Y-101894
X137075Y-112000
X137083Y-113894
X138075Y-112000
X138083Y-113894
X139075Y-112000
X139083Y-113894
X140075Y-112000
X140083Y-113894
X141075Y-112000
X141083Y-113894
X142075Y-112000
X142083Y-113894
X143075Y-112000
X143083Y-113894
X144075Y-112000
X144083Y-113894
X145075Y-112000
X145083Y-113894
X146075Y-112000
X146083Y-113894
X147075Y-112000
X147083Y-113894
X148075Y-112000
X148083Y-113894
X149075Y-112000
X149083Y-113894
X150075Y-112000
X150083Y-113894
X151075Y-112000
X151083Y-113894
X152075Y-112000
X152083Y-113894
X153075Y-112000
X153083Y-113894
X154075Y-112000
X154083Y-113894
X155075Y-112000
X155083Y-113894
X156075Y-112000
X156083Y-113894
X157075Y-112000
X157083Y-113894
X158083Y-111984
X158083Y-113894
X159083Y-111984
X159083Y-113894
X160083Y-111984
X160083Y-113894
X161083Y-111984
X161083Y-113894
X137075Y-82000
X137083Y-83894
X138075Y-82000
X138083Y-83894
X139075Y-82000
X139083Y-83894
X140075Y-82000
X140083Y-83894
X141075Y-82000
X141083Y-83894
X142075Y-82000
X142083Y-83894
X143075Y-82000
X143083Y-83894
X144075Y-82000
X144083Y-83894
X145075Y-82000
X145083Y-83894
X146075Y-82000
X146083Y-83894
X147075Y-82000
X147083Y-83894
X148075Y-82000
X148083Y-83894
X149075Y-82000
X149083Y-83894
X150075Y-82000
X150083Y-83894
X151075Y-82000
X151083Y-83894
X152075Y-82000
X152083Y-83894
X153075Y-82000
X153083Y-83894
X154075Y-82000
X154083Y-83894
X155075Y-82000
X155083Y-83894
X156075Y-82000
X156083Y-83894
X157075Y-82000
X157083Y-83894
X158083Y-81984
X158083Y-83894
X159083Y-81984
X159083Y-83894
X160083Y-81984
X160083Y-83894
X161083Y-81984
X161083Y-83894
T11
X83051Y-123516
X84051Y-123516
X85051Y-123516
X46047Y-120882
X46047Y-123543
X46593Y-122000
X46593Y-124661
X47138Y-120882
X47138Y-123543
X47683Y-122000
X47683Y-124661
X48228Y-120882
X48228Y-123543
X48774Y-122000
X48774Y-124661
X49319Y-120882
X49319Y-123543
X49864Y-122000
X49864Y-124661
X50409Y-120882
X50409Y-123543
X50955Y-122000
X50955Y-124661
X51500Y-120882
X51500Y-123543
X52045Y-122000
X52045Y-124661
X52591Y-120882
X52591Y-123543
X53136Y-122000
X53136Y-124661
X53681Y-120882
X53681Y-123543
X62469Y-120882
X62469Y-123543
X63014Y-122000
X63014Y-124661
X63559Y-120882
X63559Y-123543
X64104Y-122000
X64104Y-124661
X64650Y-120882
X64650Y-123543
X65195Y-122000
X65195Y-124661
X65740Y-120882
X65740Y-123543
X66285Y-122000
X66285Y-124661
X66831Y-120882
X66831Y-123543
T12
X83280Y-47398
X83728Y-46398
X83728Y-48398
X84177Y-47398
X84626Y-46398
X84626Y-48398
X85075Y-47398
X85524Y-46398
X85524Y-48398
X85972Y-47398
X86421Y-46398
X86421Y-48398
X86870Y-47398
X87319Y-46398
X87319Y-48398
T13
X44240Y-54224
X44909Y-54224
X45579Y-54224
X46248Y-54224
X46917Y-54224
X64835Y-59835
X65504Y-59835
X66173Y-59835
X66843Y-59835
X67512Y-59835
X44240Y-76222
X44909Y-76222
X45579Y-76222
X46248Y-76222
X46917Y-76222
X50925Y-51272
X50925Y-53240
X50933Y-73270
X50933Y-75238
X71528Y-56882
X71528Y-58850
X64835Y-81831
X65504Y-81831
X66173Y-81831
X66843Y-81831
X67512Y-81831
X50941Y-95276
X50941Y-97244
X44240Y-98220
X44909Y-98220
X45579Y-98220
X46248Y-98220
X46917Y-98220
X71528Y-78878
X71528Y-80846
X75819Y-118795
X78811Y-118795
T14
X146425Y-44480
X149185Y-44480
X164539Y-52350
X164539Y-55110
X153906Y-44480
X156665Y-44480
X138945Y-44480
X141705Y-44480
X164539Y-59831
X164539Y-62591
T15
X75366Y-124146
X76350Y-124146
X77335Y-126114
X78319Y-124146
X79303Y-124146
X91831Y-124146
X92815Y-124146
X93799Y-126114
X94783Y-124146
X95768Y-124146
X97941Y-124146
X98925Y-124146
X99909Y-126114
X100894Y-124146
X101878Y-124146
T16
X65213Y-62362
X38661Y-78781
X44661Y-78781
X59213Y-84409
X65213Y-84409
X38646Y-100780
X44646Y-100780
X38661Y-56783
X44661Y-56783
X59213Y-62362
T17
X66305Y-44173
X67055Y-47925
X68906Y-47925
X70756Y-47925
X71506Y-44173
T18
X95594Y-45051
X98252Y-44736
X100909Y-45051
T19
X56906Y-47471
X58756Y-46290
T20
X80504Y-47398
X90343Y-47398
X43309Y-121500
X43309Y-124650
X56427Y-121500
X56427Y-124650
X59730Y-121500
X59730Y-124650
X69569Y-121500
X69569Y-124650
T21
X58756Y-48652
T22
X39126Y-124874
X163094Y-124874
X38835Y-45906
X163094Y-45906
T0
M30
