M48
INCH,TZ
T1C0.0472
T2C0.0512
T3C0.1280
T4C0.1378
%
G90
G05
T1
X75366Y-126114
X75366Y-127098
X77335Y-124146
X79303Y-126114
X79303Y-127098
X91831Y-126114
X91831Y-127098
X93799Y-124146
X95768Y-126114
X95768Y-127098
X97941Y-126114
X97941Y-127098
X99909Y-124146
X101878Y-126114
X101878Y-127098
T2
X106459Y-54028
X115278Y-54028
T3
X133709Y-118939
X164457Y-118939
X133709Y-94939
X164457Y-94939
X133709Y-106939
X164457Y-106939
X133709Y-76939
X164457Y-76939
X133709Y-88939
X164457Y-88939
X133709Y-100939
X164457Y-100939
X133709Y-112939
X164457Y-112939
X133709Y-82939
X164457Y-82939
T4
X66173Y-75272
X45579Y-47665
X66173Y-53276
X45579Y-69663
X45579Y-91661
T0
M30
